solid 
facet normal 0.61556673 -0 0.7880848
 outer loop
  vertex 21.051188 38.594936 26.162476
  vertex 12.134423 36.63462 33.12729
  vertex 12.134423 24.806578 33.12729
 endloop
endfacet
facet normal 0.61556685 -9.780773e-08 0.78808475
 outer loop
  vertex 21.051188 38.594936 26.162476
  vertex 12.134423 24.806578 33.12729
  vertex 21.051186 24.806576 26.162476
 endloop
endfacet
facet normal -0.6674937 3.3064335e-08 0.74461544
 outer loop
  vertex -12.134421 -0.032902002 33.12729
  vertex -12.134423 -38.537933 33.12729
  vertex -2.3726716e-06 -38.537933 44.004917
 endloop
endfacet
facet normal -0.6674937 4.3751772e-08 0.7446155
 outer loop
  vertex -12.134421 -0.032902002 33.12729
  vertex -2.3726716e-06 -38.537933 44.004917
  vertex 1.5119227e-07 -0.032902956 44.004917
 endloop
endfacet
facet normal -0 0.67691594 0.7360604
 outer loop
  vertex 1.7793294e-06 24.806578 44.004917
  vertex 12.134423 36.63462 33.12729
  vertex -12.134419 36.63462 33.12729
 endloop
endfacet
facet normal 1.74433e-07 0.9625981 0.2709336
 outer loop
  vertex 21.051188 38.594936 26.162476
  vertex -21.05117 38.594944 26.162476
  vertex -12.134419 36.63462 33.12729
 endloop
endfacet
facet normal 0 0.96259826 0.27093282
 outer loop
  vertex 21.051188 38.594936 26.162476
  vertex -12.134419 36.63462 33.12729
  vertex 12.134423 36.63462 33.12729
 endloop
endfacet
facet normal -0.61556727 3.0492156e-08 0.7880843
 outer loop
  vertex -21.051172 -0.03290105 26.162476
  vertex -21.051174 -38.537933 26.162476
  vertex -12.134423 -38.537933 33.12729
 endloop
endfacet
facet normal -0.6155673 3.0492156e-08 0.7880843
 outer loop
  vertex -21.051172 -0.03290105 26.162476
  vertex -12.134423 -38.537933 33.12729
  vertex -12.134421 -0.032902002 33.12729
 endloop
endfacet
facet normal 4.8915376e-07 1 -7.853264e-08
 outer loop
  vertex -19.069954 24.806581 38.502815
  vertex -12.134419 24.806578 33.12729
  vertex -21.05117 24.806581 26.162476
 endloop
endfacet
facet normal 0.61556685 -3.0492135e-08 0.78808475
 outer loop
  vertex 21.051184 -0.032904863 26.162476
  vertex 12.134421 -0.03290391 33.12729
  vertex 12.134419 -38.537933 33.12729
 endloop
endfacet
facet normal 0.6155668 -3.5024208e-08 0.7880847
 outer loop
  vertex 21.051184 -0.032904863 26.162476
  vertex 12.134419 -38.537933 33.12729
  vertex 21.051182 -38.537937 26.162476
 endloop
endfacet
facet normal -0.56872874 3.7278085e-08 0.82252514
 outer loop
  vertex 1.5119227e-07 -0.032902956 51.68859
  vertex 1.7905328e-06 24.977503 51.68859
  vertex -19.069954 24.806581 38.502815
 endloop
endfacet
facet normal -0.56872874 4.3670955e-08 0.82252514
 outer loop
  vertex 1.5119227e-07 -0.032902956 51.68859
  vertex -19.069954 24.806581 38.502815
  vertex -19.069956 -0.032901287 38.502815
 endloop
endfacet
facet normal -0.98735607 7.581608e-08 0.158518
 outer loop
  vertex -19.069956 -0.032901287 38.502815
  vertex -19.069954 24.806581 38.502815
  vertex -21.05117 24.806581 26.162476
 endloop
endfacet
facet normal -0.98735607 7.581608e-08 0.158518
 outer loop
  vertex -19.069956 -0.032901287 38.502815
  vertex -21.05117 24.806581 26.162476
  vertex -21.051172 -0.03290105 26.162476
 endloop
endfacet
facet normal -9.175153e-08 -1 1.4679443e-08
 outer loop
  vertex -19.069956 -0.032901287 38.502815
  vertex -12.134421 -0.032902002 33.12729
  vertex 1.5119227e-07 -0.032902956 44.004917
 endloop
endfacet
facet normal -8.751619e-08 -1 -0
 outer loop
  vertex -19.069956 -0.032901287 38.502815
  vertex 1.5119227e-07 -0.032902956 44.004917
  vertex 1.5119227e-07 -0.032902956 51.68859
 endloop
endfacet
facet normal -0.61556727 0 0.7880843
 outer loop
  vertex -21.05117 38.594944 26.162476
  vertex -21.05117 24.806581 26.162476
  vertex -12.134419 24.806578 33.12729
 endloop
endfacet
facet normal -0.61556727 0 0.7880843
 outer loop
  vertex -21.05117 38.594944 26.162476
  vertex -12.134419 24.806578 33.12729
  vertex -12.134419 36.63462 33.12729
 endloop
endfacet
facet normal -0.66749376 0 0.74461544
 outer loop
  vertex -12.134419 36.63462 33.12729
  vertex -12.134419 24.806578 33.12729
  vertex 1.7793294e-06 24.806578 44.004917
 endloop
endfacet
facet normal 0.56872874 -4.367096e-08 0.8225251
 outer loop
  vertex 1.5119227e-07 -0.032902956 51.68859
  vertex 19.069956 -0.032904625 38.502815
  vertex 19.069958 24.806576 38.502815
 endloop
endfacet
facet normal 0.56872874 -2.6314723e-08 0.82252514
 outer loop
  vertex 1.5119227e-07 -0.032902956 51.68859
  vertex 19.069958 24.806576 38.502815
  vertex 1.7905328e-06 24.977503 51.68859
 endloop
endfacet
facet normal 0.98735595 -7.5816075e-08 0.1585189
 outer loop
  vertex 19.069956 -0.032904625 38.502815
  vertex 21.051184 -0.032904863 26.162476
  vertex 21.051186 24.806576 26.162476
 endloop
endfacet
facet normal 0.98735595 -7.986887e-08 0.1585189
 outer loop
  vertex 19.069956 -0.032904625 38.502815
  vertex 21.051186 24.806576 26.162476
  vertex 19.069958 24.806576 38.502815
 endloop
endfacet
facet normal 0 -1 0
 outer loop
  vertex 12.134419 -38.537933 33.12729
  vertex -2.3726716e-06 -38.537933 44.004917
  vertex -12.134423 -38.537933 33.12729
 endloop
endfacet
facet normal -1.05033656e-07 -1 2.4572244e-09
 outer loop
  vertex 19.069956 -0.032904625 38.502815
  vertex 12.134421 -0.03290391 33.12729
  vertex 21.051184 -0.032904863 26.162476
 endloop
endfacet
facet normal 2.4457674e-07 1 3.9266524e-08
 outer loop
  vertex 19.069958 24.806576 38.502815
  vertex 21.051186 24.806576 26.162476
  vertex 12.134423 24.806578 33.12729
 endloop
endfacet
facet normal 0.6674937 -4.3751772e-08 0.74461544
 outer loop
  vertex 12.134421 -0.03290391 33.12729
  vertex 1.5119227e-07 -0.032902956 44.004917
  vertex -2.3726716e-06 -38.537933 44.004917
 endloop
endfacet
facet normal 0.6674937 -2.4317313e-08 0.74461544
 outer loop
  vertex 12.134421 -0.03290391 33.12729
  vertex -2.3726716e-06 -38.537933 44.004917
  vertex 12.134419 -38.537933 33.12729
 endloop
endfacet
facet normal 1.4748895e-07 1 1.6452971e-07
 outer loop
  vertex 19.069958 24.806576 38.502815
  vertex 12.134423 24.806578 33.12729
  vertex 1.7793294e-06 24.806578 44.004917
 endloop
endfacet
facet normal -0.00641642 0.999732 -0.022239273
 outer loop
  vertex 19.069958 24.806576 38.502815
  vertex 1.7793294e-06 24.806578 44.004917
  vertex 1.7905328e-06 24.977503 51.68859
 endloop
endfacet
facet normal -1.0503373e-07 -1 -2.4573086e-09
 outer loop
  vertex -12.134421 -0.032902002 33.12729
  vertex -19.069956 -0.032901287 38.502815
  vertex -21.051172 -0.03290105 26.162476
 endloop
endfacet
facet normal 0.66749376 0 0.74461544
 outer loop
  vertex 12.134423 36.63462 33.12729
  vertex 1.7793294e-06 24.806578 44.004917
  vertex 12.134423 24.806578 33.12729
 endloop
endfacet
facet normal 0 -1 0
 outer loop
  vertex 12.134419 -38.537933 33.12729
  vertex -12.134423 -38.537933 33.12729
  vertex -21.051174 -38.537933 26.162476
 endloop
endfacet
facet normal -9.060532e-08 -1 4.3171167e-07
 outer loop
  vertex 12.134419 -38.537933 33.12729
  vertex -21.051174 -38.537933 26.162476
  vertex 21.051182 -38.537937 26.162476
 endloop
endfacet
facet normal 0.0064167203 0.999732 -0.022239273
 outer loop
  vertex -19.069954 24.806581 38.502815
  vertex 1.7905328e-06 24.977503 51.68859
  vertex 1.7793294e-06 24.806578 44.004917
 endloop
endfacet
facet normal 2.949779e-07 1 -3.2905942e-07
 outer loop
  vertex -19.069954 24.806581 38.502815
  vertex 1.7793294e-06 24.806578 44.004917
  vertex -12.134419 24.806578 33.12729
 endloop
endfacet
facet normal -8.751619e-08 -1 0
 outer loop
  vertex 19.069956 -0.032904625 38.502815
  vertex 1.5119227e-07 -0.032902956 51.68859
  vertex 1.5119227e-07 -0.032902956 44.004917
 endloop
endfacet
facet normal -9.175154e-08 -1 -1.4679443e-08
 outer loop
  vertex 19.069956 -0.032904625 38.502815
  vertex 1.5119227e-07 -0.032902956 44.004917
  vertex 12.134421 -0.03290391 33.12729
 endloop
endfacet
facet normal -0 0 -1
 outer loop
  vertex -17.022182 -2.3395488 -0.39825946
  vertex -7.4737062 -1.5009878 -0.39825946
  vertex -2.0640576 -2.3395498 -0.39825946
 endloop
endfacet
facet normal 0.0037218544 -0.023650136 -0.9997134
 outer loop
  vertex -17.035324 -14.79453 -0.12898907
  vertex -17.035326 -17.139683 -0.07350999
  vertex -21.051184 -2.3395483 -0.43858626
 endloop
endfacet
facet normal 0.0018608595 -0.023650287 -0.99971855
 outer loop
  vertex -15.695602 -6.9917407 -0.31357637
  vertex -15.695602 -4.3495445 -0.37608266
  vertex -2.0640576 -2.3395498 -0.39825946
 endloop
endfacet
facet normal -1 7.567617e-07 0
 outer loop
  vertex -15.695607 -38.537933 23.266367
  vertex -15.695605 -36.017525 0.37034142
  vertex -15.695607 -38.537933 -0.2741227
 endloop
endfacet
facet normal 1 -0 0
 outer loop
  vertex -17.035326 -36.017525 0.37034142
  vertex -17.035326 -38.537933 23.266367
  vertex -17.035326 -38.537933 -0.27413327
 endloop
endfacet
facet normal 0 -0 -1
 outer loop
  vertex 17.022182 -2.3395512 -0.39825946
  vertex 2.0640576 -2.3395503 -0.39825946
  vertex 7.4737062 -1.5009887 -0.39825946
 endloop
endfacet
facet normal -0.0037219713 -0.02365011 -0.9997134
 outer loop
  vertex 17.035324 -14.794532 -0.12898907
  vertex 21.051184 -2.3395517 -0.43858626
  vertex 17.035322 -17.139687 -0.07350999
 endloop
endfacet
facet normal -0.0018608624 -0.023650289 -0.99971855
 outer loop
  vertex 15.695602 -6.9917426 -0.31357637
  vertex 2.0640576 -2.3395503 -0.39825946
  vertex 15.695602 -4.3495464 -0.37608266
 endloop
endfacet
facet normal 1 7.5676166e-07 -0
 outer loop
  vertex 15.695601 -38.537933 23.266367
  vertex 15.695601 -38.537933 -0.2741227
  vertex 15.6956 -36.017525 0.37034142
 endloop
endfacet
facet normal -1 0 0
 outer loop
  vertex 17.035322 -36.017525 0.37034142
  vertex 17.035322 -38.537933 -0.27413327
  vertex 17.035322 -38.537933 23.266367
 endloop
endfacet
facet normal -2.1022553e-09 -0.018199822 -0.99983436
 outer loop
  vertex -3.512307e-07 -6.9917417 -0.31357637
  vertex -2.0640576 -2.3395498 -0.39825946
  vertex 0 -2.33955 -0.39825946
 endloop
endfacet
facet normal -2.1022553e-09 -0.018199822 -0.99983436
 outer loop
  vertex -3.512307e-07 -6.9917417 -0.31357637
  vertex 0 -2.33955 -0.39825946
  vertex 2.0640576 -2.3395503 -0.39825946
 endloop
endfacet
facet normal -1 0 0
 outer loop
  vertex -21.051182 28.338127 5.94258
  vertex -21.051182 28.338127 5.4448314
  vertex -21.051182 27.669811 5.4448314
 endloop
endfacet
facet normal -1 0 0
 outer loop
  vertex -21.051182 27.669811 5.4448314
  vertex -21.051182 27.669811 4.947086
  vertex -21.051182 27.001495 4.947086
 endloop
endfacet
facet normal 1 -7.6987654e-08 1.0336649e-07
 outer loop
  vertex 21.051186 26.333187 4.449338
  vertex 21.051184 0.27631593 3.494398
  vertex 21.051186 25.66488 3.9515815
 endloop
endfacet
facet normal 1 0 -0
 outer loop
  vertex 21.051186 26.333187 4.449338
  vertex 21.051186 25.66488 3.9515815
  vertex 21.051186 26.333187 3.9515815
 endloop
endfacet
facet normal 1 -7.698772e-08 1.0336805e-07
 outer loop
  vertex 21.051186 27.001492 4.947086
  vertex 21.051184 0.27631593 3.494398
  vertex 21.051186 26.333187 4.449338
 endloop
endfacet
facet normal 1 0 -0
 outer loop
  vertex 21.051186 27.001492 4.947086
  vertex 21.051186 26.333187 4.449338
  vertex 21.051186 27.001492 4.449338
 endloop
endfacet
facet normal 1 0 0
 outer loop
  vertex 21.051186 27.001492 4.947086
  vertex 21.051186 27.669807 4.947086
  vertex 21.051186 27.669807 5.4448314
 endloop
endfacet
facet normal 1 0 0
 outer loop
  vertex 21.051186 27.669807 5.4448314
  vertex 21.051186 28.338123 5.4448314
  vertex 21.051186 28.338123 5.94258
 endloop
endfacet
facet normal 0.0006703737 -0.023646424 -0.99972016
 outer loop
  vertex -21.051186 -36.017525 0.37034142
  vertex -17.035326 -25.437065 0.12277424
  vertex -17.035326 -27.43495 0.1700303
 endloop
endfacet
facet normal 0 -0.023332926 -0.99972767
 outer loop
  vertex -21.051186 -36.017525 0.37034142
  vertex -17.035326 -27.43495 0.1700303
  vertex -17.035326 -36.017525 0.37034142
 endloop
endfacet
facet normal 0.31506848 0.9490689 -0
 outer loop
  vertex -7.4737062 -1.5009878 3.4943986
  vertex -7.4737062 -1.5009878 -0.39825946
  vertex -12.848336 0.2832625 -0.39825946
 endloop
endfacet
facet normal 0.31506848 0.9490689 0
 outer loop
  vertex -7.4737062 -1.5009878 3.4943986
  vertex -12.848336 0.2832625 -0.39825946
  vertex -12.848336 0.2832625 3.4943986
 endloop
endfacet
facet normal 1 -0 0
 outer loop
  vertex 21.051184 0.27631593 3.494398
  vertex 21.051184 -2.3395517 26.162476
  vertex 21.051184 -2.3395517 -0.43858626
 endloop
endfacet
facet normal 1 0 -0
 outer loop
  vertex 21.051184 0.27631593 3.494398
  vertex 21.051184 -2.3395517 -0.43858626
  vertex 21.051184 0.28325987 -0.39825946
 endloop
endfacet
facet normal 1.1550966e-07 1 -0
 outer loop
  vertex 0 -2.33955 3.4943986
  vertex 0 -2.33955 -0.39825946
  vertex -2.0640576 -2.3395498 -0.39825946
 endloop
endfacet
facet normal 1.1550966e-07 1 0
 outer loop
  vertex 0 -2.33955 3.4943986
  vertex -2.0640576 -2.3395498 -0.39825946
  vertex -2.0640576 -2.3395498 3.4943986
 endloop
endfacet
facet normal 0.15318279 0.9881978 -0
 outer loop
  vertex -2.0640576 -2.3395498 3.4943986
  vertex -2.0640576 -2.3395498 -0.39825946
  vertex -7.4737062 -1.5009878 -0.39825946
 endloop
endfacet
facet normal 0.15318279 0.9881978 0
 outer loop
  vertex -2.0640576 -2.3395498 3.4943986
  vertex -7.4737062 -1.5009878 -0.39825946
  vertex -7.4737062 -1.5009878 3.4943986
 endloop
endfacet
facet normal 9.060529e-08 1 -0
 outer loop
  vertex -21.051182 27.001495 4.947086
  vertex 21.051186 27.001492 4.947086
  vertex 21.051186 27.001492 4.449338
 endloop
endfacet
facet normal 9.060529e-08 1 0
 outer loop
  vertex -21.051182 27.001495 4.947086
  vertex 21.051186 27.001492 4.449338
  vertex -21.051182 27.001495 4.449338
 endloop
endfacet
facet normal 0 0 -1
 outer loop
  vertex -21.051182 27.669811 4.947086
  vertex 21.051186 27.669807 4.947086
  vertex 21.051186 27.001492 4.947086
 endloop
endfacet
facet normal 0 0 -1
 outer loop
  vertex -21.051182 27.669811 4.947086
  vertex 21.051186 27.001492 4.947086
  vertex -21.051182 27.001495 4.947086
 endloop
endfacet
facet normal 9.060529e-08 1 -0
 outer loop
  vertex -21.051182 28.338127 5.94258
  vertex 21.051186 28.338123 5.94258
  vertex 21.051186 28.338123 5.4448314
 endloop
endfacet
facet normal 9.060529e-08 1 0
 outer loop
  vertex -21.051182 28.338127 5.94258
  vertex 21.051186 28.338123 5.4448314
  vertex -21.051182 28.338127 5.4448314
 endloop
endfacet
facet normal 4.271071e-06 -1 -2.3415845e-05
 outer loop
  vertex -17.035324 -4.3495502 -0.37608266
  vertex -15.695602 -4.3495445 -0.37608266
  vertex -15.6956 -4.350098 23.266367
 endloop
endfacet
facet normal 4.2710617e-06 -1 -2.3415843e-05
 outer loop
  vertex -17.035324 -4.3495502 -0.37608266
  vertex -15.6956 -4.350098 23.266367
  vertex -17.035324 -4.350104 23.266367
 endloop
endfacet
facet normal 0 0 -1
 outer loop
  vertex -21.051182 29.055513 5.94258
  vertex 21.051186 29.05551 5.94258
  vertex 21.051186 28.338123 5.94258
 endloop
endfacet
facet normal 0 0 -1
 outer loop
  vertex -21.051182 29.055513 5.94258
  vertex 21.051186 28.338123 5.94258
  vertex -21.051182 28.338127 5.94258
 endloop
endfacet
facet normal -0.31506833 0.949069 0
 outer loop
  vertex 12.848336 0.28326058 3.4943986
  vertex 12.848336 0.28326058 -0.39825946
  vertex 7.4737062 -1.5009887 -0.39825946
 endloop
endfacet
facet normal -0.31506833 0.949069 0
 outer loop
  vertex 12.848336 0.28326058 3.4943986
  vertex 7.4737062 -1.5009887 -0.39825946
  vertex 7.4737062 -1.5009887 3.4943986
 endloop
endfacet
facet normal 0 0 -1
 outer loop
  vertex -21.051182 28.338127 5.4448314
  vertex 21.051186 28.338123 5.4448314
  vertex 21.051186 27.669807 5.4448314
 endloop
endfacet
facet normal 0 0 -1
 outer loop
  vertex -21.051182 28.338127 5.4448314
  vertex 21.051186 27.669807 5.4448314
  vertex -21.051182 27.669811 5.4448314
 endloop
endfacet
facet normal 9.060529e-08 1 -0
 outer loop
  vertex -21.051182 27.669811 5.4448314
  vertex 21.051186 27.669807 5.4448314
  vertex 21.051186 27.669807 4.947086
 endloop
endfacet
facet normal 9.060529e-08 1 0
 outer loop
  vertex -21.051182 27.669811 5.4448314
  vertex 21.051186 27.669807 4.947086
  vertex -21.051182 27.669811 4.947086
 endloop
endfacet
facet normal -0.15318273 0.9881979 0
 outer loop
  vertex 7.4737062 -1.5009887 3.4943986
  vertex 7.4737062 -1.5009887 -0.39825946
  vertex 2.0640576 -2.3395503 -0.39825946
 endloop
endfacet
facet normal -0.15318273 0.9881979 0
 outer loop
  vertex 7.4737062 -1.5009887 3.4943986
  vertex 2.0640576 -2.3395503 -0.39825946
  vertex 2.0640576 -2.3395503 3.4943986
 endloop
endfacet
facet normal 9.060529e-08 1 -0
 outer loop
  vertex -21.051182 26.33319 4.449338
  vertex 21.051186 26.333187 4.449338
  vertex 21.051186 26.333187 3.9515815
 endloop
endfacet
facet normal 9.060529e-08 1 0
 outer loop
  vertex -21.051182 26.33319 4.449338
  vertex 21.051186 26.333187 3.9515815
  vertex -21.051182 26.33319 3.9515815
 endloop
endfacet
facet normal -0 0 1
 outer loop
  vertex -15.695602 -0.7547134 20.692278
  vertex -17.035324 1.7836728 20.692278
  vertex -17.035324 -2.7074027 20.692278
 endloop
endfacet
facet normal 0 -0 1
 outer loop
  vertex -15.695602 -0.7547134 20.692278
  vertex -17.035324 -2.7074027 20.692278
  vertex -15.695604 -2.707397 20.692278
 endloop
endfacet
facet normal -1 7.512632e-08 -1.880542e-12
 outer loop
  vertex -21.051182 25.664885 3.9515815
  vertex -21.051182 25.664873 3.494398
  vertex -21.051184 0.27631927 3.494398
 endloop
endfacet
facet normal 0 0 -1
 outer loop
  vertex -21.051182 25.664873 3.494398
  vertex -12.848336 0.27631807 3.494398
  vertex -21.051184 0.27631927 3.494398
 endloop
endfacet
facet normal -1 7.7745085e-08 -1.1204997e-07
 outer loop
  vertex -21.051182 28.338127 5.94258
  vertex -21.051184 0.27631927 3.494398
  vertex -21.051182 29.055502 6.4403257
 endloop
endfacet
facet normal -1 -0 0
 outer loop
  vertex -21.051182 28.338127 5.94258
  vertex -21.051182 29.055502 6.4403257
  vertex -21.051182 29.055513 5.94258
 endloop
endfacet
facet normal -1 0 0
 outer loop
  vertex -21.051182 27.001495 4.947086
  vertex -21.051182 27.001495 4.449338
  vertex -21.051182 26.33319 4.449338
 endloop
endfacet
facet normal -1 7.698771e-08 -1.03368045e-07
 outer loop
  vertex -21.051182 27.001495 4.947086
  vertex -21.051182 26.33319 4.449338
  vertex -21.051184 0.27631927 3.494398
 endloop
endfacet
facet normal 0 1 -0
 outer loop
  vertex -21.05118 38.59495 26.162476
  vertex 21.051188 38.59495 26.162476
  vertex 21.051188 38.59495 6.4403257
 endloop
endfacet
facet normal 0 1 -0
 outer loop
  vertex -21.05118 38.59495 26.162476
  vertex 21.051188 38.59495 6.4403257
  vertex -21.05118 38.59495 6.4403257
 endloop
endfacet
facet normal -1 7.698779e-08 -1.0336973e-07
 outer loop
  vertex -21.051184 0.27631927 3.494398
  vertex -21.051182 28.338127 5.94258
  vertex -21.051182 27.669811 5.4448314
 endloop
endfacet
facet normal -1 7.6987845e-08 -1.03370496e-07
 outer loop
  vertex -21.051184 0.27631927 3.494398
  vertex -21.051182 27.669811 5.4448314
  vertex -21.051182 27.001495 4.947086
 endloop
endfacet
facet normal 0 0 -1
 outer loop
  vertex 15.695602 -27.443039 23.266367
  vertex 17.035322 -27.443039 23.266367
  vertex 17.035322 -38.537933 23.266367
 endloop
endfacet
facet normal 0 0 -1
 outer loop
  vertex 15.695602 -27.443039 23.266367
  vertex 17.035322 -38.537933 23.266367
  vertex 15.695601 -38.537933 23.266367
 endloop
endfacet
facet normal -1 6.5501546e-08 7.558796e-09
 outer loop
  vertex -21.051182 29.055502 6.4403257
  vertex -21.051184 0.27631927 3.494398
  vertex -21.051184 -2.3395483 26.162476
 endloop
endfacet
facet normal -1 6.0753166e-08 0
 outer loop
  vertex -21.051182 29.055502 6.4403257
  vertex -21.051184 -2.3395483 26.162476
  vertex -21.051182 29.055502 26.162476
 endloop
endfacet
facet normal -1 5.2691533e-08 1.5112347e-14
 outer loop
  vertex -21.051186 -38.537933 -0.43858626
  vertex -21.051186 -38.53794 26.162476
  vertex -21.051184 -2.3395483 26.162476
 endloop
endfacet
facet normal -1 5.2691544e-08 0
 outer loop
  vertex -21.051186 -38.537933 -0.43858626
  vertex -21.051184 -2.3395483 26.162476
  vertex -21.051184 -2.3395483 -0.43858626
 endloop
endfacet
facet normal 9.060529e-08 1 -2.5031732e-05
 outer loop
  vertex -21.051182 25.664885 3.9515815
  vertex 21.051186 25.66488 3.9515815
  vertex 21.051186 25.66487 3.494398
 endloop
endfacet
facet normal 9.060529e-08 1 -2.5031732e-05
 outer loop
  vertex -21.051182 25.664885 3.9515815
  vertex 21.051186 25.66487 3.494398
  vertex -21.051182 25.664873 3.494398
 endloop
endfacet
facet normal 1 0 0
 outer loop
  vertex 21.051186 28.338123 5.94258
  vertex 21.051186 29.05551 5.94258
  vertex 21.051186 29.055498 6.4403257
 endloop
endfacet
facet normal 1 -7.774508e-08 1.12049946e-07
 outer loop
  vertex 21.051186 28.338123 5.94258
  vertex 21.051186 29.055498 6.4403257
  vertex 21.051184 0.27631593 3.494398
 endloop
endfacet
facet normal 1.1550966e-07 1 -0
 outer loop
  vertex 2.0640576 -2.3395503 3.4943986
  vertex 2.0640576 -2.3395503 -0.39825946
  vertex 0 -2.33955 -0.39825946
 endloop
endfacet
facet normal 1.1550966e-07 1 0
 outer loop
  vertex 2.0640576 -2.3395503 3.4943986
  vertex 0 -2.33955 -0.39825946
  vertex 0 -2.33955 3.4943986
 endloop
endfacet
facet normal 0 0 -1
 outer loop
  vertex -21.051182 27.001495 4.449338
  vertex 21.051186 27.001492 4.449338
  vertex 21.051186 26.333187 4.449338
 endloop
endfacet
facet normal 0 0 -1
 outer loop
  vertex -21.051182 27.001495 4.449338
  vertex 21.051186 26.333187 4.449338
  vertex -21.051182 26.33319 4.449338
 endloop
endfacet
facet normal 0.010008013 -0.011097429 -0.99988836
 outer loop
  vertex -21.051184 -2.3395483 -0.43858626
  vertex -17.022182 -2.3395488 -0.39825946
  vertex -17.035324 -4.3495502 -0.37608266
 endloop
endfacet
facet normal 0.003722417 -0.023650218 -0.99971336
 outer loop
  vertex -21.051184 -2.3395483 -0.43858626
  vertex -17.035324 -4.3495502 -0.37608266
  vertex -17.035324 -6.99174 -0.31357637
 endloop
endfacet
facet normal 9.060529e-08 1 2.2991853e-05
 outer loop
  vertex -21.051182 29.055502 6.4403257
  vertex 21.051186 29.055498 6.4403257
  vertex 21.051186 29.05551 5.94258
 endloop
endfacet
facet normal 9.060529e-08 1 2.2991853e-05
 outer loop
  vertex -21.051182 29.055502 6.4403257
  vertex 21.051186 29.05551 5.94258
  vertex -21.051182 29.055513 5.94258
 endloop
endfacet
facet normal -1 8.595611e-08 -7.384269e-08
 outer loop
  vertex -15.695605 -36.017525 0.37034142
  vertex -15.695607 -38.537933 23.266367
  vertex -15.695606 -27.443035 23.266367
 endloop
endfacet
facet normal -1 1.0919107e-07 -8.254411e-08
 outer loop
  vertex -15.695605 -36.017525 0.37034142
  vertex -15.695606 -27.443035 23.266367
  vertex -15.695604 -27.43495 0.1700409
 endloop
endfacet
facet normal -4.2710617e-06 -1 -2.3436012e-05
 outer loop
  vertex 17.035324 -4.349552 -0.37608266
  vertex 17.035324 -4.3501062 23.266367
  vertex 15.6956 -4.3501005 23.266367
 endloop
endfacet
facet normal -4.271064e-06 -1 -2.3436012e-05
 outer loop
  vertex 17.035324 -4.349552 -0.37608266
  vertex 15.6956 -4.3501005 23.266367
  vertex 15.695602 -4.3495464 -0.37608266
 endloop
endfacet
facet normal 0 0.24773188 -0.9688287
 outer loop
  vertex 21.051182 -38.537933 -0.27413327
  vertex 17.035322 -38.537933 -0.27413327
  vertex 17.035322 -36.017525 0.37034142
 endloop
endfacet
facet normal 0 0.24773188 -0.9688287
 outer loop
  vertex 21.051182 -38.537933 -0.27413327
  vertex 17.035322 -36.017525 0.37034142
  vertex 21.051182 -36.017525 0.37034142
 endloop
endfacet
facet normal 1 -1.9994317e-07 0
 outer loop
  vertex 21.051186 29.055498 26.162476
  vertex 21.051186 29.055498 6.4403257
  vertex 21.051188 38.59495 6.4403257
 endloop
endfacet
facet normal 1 -1.9994317e-07 0
 outer loop
  vertex 21.051186 29.055498 26.162476
  vertex 21.051188 38.59495 6.4403257
  vertex 21.051188 38.59495 26.162476
 endloop
endfacet
facet normal 0 -0.023332939 -0.9997278
 outer loop
  vertex 21.051182 -36.017525 0.37034142
  vertex 17.035322 -36.017525 0.37034142
  vertex 17.035322 -27.434954 0.1700303
 endloop
endfacet
facet normal -0.0006703514 -0.023646424 -0.99972016
 outer loop
  vertex 21.051182 -36.017525 0.37034142
  vertex 17.035322 -27.434954 0.1700303
  vertex 17.035322 -25.437069 0.12277424
 endloop
endfacet
facet normal -0 -0 -1
 outer loop
  vertex 0 -2.33955 3.4943986
  vertex -12.848336 0.2832625 3.4943986
  vertex 12.848336 0.28326058 3.4943986
 endloop
endfacet
facet normal -0 0 -1
 outer loop
  vertex 0 -2.33955 3.4943986
  vertex 12.848336 0.28326058 3.4943986
  vertex 7.4737062 -1.5009887 3.4943986
 endloop
endfacet
facet normal -0.0023860002 -0.024012491 -0.9997088
 outer loop
  vertex 17.035322 -17.139687 -0.07350999
  vertex 21.051184 -2.3395517 -0.43858626
  vertex 21.051182 -36.017525 0.37034142
 endloop
endfacet
facet normal -0.00067857886 -0.023649542 -0.99972004
 outer loop
  vertex 17.035322 -17.139687 -0.07350999
  vertex 21.051182 -36.017525 0.37034142
  vertex 17.035322 -25.437069 0.12277424
 endloop
endfacet
facet normal -1.4370027e-09 -0.023650236 -0.9997203
 outer loop
  vertex -9.4032407e-07 -14.794519 -0.12898907
  vertex 15.695601 -14.79452 -0.12898907
  vertex 15.695601 -17.139679 -0.07350999
 endloop
endfacet
facet normal 8.621992e-09 -0.02365017 -0.9997203
 outer loop
  vertex -9.4032407e-07 -14.794519 -0.12898907
  vertex 15.695601 -17.139679 -0.07350999
  vertex -1.1173792e-06 -17.139685 -0.07350999
 endloop
endfacet
facet normal 8.417508e-08 -0.023649814 -0.9997203
 outer loop
  vertex -15.695603 -9.5132 -0.25392753
  vertex -17.035324 -9.513205 -0.25392753
  vertex -17.035324 -6.99174 -0.31357637
 endloop
endfacet
facet normal -8.417519e-09 -0.023649862 -0.9997203
 outer loop
  vertex -15.695603 -9.5132 -0.25392753
  vertex -17.035324 -6.99174 -0.31357637
  vertex -15.695602 -6.9917407 -0.31357637
 endloop
endfacet
facet normal 0.0008176809 -0.018562483 -0.9998274
 outer loop
  vertex 15.695601 -9.513202 -0.25392753
  vertex -3.512307e-07 -6.9917417 -0.31357637
  vertex 2.0640576 -2.3395503 -0.39825946
 endloop
endfacet
facet normal -0.001860699 -0.023649814 -0.9997185
 outer loop
  vertex 15.695601 -9.513202 -0.25392753
  vertex 2.0640576 -2.3395503 -0.39825946
  vertex 15.695602 -6.9917426 -0.31357637
 endloop
endfacet
facet normal 1 -2.2189147e-06 -8.799392e-11
 outer loop
  vertex -15.6956 1.783678 20.692278
  vertex -15.695602 0.4942987 20.692278
  vertex -15.695602 0.49513507 -0.39825946
 endloop
endfacet
facet normal 1 0 -1.3565433e-07
 outer loop
  vertex -15.6956 1.783678 20.692278
  vertex -15.695602 0.49513507 -0.39825946
  vertex -15.695602 1.784235 -0.39825946
 endloop
endfacet
facet normal -3.9151478e-06 1 2.6407377e-05
 outer loop
  vertex -15.695602 1.784235 -0.39825946
  vertex -17.035324 1.7842298 -0.39825946
  vertex -17.035324 1.7836728 20.692278
 endloop
endfacet
facet normal -3.9151396e-06 1 2.6407379e-05
 outer loop
  vertex -15.695602 1.784235 -0.39825946
  vertex -17.035324 1.7836728 20.692278
  vertex -15.6956 1.783678 20.692278
 endloop
endfacet
facet normal -0.0037226828 -0.023649873 -0.99971336
 outer loop
  vertex 21.051184 -2.3395517 -0.43858626
  vertex 17.035324 -14.794532 -0.12898907
  vertex 17.035324 -9.513207 -0.25392753
 endloop
endfacet
facet normal -0.0037230814 -0.023649648 -0.9997134
 outer loop
  vertex 21.051184 -2.3395517 -0.43858626
  vertex 17.035324 -9.513207 -0.25392753
  vertex 17.035324 -6.991743 -0.31357637
 endloop
endfacet
facet normal 4.271067e-06 -0.99999994 -0.00020299395
 outer loop
  vertex -17.035326 -17.14442 23.266367
  vertex -17.035326 -17.139683 -0.07350999
  vertex -15.695603 -17.139677 -0.07350999
 endloop
endfacet
facet normal 8.542134e-06 -0.99999994 -0.00020274878
 outer loop
  vertex -17.035326 -17.14442 23.266367
  vertex -15.695603 -17.139677 -0.07350999
  vertex -15.695605 -17.14441 23.266367
 endloop
endfacet
facet normal 7.1812174e-08 1 -0
 outer loop
  vertex -12.375572 0.49513483 20.681862
  vertex -12.375572 0.49513483 -0.39825946
  vertex -15.695602 0.49513507 -0.39825946
 endloop
endfacet
facet normal -0.00025172083 0.9999999 3.965628e-05
 outer loop
  vertex -12.375572 0.49513483 20.681862
  vertex -15.695602 0.49513507 -0.39825946
  vertex -15.695602 0.4942987 20.692278
 endloop
endfacet
facet normal 2.0202383e-07 -0.023650238 -0.9997203
 outer loop
  vertex -17.035324 -14.79453 -0.12898907
  vertex -15.695603 -14.794518 -0.12898907
  vertex -15.695603 -17.139677 -0.07350999
 endloop
endfacet
facet normal 1.0101202e-07 -0.023650296 -0.9997203
 outer loop
  vertex -17.035324 -14.79453 -0.12898907
  vertex -15.695603 -17.139677 -0.07350999
  vertex -17.035326 -17.139683 -0.07350999
 endloop
endfacet
facet normal -1 0 0
 outer loop
  vertex 17.035324 -9.51544 23.266367
  vertex 17.035324 -9.513207 -0.25392753
  vertex 17.035324 -14.794532 -0.12898907
 endloop
endfacet
facet normal -1 0 0
 outer loop
  vertex 17.035324 -9.51544 23.266367
  vertex 17.035324 -14.794532 -0.12898907
  vertex 17.035324 -14.798485 23.266367
 endloop
endfacet
facet normal 0.0006785932 -0.023649542 -0.99972004
 outer loop
  vertex -17.035326 -17.139683 -0.07350999
  vertex -17.035326 -25.437065 0.12277424
  vertex -21.051186 -36.017525 0.37034142
 endloop
endfacet
facet normal 0.0023860086 -0.024012493 -0.9997089
 outer loop
  vertex -17.035326 -17.139683 -0.07350999
  vertex -21.051186 -36.017525 0.37034142
  vertex -21.051184 -2.3395483 -0.43858626
 endloop
endfacet
facet normal -7.181217e-08 -1 -5.3447806e-05
 outer loop
  vertex -15.695602 -0.7547134 20.692278
  vertex -15.695602 -0.7535862 -0.39825946
  vertex -12.375572 -0.7535864 -0.39825946
 endloop
endfacet
facet normal 0.0003394561 -0.9999999 0
 outer loop
  vertex -15.695602 -0.7547134 20.692278
  vertex -12.375572 -0.7535864 -0.39825946
  vertex -12.375572 -0.7535864 20.702694
 endloop
endfacet
facet normal -7.033968e-10 -0.01103259 -0.99993914
 outer loop
  vertex 15.695602 -4.3495464 -0.37608266
  vertex 2.0640576 -2.3395503 -0.39825946
  vertex 17.022182 -2.3395512 -0.39825946
 endloop
endfacet
facet normal -4.7032902e-08 -0.011032559 -0.9999392
 outer loop
  vertex 15.695602 -4.3495464 -0.37608266
  vertex 17.022182 -2.3395512 -0.39825946
  vertex 17.035324 -4.349552 -0.37608266
 endloop
endfacet
facet normal -4.449038e-06 -1 -6.712628e-05
 outer loop
  vertex 17.035324 -2.7059896 -0.39825946
  vertex 17.035324 -2.7074053 20.692278
  vertex 15.695604 -2.7073994 20.692278
 endloop
endfacet
facet normal 0 -1 -6.684368e-05
 outer loop
  vertex 17.035324 -2.7059896 -0.39825946
  vertex 15.695604 -2.7073994 20.692278
  vertex 15.695602 -2.7059896 -0.39825946
 endloop
endfacet
facet normal 1 1.8041156e-06 -8.078072e-08
 outer loop
  vertex 15.6956 -4.3501005 23.266367
  vertex 15.695604 -6.9931526 23.266367
  vertex 15.695602 -6.9917426 -0.31357637
 endloop
endfacet
facet normal 1 2.8627787e-09 1.2101219e-07
 outer loop
  vertex 15.6956 -4.3501005 23.266367
  vertex 15.695602 -6.9917426 -0.31357637
  vertex 15.695602 -4.3495464 -0.37608266
 endloop
endfacet
facet normal 1 0 -0
 outer loop
  vertex -17.035326 -17.14442 23.266367
  vertex -17.035326 -25.444498 23.266367
  vertex -17.035326 -25.437065 0.12277424
 endloop
endfacet
facet normal 1 0 -0
 outer loop
  vertex -17.035326 -17.14442 23.266367
  vertex -17.035326 -25.437065 0.12277424
  vertex -17.035326 -17.139683 -0.07350999
 endloop
endfacet
facet normal 0 -0.99999994 -0.00035006652
 outer loop
  vertex 17.035322 -27.443039 23.266367
  vertex 15.695602 -27.443039 23.266367
  vertex 15.6956005 -27.434954 0.1700409
 endloop
endfacet
facet normal -2.7722724e-09 -0.99999994 -0.00035006634
 outer loop
  vertex 17.035322 -27.443039 23.266367
  vertex 15.6956005 -27.434954 0.1700409
  vertex 17.035322 -27.434954 0.1700303
 endloop
endfacet
facet normal -1 0 0
 outer loop
  vertex 17.035322 -17.144424 23.266367
  vertex 17.035322 -17.139687 -0.07350999
  vertex 17.035322 -25.437069 0.12277424
 endloop
endfacet
facet normal -1 0 0
 outer loop
  vertex 17.035322 -17.144424 23.266367
  vertex 17.035322 -25.437069 0.12277424
  vertex 17.035322 -25.444502 23.266367
 endloop
endfacet
facet normal 0 0 -1
 outer loop
  vertex 21.051188 38.59495 6.4403257
  vertex 21.051186 29.055498 6.4403257
  vertex -21.051182 29.055502 6.4403257
 endloop
endfacet
facet normal 0 -0 -1
 outer loop
  vertex 21.051188 38.59495 6.4403257
  vertex -21.051182 29.055502 6.4403257
  vertex -21.05118 38.59495 6.4403257
 endloop
endfacet
facet normal 0 0.99999994 0.0003211661
 outer loop
  vertex 15.6956005 -25.444502 23.266367
  vertex 17.035322 -25.444502 23.266367
  vertex 17.035322 -25.437069 0.12277424
 endloop
endfacet
facet normal 2.84738e-06 0.99999994 0.00032133094
 outer loop
  vertex 15.6956005 -25.444502 23.266367
  vertex 17.035322 -25.437069 0.12277424
  vertex 15.6956005 -25.437065 0.12277424
 endloop
endfacet
facet normal -1 1.9994326e-07 0
 outer loop
  vertex -21.051182 29.055502 26.162476
  vertex -21.05118 38.59495 26.162476
  vertex -21.05118 38.59495 6.4403257
 endloop
endfacet
facet normal -1 1.9994326e-07 0
 outer loop
  vertex -21.051182 29.055502 26.162476
  vertex -21.05118 38.59495 6.4403257
  vertex -21.051182 29.055502 6.4403257
 endloop
endfacet
facet normal 3.5592254e-07 1 5.97969e-05
 outer loop
  vertex 17.035324 -6.991743 -0.31357637
  vertex 15.695602 -6.9917426 -0.31357637
  vertex 15.695604 -6.9931526 23.266367
 endloop
endfacet
facet normal 4.6269997e-06 1 6.0039565e-05
 outer loop
  vertex 17.035324 -6.991743 -0.31357637
  vertex 15.695604 -6.9931526 23.266367
  vertex 17.035324 -6.993159 23.266367
 endloop
endfacet
facet normal 1 -6.0753166e-08 0
 outer loop
  vertex 21.051186 29.055498 6.4403257
  vertex 21.051186 29.055498 26.162476
  vertex 21.051184 -2.3395517 26.162476
 endloop
endfacet
facet normal 1 -6.5501546e-08 -7.558796e-09
 outer loop
  vertex 21.051186 29.055498 6.4403257
  vertex 21.051184 -2.3395517 26.162476
  vertex 21.051184 0.27631593 3.494398
 endloop
endfacet
facet normal -1 0 0
 outer loop
  vertex 15.695602 -0.7547158 20.692278
  vertex 15.695602 -0.75358856 -0.39825946
  vertex 15.695602 -2.7059896 -0.39825946
 endloop
endfacet
facet normal -1 -9.767832e-07 9.037093e-08
 outer loop
  vertex 15.695602 -0.7547158 20.692278
  vertex 15.695602 -2.7059896 -0.39825946
  vertex 15.695604 -2.7073994 20.692278
 endloop
endfacet
facet normal 3.559228e-06 -1 -9.512296e-05
 outer loop
  vertex -17.035324 -9.513205 -0.25392753
  vertex -15.695603 -9.5132 -0.25392753
  vertex -15.695603 -9.515437 23.266367
 endloop
endfacet
facet normal -7.118456e-07 -1 -9.487967e-05
 outer loop
  vertex -17.035324 -9.513205 -0.25392753
  vertex -15.695603 -9.515437 23.266367
  vertex -17.035324 -9.515436 23.266367
 endloop
endfacet
facet normal -2.874182e-09 -0.023651691 -0.9997203
 outer loop
  vertex -1.8946502e-06 -27.434952 0.1700409
  vertex -1.7438138e-06 -25.437063 0.12277424
  vertex 15.6956005 -25.437065 0.12277424
 endloop
endfacet
facet normal -2.850366e-09 -0.023651691 -0.9997203
 outer loop
  vertex -1.8946502e-06 -27.434952 0.1700409
  vertex 15.6956005 -25.437065 0.12277424
  vertex 15.6956005 -27.434954 0.1700409
 endloop
endfacet
facet normal -2.8739227e-09 -0.023649557 -0.9997203
 outer loop
  vertex -1.1173792e-06 -17.139685 -0.07350999
  vertex -1.7438138e-06 -25.437063 0.12277424
  vertex -15.695604 -25.437061 0.12277424
 endloop
endfacet
facet normal -1.1896324e-08 -0.023649544 -0.9997203
 outer loop
  vertex -1.1173792e-06 -17.139685 -0.07350999
  vertex -15.695604 -25.437061 0.12277424
  vertex -15.695603 -17.139677 -0.07350999
 endloop
endfacet
facet normal 1 -7.6987845e-08 1.03370496e-07
 outer loop
  vertex 21.051184 0.27631593 3.494398
  vertex 21.051186 27.001492 4.947086
  vertex 21.051186 27.669807 5.4448314
 endloop
endfacet
facet normal 1 -7.698779e-08 1.0336973e-07
 outer loop
  vertex 21.051184 0.27631593 3.494398
  vertex 21.051186 27.669807 5.4448314
  vertex 21.051186 28.338123 5.94258
 endloop
endfacet
facet normal -1 -0 -0
 outer loop
  vertex 17.035322 -36.017525 0.37034142
  vertex 17.035322 -38.537933 23.266367
  vertex 17.035322 -27.443039 23.266367
 endloop
endfacet
facet normal -1 -0 0
 outer loop
  vertex 17.035322 -36.017525 0.37034142
  vertex 17.035322 -27.443039 23.266367
  vertex 17.035322 -27.434954 0.1700303
 endloop
endfacet
facet normal 3.5592254e-07 1 5.97969e-05
 outer loop
  vertex -15.695604 -6.9931507 23.266367
  vertex -15.695602 -6.9917407 -0.31357637
  vertex -17.035324 -6.99174 -0.31357637
 endloop
endfacet
facet normal -3.9152055e-06 1 6.0039565e-05
 outer loop
  vertex -15.695604 -6.9931507 23.266367
  vertex -17.035324 -6.99174 -0.31357637
  vertex -17.035324 -6.993156 23.266367
 endloop
endfacet
facet normal 0 0 1
 outer loop
  vertex 15.695602 -0.7547158 20.692278
  vertex 15.695604 -2.7073994 20.692278
  vertex 17.035324 -2.7074053 20.692278
 endloop
endfacet
facet normal 0 0 1
 outer loop
  vertex 15.695602 -0.7547158 20.692278
  vertex 17.035324 -2.7074053 20.692278
  vertex 17.035324 1.78367 20.692278
 endloop
endfacet
facet normal 4.6269934e-06 1 2.6407377e-05
 outer loop
  vertex 17.035324 1.78367 20.692278
  vertex 17.035324 1.7842269 -0.39825946
  vertex 15.695602 1.7842331 -0.39825946
 endloop
endfacet
facet normal 4.6269956e-06 1 2.6407379e-05
 outer loop
  vertex 17.035324 1.78367 20.692278
  vertex 15.695602 1.7842331 -0.39825946
  vertex 15.6956 1.7836761 20.692278
 endloop
endfacet
facet normal 1 3.6103202e-07 -8.146563e-08
 outer loop
  vertex 15.695601 -9.515439 23.266367
  vertex 15.695603 -14.798485 23.266367
  vertex 15.695601 -14.79452 -0.12898907
 endloop
endfacet
facet normal 1 0 -0
 outer loop
  vertex 15.695601 -9.515439 23.266367
  vertex 15.695601 -14.79452 -0.12898907
  vertex 15.695601 -9.513202 -0.25392753
 endloop
endfacet
facet normal -1 0 0
 outer loop
  vertex 17.035324 -4.3501062 23.266367
  vertex 17.035324 -4.349552 -0.37608266
  vertex 17.035324 -6.991743 -0.31357637
 endloop
endfacet
facet normal -1 0 0
 outer loop
  vertex 17.035324 -4.3501062 23.266367
  vertex 17.035324 -6.991743 -0.31357637
  vertex 17.035324 -6.993159 23.266367
 endloop
endfacet
facet normal -1 0 -1.3565435e-07
 outer loop
  vertex 15.6956 1.7836761 20.692278
  vertex 15.695602 1.7842331 -0.39825946
  vertex 15.695602 0.49513268 -0.39825946
 endloop
endfacet
facet normal -1 -2.218914e-06 -8.799388e-11
 outer loop
  vertex 15.6956 1.7836761 20.692278
  vertex 15.695602 0.49513268 -0.39825946
  vertex 15.695602 0.4942963 20.692278
 endloop
endfacet
facet normal 1 0 0
 outer loop
  vertex -17.035326 -36.017525 0.37034142
  vertex -17.035326 -27.43495 0.1700303
  vertex -17.035326 -27.443035 23.266367
 endloop
endfacet
facet normal 1 -0 0
 outer loop
  vertex -17.035326 -36.017525 0.37034142
  vertex -17.035326 -27.443035 23.266367
  vertex -17.035326 -38.537933 23.266367
 endloop
endfacet
facet normal 1 0 -0
 outer loop
  vertex -17.035324 -4.350104 23.266367
  vertex -17.035324 -6.993156 23.266367
  vertex -17.035324 -6.99174 -0.31357637
 endloop
endfacet
facet normal 1 0 -0
 outer loop
  vertex -17.035324 -4.350104 23.266367
  vertex -17.035324 -6.99174 -0.31357637
  vertex -17.035324 -4.3495502 -0.37608266
 endloop
endfacet
facet normal -0.00033959973 -0.9999999 0
 outer loop
  vertex 15.695602 -0.7547158 20.692278
  vertex 12.375572 -0.7535883 20.702694
  vertex 12.375572 -0.7535883 -0.39825946
 endloop
endfacet
facet normal -7.181217e-08 -1 -5.3447806e-05
 outer loop
  vertex 15.695602 -0.7547158 20.692278
  vertex 12.375572 -0.7535883 -0.39825946
  vertex 15.695602 -0.75358856 -0.39825946
 endloop
endfacet
facet normal -2.874182e-09 -0.023651691 -0.9997203
 outer loop
  vertex -15.695604 -25.437061 0.12277424
  vertex -1.7438138e-06 -25.437063 0.12277424
  vertex -1.8946502e-06 -27.434952 0.1700409
 endloop
endfacet
facet normal -2.874182e-09 -0.023651691 -0.9997203
 outer loop
  vertex -15.695604 -25.437061 0.12277424
  vertex -1.8946502e-06 -27.434952 0.1700409
  vertex -15.695604 -27.43495 0.1700409
 endloop
endfacet
facet normal 0.0037230784 -0.023649648 -0.9997134
 outer loop
  vertex -21.051184 -2.3395483 -0.43858626
  vertex -17.035324 -6.99174 -0.31357637
  vertex -17.035324 -9.513205 -0.25392753
 endloop
endfacet
facet normal 0.003722685 -0.02364987 -0.99971336
 outer loop
  vertex -21.051184 -2.3395483 -0.43858626
  vertex -17.035324 -9.513205 -0.25392753
  vertex -17.035324 -14.79453 -0.12898907
 endloop
endfacet
facet normal -1.149599e-08 -0.023650171 -0.9997203
 outer loop
  vertex -9.4032407e-07 -14.794519 -0.12898907
  vertex -1.1173792e-06 -17.139685 -0.07350999
  vertex -15.695603 -17.139677 -0.07350999
 endloop
endfacet
facet normal -1.6188566e-09 -0.023650236 -0.9997203
 outer loop
  vertex -9.4032407e-07 -14.794519 -0.12898907
  vertex -15.695603 -17.139677 -0.07350999
  vertex -15.695603 -14.794518 -0.12898907
 endloop
endfacet
facet normal -1 0 0
 outer loop
  vertex -17.035324 1.7836728 20.692278
  vertex -17.035324 1.7842298 -0.39825946
  vertex -17.035324 -2.705987 -0.39825946
 endloop
endfacet
facet normal -1 0 0
 outer loop
  vertex -17.035324 1.7836728 20.692278
  vertex -17.035324 -2.705987 -0.39825946
  vertex -17.035324 -2.7074027 20.692278
 endloop
endfacet
facet normal -0 0 -1
 outer loop
  vertex -17.035326 -17.14442 23.266367
  vertex -15.695605 -17.14441 23.266367
  vertex -15.695604 -25.444498 23.266367
 endloop
endfacet
facet normal 0 0 -1
 outer loop
  vertex -17.035326 -17.14442 23.266367
  vertex -15.695604 -25.444498 23.266367
  vertex -17.035326 -25.444498 23.266367
 endloop
endfacet
facet normal 8.621761e-09 -0.023649538 -0.9997203
 outer loop
  vertex -1.1173792e-06 -17.139685 -0.07350999
  vertex 15.695601 -17.139679 -0.07350999
  vertex 15.6956005 -25.437065 0.12277424
 endloop
endfacet
facet normal -2.8739227e-09 -0.023649557 -0.9997203
 outer loop
  vertex -1.1173792e-06 -17.139685 -0.07350999
  vertex 15.6956005 -25.437065 0.12277424
  vertex -1.7438138e-06 -25.437063 0.12277424
 endloop
endfacet
facet normal 2.7722724e-09 -0.99999994 -0.00035006634
 outer loop
  vertex -17.035326 -27.443035 23.266367
  vertex -17.035326 -27.43495 0.1700303
  vertex -15.695604 -27.43495 0.1700409
 endloop
endfacet
facet normal 0 -0.99999994 -0.0003500665
 outer loop
  vertex -17.035326 -27.443035 23.266367
  vertex -15.695604 -27.43495 0.1700409
  vertex -15.695606 -27.443035 23.266367
 endloop
endfacet
facet normal 0 0 -1
 outer loop
  vertex 17.035322 -17.144424 23.266367
  vertex 17.035322 -25.444502 23.266367
  vertex 15.6956005 -25.444502 23.266367
 endloop
endfacet
facet normal 0 -0 -1
 outer loop
  vertex 17.035322 -17.144424 23.266367
  vertex 15.6956005 -25.444502 23.266367
  vertex 15.695603 -17.144411 23.266367
 endloop
endfacet
facet normal 1 -7.512632e-08 1.880542e-12
 outer loop
  vertex 21.051186 25.66488 3.9515815
  vertex 21.051184 0.27631593 3.494398
  vertex 21.051186 25.66487 3.494398
 endloop
endfacet
facet normal 0 -0 -1
 outer loop
  vertex 21.051184 0.27631593 3.494398
  vertex 12.848336 0.27631712 3.494398
  vertex 21.051186 25.66487 3.494398
 endloop
endfacet
facet normal 1 -3.446978e-07 -1.10762066e-10
 outer loop
  vertex 15.695603 -17.144411 23.266367
  vertex 15.6956005 -25.444502 23.266367
  vertex 15.6956005 -25.437065 0.12277424
 endloop
endfacet
facet normal 1 -1.1687047e-07 -8.174429e-08
 outer loop
  vertex 15.695603 -17.144411 23.266367
  vertex 15.6956005 -25.437065 0.12277424
  vertex 15.695601 -17.139679 -0.07350999
 endloop
endfacet
facet normal -1 -0 -0
 outer loop
  vertex 12.375572 -0.7535883 -0.39825946
  vertex 12.375572 -0.7535883 20.702694
  vertex 12.375572 0.49513292 20.681862
 endloop
endfacet
facet normal -1 -0 0
 outer loop
  vertex 12.375572 -0.7535883 -0.39825946
  vertex 12.375572 0.49513292 20.681862
  vertex 12.375572 0.49513292 -0.39825946
 endloop
endfacet
facet normal -5.6947647e-06 -0.99999994 -0.00020299395
 outer loop
  vertex 15.695601 -17.139679 -0.07350999
  vertex 17.035322 -17.139687 -0.07350999
  vertex 17.035322 -17.144424 23.266367
 endloop
endfacet
facet normal -9.965853e-06 -1 -0.00020274881
 outer loop
  vertex 15.695601 -17.139679 -0.07350999
  vertex 17.035322 -17.144424 23.266367
  vertex 15.695603 -17.144411 23.266367
 endloop
endfacet
facet normal -1 1.13004084e-07 -8.1697685e-08
 outer loop
  vertex -15.695605 -17.14441 23.266367
  vertex -15.695603 -17.139677 -0.07350999
  vertex -15.695604 -25.437061 0.12277424
 endloop
endfacet
facet normal -1 -1.1489929e-07 -3.6920696e-11
 outer loop
  vertex -15.695605 -17.14441 23.266367
  vertex -15.695604 -25.437061 0.12277424
  vertex -15.695604 -25.444498 23.266367
 endloop
endfacet
facet normal -1 0 0
 outer loop
  vertex -15.695603 -9.515437 23.266367
  vertex -15.695603 -9.5132 -0.25392753
  vertex -15.695603 -14.794518 -0.12898907
 endloop
endfacet
facet normal -1 3.6103202e-07 -8.146563e-08
 outer loop
  vertex -15.695603 -9.515437 23.266367
  vertex -15.695603 -14.794518 -0.12898907
  vertex -15.695605 -14.798483 23.266367
 endloop
endfacet
facet normal -0 -0 -1
 outer loop
  vertex 15.695603 -14.798485 23.266367
  vertex 15.695601 -9.515439 23.266367
  vertex 17.035324 -9.51544 23.266367
 endloop
endfacet
facet normal -0 0 -1
 outer loop
  vertex 15.695603 -14.798485 23.266367
  vertex 17.035324 -9.51544 23.266367
  vertex 17.035324 -14.798485 23.266367
 endloop
endfacet
facet normal -7.118446e-07 -1 -9.492023e-05
 outer loop
  vertex 17.035324 -9.513207 -0.25392753
  vertex 17.035324 -9.51544 23.266367
  vertex 15.695601 -9.515439 23.266367
 endloop
endfacet
facet normal -4.271047e-06 -1 -9.512296e-05
 outer loop
  vertex 17.035324 -9.513207 -0.25392753
  vertex 15.695601 -9.515439 23.266367
  vertex 15.695601 -9.513202 -0.25392753
 endloop
endfacet
facet normal -0.0031326748 0.016680313 0.999856
 outer loop
  vertex 15.695602 0.4942963 20.692278
  vertex 12.375572 0.49513292 20.681862
  vertex 12.375572 -0.7535883 20.702694
 endloop
endfacet
facet normal 0.0031373145 0 0.99999505
 outer loop
  vertex 15.695602 0.4942963 20.692278
  vertex 12.375572 -0.7535883 20.702694
  vertex 15.695602 -0.7547158 20.692278
 endloop
endfacet
facet normal 1 0 0
 outer loop
  vertex -12.375572 -0.7535864 -0.39825946
  vertex -12.375572 0.49513483 -0.39825946
  vertex -12.375572 0.49513483 20.681862
 endloop
endfacet
facet normal 1 0 0
 outer loop
  vertex -12.375572 -0.7535864 -0.39825946
  vertex -12.375572 0.49513483 20.681862
  vertex -12.375572 -0.7535864 20.702694
 endloop
endfacet
facet normal 0 0.24773188 -0.9688287
 outer loop
  vertex -21.051186 -38.537933 -0.27413327
  vertex -21.051186 -36.017525 0.37034142
  vertex -17.035326 -36.017525 0.37034142
 endloop
endfacet
facet normal 0 0.24773188 -0.9688287
 outer loop
  vertex -21.051186 -38.537933 -0.27413327
  vertex -17.035326 -36.017525 0.37034142
  vertex -17.035326 -38.537933 -0.27413327
 endloop
endfacet
facet normal 0 0 -1
 outer loop
  vertex -15.695606 -27.443035 23.266367
  vertex -15.695607 -38.537933 23.266367
  vertex -17.035326 -38.537933 23.266367
 endloop
endfacet
facet normal 0 0 -1
 outer loop
  vertex -15.695606 -27.443035 23.266367
  vertex -17.035326 -38.537933 23.266367
  vertex -17.035326 -27.443035 23.266367
 endloop
endfacet
facet normal 1 -1.13045786e-07 -8.262191e-08
 outer loop
  vertex 15.6956 -36.017525 0.37034142
  vertex 15.6956005 -27.434954 0.1700409
  vertex 15.695602 -27.443039 23.266367
 endloop
endfacet
facet normal 1 -8.595614e-08 -9.27669e-08
 outer loop
  vertex 15.6956 -36.017525 0.37034142
  vertex 15.695602 -27.443039 23.266367
  vertex 15.695601 -38.537933 23.266367
 endloop
endfacet
facet normal 0 0 -1
 outer loop
  vertex 12.848336 0.27631712 3.494398
  vertex -12.848336 0.27631807 3.494398
  vertex -21.051182 25.664873 3.494398
 endloop
endfacet
facet normal -0 -0 -1
 outer loop
  vertex 12.848336 0.27631712 3.494398
  vertex -21.051182 25.664873 3.494398
  vertex 21.051186 25.66487 3.494398
 endloop
endfacet
facet normal 1 0 -0
 outer loop
  vertex 17.035324 1.78367 20.692278
  vertex 17.035324 -2.7074053 20.692278
  vertex 17.035324 -2.7059896 -0.39825946
 endloop
endfacet
facet normal 1 0 -0
 outer loop
  vertex 17.035324 1.78367 20.692278
  vertex 17.035324 -2.7059896 -0.39825946
  vertex 17.035324 1.7842269 -0.39825946
 endloop
endfacet
facet normal -8.542147e-06 1 0.00016945347
 outer loop
  vertex -15.695605 -14.798483 23.266367
  vertex -15.695603 -14.794518 -0.12898907
  vertex -17.035324 -14.79453 -0.12898907
 endloop
endfacet
facet normal 0 1 0.00016896431
 outer loop
  vertex -15.695605 -14.798483 23.266367
  vertex -17.035324 -14.79453 -0.12898907
  vertex -17.035324 -14.798483 23.266367
 endloop
endfacet
facet normal 4.2710767e-06 -1 -6.712628e-05
 outer loop
  vertex -15.695604 -2.707397 20.692278
  vertex -17.035324 -2.7074027 20.692278
  vertex -17.035324 -2.705987 -0.39825946
 endloop
endfacet
facet normal -1.7796127e-07 -1 -6.684368e-05
 outer loop
  vertex -15.695604 -2.707397 20.692278
  vertex -17.035324 -2.705987 -0.39825946
  vertex -15.695602 -2.7059872 -0.39825946
 endloop
endfacet
facet normal -2.84738e-06 0.99999994 0.0003213309
 outer loop
  vertex -15.695604 -25.444498 23.266367
  vertex -15.695604 -25.437061 0.12277424
  vertex -17.035326 -25.437065 0.12277424
 endloop
endfacet
facet normal 0 0.99999994 0.0003211661
 outer loop
  vertex -15.695604 -25.444498 23.266367
  vertex -17.035326 -25.437065 0.12277424
  vertex -17.035326 -25.444498 23.266367
 endloop
endfacet
facet normal 4.7120825e-08 -0.011032555 -0.9999392
 outer loop
  vertex -15.695602 -4.3495445 -0.37608266
  vertex -17.035324 -4.3495502 -0.37608266
  vertex -17.022182 -2.3395488 -0.39825946
 endloop
endfacet
facet normal -7.033967e-10 -0.011032588 -0.9999391
 outer loop
  vertex -15.695602 -4.3495445 -0.37608266
  vertex -17.022182 -2.3395488 -0.39825946
  vertex -2.0640576 -2.3395498 -0.39825946
 endloop
endfacet
facet normal 8.542135e-06 1 0.00016945347
 outer loop
  vertex 17.035324 -14.794532 -0.12898907
  vertex 15.695601 -14.79452 -0.12898907
  vertex 15.695603 -14.798485 23.266367
 endloop
endfacet
facet normal 0 1 0.00016896431
 outer loop
  vertex 17.035324 -14.794532 -0.12898907
  vertex 15.695603 -14.798485 23.266367
  vertex 17.035324 -14.798485 23.266367
 endloop
endfacet
facet normal -1 -0 -0
 outer loop
  vertex -21.051184 -2.3395483 -0.43858626
  vertex -21.051184 -2.3395483 26.162476
  vertex -21.051184 0.27631927 3.494398
 endloop
endfacet
facet normal -1 -0 0
 outer loop
  vertex -21.051184 -2.3395483 -0.43858626
  vertex -21.051184 0.27631927 3.494398
  vertex -21.051184 0.2832632 -0.39825946
 endloop
endfacet
facet normal 0 0.24772806 -0.96882963
 outer loop
  vertex 15.6956 -36.017525 0.37034142
  vertex 15.695601 -38.537933 -0.2741227
  vertex -2.732902e-06 -38.537933 -0.2741227
 endloop
endfacet
facet normal 0 0.24772806 -0.96882963
 outer loop
  vertex 15.6956 -36.017525 0.37034142
  vertex -2.732902e-06 -38.537933 -0.2741227
  vertex -2.5426164e-06 -36.017525 0.37034142
 endloop
endfacet
facet normal -0.0037224295 -0.023650208 -0.99971336
 outer loop
  vertex 21.051184 -2.3395517 -0.43858626
  vertex 17.035324 -6.991743 -0.31357637
  vertex 17.035324 -4.349552 -0.37608266
 endloop
endfacet
facet normal -0.010008016 -0.011097431 -0.99988836
 outer loop
  vertex 21.051184 -2.3395517 -0.43858626
  vertex 17.035324 -4.349552 -0.37608266
  vertex 17.022182 -2.3395512 -0.39825946
 endloop
endfacet
facet normal 2.0435282e-08 -0.023649996 -0.99972034
 outer loop
  vertex -15.695603 -9.5132 -0.25392753
  vertex -3.512307e-07 -6.9917417 -0.31357637
  vertex -9.4032407e-07 -14.794519 -0.12898907
 endloop
endfacet
facet normal -1.4369921e-09 -0.023650061 -0.9997203
 outer loop
  vertex -15.695603 -9.5132 -0.25392753
  vertex -9.4032407e-07 -14.794519 -0.12898907
  vertex -15.695603 -14.794518 -0.12898907
 endloop
endfacet
facet normal -0.00081768306 -0.018562477 -0.9998273
 outer loop
  vertex -2.0640576 -2.3395498 -0.39825946
  vertex -3.512307e-07 -6.9917417 -0.31357637
  vertex -15.695603 -9.5132 -0.25392753
 endloop
endfacet
facet normal 0.0018606998 -0.02364982 -0.9997185
 outer loop
  vertex -2.0640576 -2.3395498 -0.39825946
  vertex -15.695603 -9.5132 -0.25392753
  vertex -15.695602 -6.9917407 -0.31357637
 endloop
endfacet
facet normal -1.3468278e-07 -0.023650277 -0.9997203
 outer loop
  vertex 17.035324 -14.794532 -0.12898907
  vertex 17.035322 -17.139687 -0.07350999
  vertex 15.695601 -17.139679 -0.07350999
 endloop
endfacet
facet normal -2.0388252e-07 -0.023650238 -0.9997203
 outer loop
  vertex 17.035324 -14.794532 -0.12898907
  vertex 15.695601 -17.139679 -0.07350999
  vertex 15.695601 -14.79452 -0.12898907
 endloop
endfacet
facet normal 1 0 -0
 outer loop
  vertex -17.035324 -9.515436 23.266367
  vertex -17.035324 -14.798483 23.266367
  vertex -17.035324 -14.79453 -0.12898907
 endloop
endfacet
facet normal 1 0 -0
 outer loop
  vertex -17.035324 -9.515436 23.266367
  vertex -17.035324 -14.79453 -0.12898907
  vertex -17.035324 -9.513205 -0.25392753
 endloop
endfacet
facet normal 1 -9.767832e-07 9.037093e-08
 outer loop
  vertex -15.695602 -0.7547134 20.692278
  vertex -15.695604 -2.707397 20.692278
  vertex -15.695602 -2.7059872 -0.39825946
 endloop
endfacet
facet normal 1 0 -0
 outer loop
  vertex -15.695602 -0.7547134 20.692278
  vertex -15.695602 -2.7059872 -0.39825946
  vertex -15.695602 -0.7535862 -0.39825946
 endloop
endfacet
facet normal 0.00025186446 0.9999999 3.965628e-05
 outer loop
  vertex 12.375572 0.49513292 20.681862
  vertex 15.695602 0.4942963 20.692278
  vertex 15.695602 0.49513268 -0.39825946
 endloop
endfacet
facet normal 7.1812174e-08 1 0
 outer loop
  vertex 12.375572 0.49513292 20.681862
  vertex 15.695602 0.49513268 -0.39825946
  vertex 12.375572 0.49513292 -0.39825946
 endloop
endfacet
facet normal -8.417519e-09 -0.023649862 -0.9997203
 outer loop
  vertex 15.695601 -9.513202 -0.25392753
  vertex 15.695602 -6.9917426 -0.31357637
  vertex 17.035324 -6.991743 -0.31357637
 endloop
endfacet
facet normal -1.014282e-07 -0.02364981 -0.9997203
 outer loop
  vertex 15.695601 -9.513202 -0.25392753
  vertex 17.035324 -6.991743 -0.31357637
  vertex 17.035324 -9.513207 -0.25392753
 endloop
endfacet
facet normal -0.0031373145 0 0.99999505
 outer loop
  vertex -15.695602 0.4942987 20.692278
  vertex -15.695602 -0.7547134 20.692278
  vertex -12.375572 -0.7535864 20.702694
 endloop
endfacet
facet normal 0.0031326776 0.016680313 0.999856
 outer loop
  vertex -15.695602 0.4942987 20.692278
  vertex -12.375572 -0.7535864 20.702694
  vertex -12.375572 0.49513483 20.681862
 endloop
endfacet
facet normal -1 2.8627785e-09 1.2101218e-07
 outer loop
  vertex -15.6956 -4.350098 23.266367
  vertex -15.695602 -4.3495445 -0.37608266
  vertex -15.695602 -6.9917407 -0.31357637
 endloop
endfacet
facet normal -1 1.8041154e-06 -8.078072e-08
 outer loop
  vertex -15.6956 -4.350098 23.266367
  vertex -15.695602 -6.9917407 -0.31357637
  vertex -15.695604 -6.9931507 23.266367
 endloop
endfacet
facet normal -1.4369921e-09 -0.023650061 -0.9997203
 outer loop
  vertex 15.695601 -9.513202 -0.25392753
  vertex 15.695601 -14.79452 -0.12898907
  vertex -9.4032407e-07 -14.794519 -0.12898907
 endloop
endfacet
facet normal -2.335461e-08 -0.023649998 -0.9997203
 outer loop
  vertex 15.695601 -9.513202 -0.25392753
  vertex -9.4032407e-07 -14.794519 -0.12898907
  vertex -3.512307e-07 -6.9917417 -0.31357637
 endloop
endfacet
facet normal 0 0 -1
 outer loop
  vertex -12.375572 0.49513483 -0.39825946
  vertex -12.375572 -0.7535864 -0.39825946
  vertex -15.695602 -0.7535862 -0.39825946
 endloop
endfacet
facet normal 0 0 -1
 outer loop
  vertex -12.375572 0.49513483 -0.39825946
  vertex -15.695602 -0.7535862 -0.39825946
  vertex -15.695602 0.49513507 -0.39825946
 endloop
endfacet
facet normal -0 0 -1
 outer loop
  vertex -17.035324 -4.350104 23.266367
  vertex -15.6956 -4.350098 23.266367
  vertex -15.695604 -6.9931507 23.266367
 endloop
endfacet
facet normal 0 0 -1
 outer loop
  vertex -17.035324 -4.350104 23.266367
  vertex -15.695604 -6.9931507 23.266367
  vertex -17.035324 -6.993156 23.266367
 endloop
endfacet
facet normal -0.010008629 5.0162933e-05 -0.99994993
 outer loop
  vertex 21.051184 -2.3395517 -0.43858626
  vertex 17.022182 -2.3395512 -0.39825946
  vertex 17.035328 0.28326035 -0.39825946
 endloop
endfacet
facet normal 1.825439e-09 0.015373592 -0.99988174
 outer loop
  vertex 21.051184 -2.3395517 -0.43858626
  vertex 17.035328 0.28326035 -0.39825946
  vertex 21.051184 0.28325987 -0.39825946
 endloop
endfacet
facet normal -1 7.6987654e-08 -1.0336649e-07
 outer loop
  vertex -21.051182 25.664885 3.9515815
  vertex -21.051184 0.27631927 3.494398
  vertex -21.051182 26.33319 4.449338
 endloop
endfacet
facet normal -1 -0 0
 outer loop
  vertex -21.051182 25.664885 3.9515815
  vertex -21.051182 26.33319 4.449338
  vertex -21.051182 26.33319 3.9515815
 endloop
endfacet
facet normal 0 -0 -1
 outer loop
  vertex 17.022182 -2.3395512 -0.39825946
  vertex 7.4737062 -1.5009887 -0.39825946
  vertex 12.848336 0.28326058 -0.39825946
 endloop
endfacet
facet normal -0 -0 -1
 outer loop
  vertex 17.022182 -2.3395512 -0.39825946
  vertex 12.848336 0.28326058 -0.39825946
  vertex 17.035328 0.28326035 -0.39825946
 endloop
endfacet
facet normal 0 0 -1
 outer loop
  vertex 17.035324 -4.3501062 23.266367
  vertex 17.035324 -6.993159 23.266367
  vertex 15.695604 -6.9931526 23.266367
 endloop
endfacet
facet normal 0 0 -1
 outer loop
  vertex 17.035324 -4.3501062 23.266367
  vertex 15.695604 -6.9931526 23.266367
  vertex 15.6956 -4.3501005 23.266367
 endloop
endfacet
facet normal -2.8352962e-09 -0.023331696 -0.9997278
 outer loop
  vertex -2.5426164e-06 -36.017525 0.37034142
  vertex -1.8946502e-06 -27.434952 0.1700409
  vertex 15.6956005 -27.434954 0.1700409
 endloop
endfacet
facet normal 0 -0.023331702 -0.9997278
 outer loop
  vertex -2.5426164e-06 -36.017525 0.37034142
  vertex 15.6956005 -27.434954 0.1700409
  vertex 15.6956 -36.017525 0.37034142
 endloop
endfacet
facet normal 0 0 -1
 outer loop
  vertex -17.035324 -9.515436 23.266367
  vertex -15.695603 -9.515437 23.266367
  vertex -15.695605 -14.798483 23.266367
 endloop
endfacet
facet normal 0 0 -1
 outer loop
  vertex -17.035324 -9.515436 23.266367
  vertex -15.695605 -14.798483 23.266367
  vertex -17.035324 -14.798483 23.266367
 endloop
endfacet
facet normal -6.734536e-08 -0.02365169 -0.9997203
 outer loop
  vertex 15.6956005 -27.434954 0.1700409
  vertex 15.6956005 -25.437065 0.12277424
  vertex 17.035322 -25.437069 0.12277424
 endloop
endfacet
facet normal -7.917096e-06 -0.02364643 -0.9997204
 outer loop
  vertex 15.6956005 -27.434954 0.1700409
  vertex 17.035322 -25.437069 0.12277424
  vertex 17.035322 -27.434954 0.1700303
 endloop
endfacet
facet normal 1.825439e-09 0.015373592 -0.99988174
 outer loop
  vertex -21.051184 -2.3395483 -0.43858626
  vertex -21.051184 0.2832632 -0.39825946
  vertex -17.035328 0.28326273 -0.39825946
 endloop
endfacet
facet normal 0.010008629 5.0162933e-05 -0.99994993
 outer loop
  vertex -21.051184 -2.3395483 -0.43858626
  vertex -17.035328 0.28326273 -0.39825946
  vertex -17.022182 -2.3395488 -0.39825946
 endloop
endfacet
facet normal -0 -0 -1
 outer loop
  vertex -17.022182 -2.3395488 -0.39825946
  vertex -17.035328 0.28326273 -0.39825946
  vertex -12.848336 0.2832625 -0.39825946
 endloop
endfacet
facet normal -0 0 -1
 outer loop
  vertex -17.022182 -2.3395488 -0.39825946
  vertex -12.848336 0.2832625 -0.39825946
  vertex -7.4737062 -1.5009878 -0.39825946
 endloop
endfacet
facet normal 0 -0 1
 outer loop
  vertex 15.695602 0.4942963 20.692278
  vertex 15.695602 -0.7547158 20.692278
  vertex 17.035324 1.78367 20.692278
 endloop
endfacet
facet normal 0 0 1
 outer loop
  vertex 15.695602 0.4942963 20.692278
  vertex 17.035324 1.78367 20.692278
  vertex 15.6956 1.7836761 20.692278
 endloop
endfacet
facet normal 7.917062e-06 -0.02364643 -0.9997204
 outer loop
  vertex -15.695604 -27.43495 0.1700409
  vertex -17.035326 -27.43495 0.1700303
  vertex -17.035326 -25.437065 0.12277424
 endloop
endfacet
facet normal 6.734536e-08 -0.02365169 -0.9997203
 outer loop
  vertex -15.695604 -27.43495 0.1700409
  vertex -17.035326 -25.437065 0.12277424
  vertex -15.695604 -25.437061 0.12277424
 endloop
endfacet
facet normal 1 -5.2691533e-08 -1.5112347e-14
 outer loop
  vertex 21.051184 -2.3395517 26.162476
  vertex 21.051182 -38.53794 26.162476
  vertex 21.051182 -38.537933 -0.43858626
 endloop
endfacet
facet normal 1 -5.2691544e-08 0
 outer loop
  vertex 21.051184 -2.3395517 26.162476
  vertex 21.051182 -38.537933 -0.43858626
  vertex 21.051184 -2.3395517 -0.43858626
 endloop
endfacet
facet normal 0 0.24772806 -0.96882963
 outer loop
  vertex -15.695605 -36.017525 0.37034142
  vertex -2.5426164e-06 -36.017525 0.37034142
  vertex -2.732902e-06 -38.537933 -0.2741227
 endloop
endfacet
facet normal 0 0.24772806 -0.96882963
 outer loop
  vertex -15.695605 -36.017525 0.37034142
  vertex -2.732902e-06 -38.537933 -0.2741227
  vertex -15.695607 -38.537933 -0.2741227
 endloop
endfacet
facet normal 0 0 -1
 outer loop
  vertex -21.051182 26.33319 3.9515815
  vertex 21.051186 26.333187 3.9515815
  vertex 21.051186 25.66488 3.9515815
 endloop
endfacet
facet normal 0 0 -1
 outer loop
  vertex -21.051182 26.33319 3.9515815
  vertex 21.051186 25.66488 3.9515815
  vertex -21.051182 25.664885 3.9515815
 endloop
endfacet
facet normal 0 0 -1
 outer loop
  vertex 15.695602 -0.75358856 -0.39825946
  vertex 12.375572 -0.7535883 -0.39825946
  vertex 12.375572 0.49513292 -0.39825946
 endloop
endfacet
facet normal -0 -0 -1
 outer loop
  vertex 15.695602 -0.75358856 -0.39825946
  vertex 12.375572 0.49513292 -0.39825946
  vertex 15.695602 0.49513268 -0.39825946
 endloop
endfacet
facet normal 0 0 -1
 outer loop
  vertex 7.4737062 -1.5009887 3.4943986
  vertex 2.0640576 -2.3395503 3.4943986
  vertex 0 -2.33955 3.4943986
 endloop
endfacet
facet normal -0 0 1
 outer loop
  vertex -15.695602 0.4942987 20.692278
  vertex -15.6956 1.783678 20.692278
  vertex -17.035324 1.7836728 20.692278
 endloop
endfacet
facet normal -0 -0 1
 outer loop
  vertex -15.695602 0.4942987 20.692278
  vertex -17.035324 1.7836728 20.692278
  vertex -15.695602 -0.7547134 20.692278
 endloop
endfacet
facet normal -0 -0 -1
 outer loop
  vertex -7.4737062 -1.5009878 3.4943986
  vertex -12.848336 0.2832625 3.4943986
  vertex 0 -2.33955 3.4943986
 endloop
endfacet
facet normal 0 0 -1
 outer loop
  vertex -7.4737062 -1.5009878 3.4943986
  vertex 0 -2.33955 3.4943986
  vertex -2.0640576 -2.3395498 3.4943986
 endloop
endfacet
facet normal 0 -0.023331692 -0.9997278
 outer loop
  vertex -2.5426164e-06 -36.017525 0.37034142
  vertex -15.695605 -36.017525 0.37034142
  vertex -15.695604 -27.43495 0.1700409
 endloop
endfacet
facet normal -2.8352962e-09 -0.023331696 -0.9997278
 outer loop
  vertex -2.5426164e-06 -36.017525 0.37034142
  vertex -15.695604 -27.43495 0.1700409
  vertex -1.8946502e-06 -27.434952 0.1700409
 endloop
endfacet
facet normal -2.5483402e-12 -6.866481e-05 1
 outer loop
  vertex -12.848336 0.2832625 3.4943986
  vertex -12.848336 0.27631807 3.494398
  vertex 12.848336 0.27631712 3.494398
 endloop
endfacet
facet normal -5.097381e-12 -6.867424e-05 1
 outer loop
  vertex -12.848336 0.2832625 3.4943986
  vertex 12.848336 0.27631712 3.494398
  vertex 12.848336 0.28326058 3.4943986
 endloop
endfacet
facet normal -1.6929795e-06 -1 -2.8680788e-07
 outer loop
  vertex 21.051182 -38.537933 -0.43858626
  vertex 21.051182 -38.53794 26.162476
  vertex 17.035322 -38.537933 23.266367
 endloop
endfacet
facet normal 0 -1 0
 outer loop
  vertex 21.051182 -38.537933 -0.43858626
  vertex 17.035322 -38.537933 23.266367
  vertex 17.035322 -38.537933 -0.27413327
 endloop
endfacet
facet normal 0 -1 -0
 outer loop
  vertex -21.051186 -38.537933 -0.43858626
  vertex -17.035326 -38.537933 -0.27413327
  vertex -17.035326 -38.537933 23.266367
 endloop
endfacet
facet normal 1.6929795e-06 -1 -2.8680788e-07
 outer loop
  vertex -21.051186 -38.537933 -0.43858626
  vertex -17.035326 -38.537933 23.266367
  vertex -21.051186 -38.53794 26.162476
 endloop
endfacet
facet normal -0 -1 -2.6343607e-06
 outer loop
  vertex 15.695601 -38.537933 23.266367
  vertex 17.035322 -38.537933 23.266367
  vertex 21.051182 -38.53794 26.162476
 endloop
endfacet
facet normal 0 -1 -2.6343607e-06
 outer loop
  vertex 21.051182 -38.53794 26.162476
  vertex -21.051186 -38.53794 26.162476
  vertex -17.035326 -38.537933 23.266367
 endloop
endfacet
facet normal -0 -1 -2.6343605e-06
 outer loop
  vertex -15.695607 -38.537933 23.266367
  vertex 15.695601 -38.537933 23.266367
  vertex 21.051182 -38.53794 26.162476
 endloop
endfacet
facet normal 0 -1 -2.6343641e-06
 outer loop
  vertex -15.695607 -38.537933 23.266367
  vertex 21.051182 -38.53794 26.162476
  vertex -17.035326 -38.537933 23.266367
 endloop
endfacet
facet normal 0 -1 0
 outer loop
  vertex 15.695601 -38.537933 23.266367
  vertex -15.695607 -38.537933 23.266367
  vertex -15.695607 -38.537933 -0.2741227
 endloop
endfacet
facet normal -0 -1 -0
 outer loop
  vertex -2.732902e-06 -38.537933 -0.2741227
  vertex 15.695601 -38.537933 -0.2741227
  vertex 15.695601 -38.537933 23.266367
 endloop
endfacet
facet normal -0 -1 0
 outer loop
  vertex -15.695607 -38.537933 -0.2741227
  vertex -2.732902e-06 -38.537933 -0.2741227
  vertex 15.695601 -38.537933 23.266367
 endloop
endfacet
facet normal 1.1873862e-07 1 0
 outer loop
  vertex -17.035328 0.28326273 -0.39825946
  vertex -21.051184 0.2832632 -0.39825946
  vertex -21.051184 0.2832632 3.4943986
 endloop
endfacet
facet normal 1.1873862e-07 1 0
 outer loop
  vertex -17.035328 0.28326273 -0.39825946
  vertex -21.051184 0.2832632 3.4943986
  vertex -17.035328 0.28326273 3.4943986
 endloop
endfacet
facet normal 1.1873862e-07 1 0
 outer loop
  vertex 21.051184 0.28325987 -0.39825946
  vertex 17.035328 0.28326035 -0.39825946
  vertex 17.035328 0.28326035 3.4943986
 endloop
endfacet
facet normal 1.1873862e-07 1 0
 outer loop
  vertex 21.051184 0.28325987 -0.39825946
  vertex 17.035328 0.28326035 3.4943986
  vertex 21.051184 0.28325987 3.4943986
 endloop
endfacet
endsolid 
