solid 
facet normal 0 0 1
 outer loop
  vertex 50 50 100
  vertex -50 50 100
  vertex -50 -50 100
 endloop
endfacet
facet normal 0 -0 1
 outer loop
  vertex 50 50 100
  vertex -50 -50 100
  vertex 50 -50 100
 endloop
endfacet
facet normal 0 -1 0
 outer loop
  vertex 50 -50 0
  vertex 50 -50 100
  vertex -50 -50 100
 endloop
endfacet
facet normal 0 -1 0
 outer loop
  vertex 50 -50 0
  vertex -50 -50 100
  vertex -50 -50 0
 endloop
endfacet
facet normal -1 -0 -0
 outer loop
  vertex -50 -50 0
  vertex -50 -50 100
  vertex -50 50 100
 endloop
endfacet
facet normal -1 -0 0
 outer loop
  vertex -50 -50 0
  vertex -50 50 100
  vertex -50 50 0
 endloop
endfacet
facet normal 0 0 -1
 outer loop
  vertex -50 50 0
  vertex 50 50 0
  vertex 50 -50 0
 endloop
endfacet
facet normal 0 0 -1
 outer loop
  vertex -50 50 0
  vertex 50 -50 0
  vertex -50 -50 0
 endloop
endfacet
facet normal 1 -0 0
 outer loop
  vertex 50 50 0
  vertex 50 50 100
  vertex 50 -50 100
 endloop
endfacet
facet normal 1 -0 0
 outer loop
  vertex 50 50 0
  vertex 50 -50 100
  vertex 50 -50 0
 endloop
endfacet
facet normal 0 1 0
 outer loop
  vertex -50 50 0
  vertex -50 50 100
  vertex 50 50 100
 endloop
endfacet
facet normal 0 1 -0
 outer loop
  vertex -50 50 0
  vertex 50 50 100
  vertex 50 50 0
 endloop
endfacet
facet normal 0 0 1
 outer loop
  vertex 40.955826 45.35097 34.77567
  vertex 6.180158 45.35097 34.77567
  vertex 6.180158 10.575303 34.77567
 endloop
endfacet
facet normal 0 -0 1
 outer loop
  vertex 40.955826 45.35097 34.77567
  vertex 6.180158 10.575303 34.77567
  vertex 40.955826 10.575303 34.77567
 endloop
endfacet
facet normal 0 -1 0
 outer loop
  vertex 40.955826 10.575303 0
  vertex 40.955826 10.575303 34.77567
  vertex 6.180158 10.575303 34.77567
 endloop
endfacet
facet normal 0 -1 0
 outer loop
  vertex 40.955826 10.575303 0
  vertex 6.180158 10.575303 34.77567
  vertex 6.180158 10.575303 0
 endloop
endfacet
facet normal -1 -0 -0
 outer loop
  vertex 6.180158 10.575303 0
  vertex 6.180158 10.575303 34.77567
  vertex 6.180158 45.35097 34.77567
 endloop
endfacet
facet normal -1 -0 0
 outer loop
  vertex 6.180158 10.575303 0
  vertex 6.180158 45.35097 34.77567
  vertex 6.180158 45.35097 0
 endloop
endfacet
facet normal 0 0 -1
 outer loop
  vertex 6.180158 45.35097 0
  vertex 40.955826 45.35097 0
  vertex 40.955826 10.575303 0
 endloop
endfacet
facet normal 0 0 -1
 outer loop
  vertex 6.180158 45.35097 0
  vertex 40.955826 10.575303 0
  vertex 6.180158 10.575303 0
 endloop
endfacet
facet normal 1 -0 0
 outer loop
  vertex 40.955826 45.35097 0
  vertex 40.955826 45.35097 34.77567
  vertex 40.955826 10.575303 34.77567
 endloop
endfacet
facet normal 1 -0 0
 outer loop
  vertex 40.955826 45.35097 0
  vertex 40.955826 10.575303 34.77567
  vertex 40.955826 10.575303 0
 endloop
endfacet
facet normal 0 1 0
 outer loop
  vertex 6.180158 45.35097 0
  vertex 6.180158 45.35097 34.77567
  vertex 40.955826 45.35097 34.77567
 endloop
endfacet
facet normal 0 1 -0
 outer loop
  vertex 6.180158 45.35097 0
  vertex 40.955826 45.35097 34.77567
  vertex 40.955826 45.35097 0
 endloop
endfacet
facet normal 0 0 1
 outer loop
  vertex -29.442587 -21.266579 16.401554
  vertex -42.237434 -21.266579 16.401554
  vertex -42.237434 -34.061424 16.401554
 endloop
endfacet
facet normal 0 -0 1
 outer loop
  vertex -29.442587 -21.266579 16.401554
  vertex -42.237434 -34.061424 16.401554
  vertex -29.442587 -34.061424 16.401554
 endloop
endfacet
facet normal 0 -1 0
 outer loop
  vertex -29.442587 -34.061424 3.6067054
  vertex -29.442587 -34.061424 16.401554
  vertex -42.237434 -34.061424 16.401554
 endloop
endfacet
facet normal 0 -1 0
 outer loop
  vertex -29.442587 -34.061424 3.6067054
  vertex -42.237434 -34.061424 16.401554
  vertex -42.237434 -34.061424 3.6067054
 endloop
endfacet
facet normal -1 -0 -0
 outer loop
  vertex -42.237434 -34.061424 3.6067054
  vertex -42.237434 -34.061424 16.401554
  vertex -42.237434 -21.266579 16.401554
 endloop
endfacet
facet normal -1 -0 0
 outer loop
  vertex -42.237434 -34.061424 3.6067054
  vertex -42.237434 -21.266579 16.401554
  vertex -42.237434 -21.266579 3.6067054
 endloop
endfacet
facet normal 0 0 -1
 outer loop
  vertex -42.237434 -21.266579 3.6067054
  vertex -29.442587 -21.266579 3.6067054
  vertex -29.442587 -34.061424 3.6067054
 endloop
endfacet
facet normal 0 0 -1
 outer loop
  vertex -42.237434 -21.266579 3.6067054
  vertex -29.442587 -34.061424 3.6067054
  vertex -42.237434 -34.061424 3.6067054
 endloop
endfacet
facet normal 1 -0 0
 outer loop
  vertex -29.442587 -21.266579 3.6067054
  vertex -29.442587 -21.266579 16.401554
  vertex -29.442587 -34.061424 16.401554
 endloop
endfacet
facet normal 1 -0 0
 outer loop
  vertex -29.442587 -21.266579 3.6067054
  vertex -29.442587 -34.061424 16.401554
  vertex -29.442587 -34.061424 3.6067054
 endloop
endfacet
facet normal 0 1 0
 outer loop
  vertex -42.237434 -21.266579 3.6067054
  vertex -42.237434 -21.266579 16.401554
  vertex -29.442587 -21.266579 16.401554
 endloop
endfacet
facet normal 0 1 -0
 outer loop
  vertex -42.237434 -21.266579 3.6067054
  vertex -29.442587 -21.266579 16.401554
  vertex -29.442587 -21.266579 3.6067054
 endloop
endfacet
facet normal 0 -0 1
 outer loop
  vertex 32.122414 -12.296215 90.209564
  vertex 6.7169905 -34.52193 90.209564
  vertex 15.141588 -44.15179 90.209564
 endloop
endfacet
facet normal 0 -0 1
 outer loop
  vertex 32.122414 -12.296215 90.209564
  vertex 15.141588 -44.15179 90.209564
  vertex 40.547012 -21.926075 90.209564
 endloop
endfacet
facet normal 0.658437 -0.7526359 0
 outer loop
  vertex 40.547012 -21.926075 77.41472
  vertex 40.547012 -21.926075 90.209564
  vertex 15.141588 -44.15179 90.209564
 endloop
endfacet
facet normal 0.658437 -0.7526359 0
 outer loop
  vertex 40.547012 -21.926075 77.41472
  vertex 15.141588 -44.15179 90.209564
  vertex 15.141588 -44.15179 77.41472
 endloop
endfacet
facet normal -0.7526359 -0.6584369 -0
 outer loop
  vertex 15.141588 -44.15179 77.41472
  vertex 15.141588 -44.15179 90.209564
  vertex 6.7169905 -34.52193 90.209564
 endloop
endfacet
facet normal -0.7526359 -0.6584369 0
 outer loop
  vertex 15.141588 -44.15179 77.41472
  vertex 6.7169905 -34.52193 90.209564
  vertex 6.7169905 -34.52193 77.41472
 endloop
endfacet
facet normal -0 0 -1
 outer loop
  vertex 6.7169905 -34.52193 77.41472
  vertex 32.122414 -12.296215 77.41472
  vertex 40.547012 -21.926075 77.41472
 endloop
endfacet
facet normal -0 0 -1
 outer loop
  vertex 6.7169905 -34.52193 77.41472
  vertex 40.547012 -21.926075 77.41472
  vertex 15.141588 -44.15179 77.41472
 endloop
endfacet
facet normal 0.7526359 0.65843695 0
 outer loop
  vertex 32.122414 -12.296215 77.41472
  vertex 32.122414 -12.296215 90.209564
  vertex 40.547012 -21.926075 90.209564
 endloop
endfacet
facet normal 0.7526359 0.65843695 -0
 outer loop
  vertex 32.122414 -12.296215 77.41472
  vertex 40.547012 -21.926075 90.209564
  vertex 40.547012 -21.926075 77.41472
 endloop
endfacet
facet normal -0.658437 0.75263584 0
 outer loop
  vertex 6.7169905 -34.52193 77.41472
  vertex 6.7169905 -34.52193 90.209564
  vertex 32.122414 -12.296215 90.209564
 endloop
endfacet
facet normal -0.658437 0.75263584 0
 outer loop
  vertex 6.7169905 -34.52193 77.41472
  vertex 32.122414 -12.296215 90.209564
  vertex 32.122414 -12.296215 77.41472
 endloop
endfacet
endsolid 
