solid 
facet normal 2.2163249e-07 1 0
 outer loop
  vertex 7.4884036e-07 12.645785 22.167536
  vertex 7.4884036e-07 12.645785 26
  vertex 8.605908 12.645783 19.423199
 endloop
endfacet
facet normal 2.3239758e-07 1 3.3758052e-08
 outer loop
  vertex 7.4884036e-07 12.645785 22.167536
  vertex 8.605908 12.645783 19.423199
  vertex 9.5 12.645783 13.268083
 endloop
endfacet
facet normal 8.4923414e-08 1 4.1220704e-07
 outer loop
  vertex -1.4815367e-10 0 1.9572011
  vertex 9.499996 -8.067721e-07 1.9572011
  vertex 9.499996 0 0
 endloop
endfacet
facet normal 0 1 -0
 outer loop
  vertex -1.4815367e-10 0 1.9572011
  vertex 9.499996 0 0
  vertex -1.4815367e-10 0 0
 endloop
endfacet
facet normal 1 4.8984365e-08 2.9785179e-15
 outer loop
  vertex 9.499996 0 0
  vertex 9.499996 -8.067721e-07 13.268083
  vertex 9.499997 -19.468952 13.268083
 endloop
endfacet
facet normal 1 4.898438e-08 1.4083464e-14
 outer loop
  vertex 9.499996 0 0
  vertex 9.499997 -19.468952 13.268083
  vertex 9.499997 -19.468948 0
 endloop
endfacet
facet normal -1 -0 -0
 outer loop
  vertex 9.499996 -8.067721e-07 1.9572011
  vertex 9.499996 -8.067721e-07 13.268083
  vertex 9.499996 0 0
 endloop
endfacet
facet normal -0 1 0
 outer loop
  vertex 9.5 14.937253 1.9572011
  vertex 8.7939793e-07 14.937253 1.9572011
  vertex 8.7939793e-07 14.937253 3.4283042
 endloop
endfacet
facet normal 0 1 0
 outer loop
  vertex 9.5 14.937253 1.9572011
  vertex 8.7939793e-07 14.937253 3.4283042
  vertex 9.5 14.937253 3.4283042
 endloop
endfacet
facet normal 0 0 -1
 outer loop
  vertex -1.4815367e-10 0 0
  vertex 9.499996 0 0
  vertex 9.499997 -19.468948 0
 endloop
endfacet
facet normal 0 0 -1
 outer loop
  vertex -1.4815367e-10 0 0
  vertex 9.499997 -19.468948 0
  vertex -1.1339381e-06 -19.468948 0
 endloop
endfacet
facet normal 0.6836633 -3.9813685e-08 0.72979754
 outer loop
  vertex 9.499996 -8.067721e-07 13.268083
  vertex -1.4815367e-10 0 22.167536
  vertex -1.1339381e-06 -19.468948 22.167536
 endloop
endfacet
facet normal 0.68366325 3.0104154e-08 0.7297976
 outer loop
  vertex 9.499996 -8.067721e-07 13.268083
  vertex -1.1339381e-06 -19.468948 22.167536
  vertex 9.499997 -19.468952 13.268083
 endloop
endfacet
facet normal -6.708815e-07 -1 -2.875093e-07
 outer loop
  vertex 9.499997 -19.468948 0
  vertex 9.499997 -19.468952 13.268083
  vertex -1.1339381e-06 -19.468948 22.167536
 endloop
endfacet
facet normal 0 -1 0
 outer loop
  vertex 9.499997 -19.468948 0
  vertex -1.1339381e-06 -19.468948 22.167536
  vertex -1.1339381e-06 -19.468948 0
 endloop
endfacet
facet normal -1.0545265e-07 -1 -1.5318008e-08
 outer loop
  vertex 9.499996 -8.067721e-07 13.268083
  vertex 8.6059065 -8.067721e-07 19.423199
  vertex -1.4815367e-10 0 26
 endloop
endfacet
facet normal -8.4923414e-08 -1 0
 outer loop
  vertex 9.499996 -8.067721e-07 13.268083
  vertex -1.4815367e-10 0 26
  vertex -1.4815367e-10 0 22.167536
 endloop
endfacet
facet normal 0.60720617 -3.5963794e-08 0.79454434
 outer loop
  vertex 8.605908 12.645783 19.423199
  vertex 7.4884036e-07 12.645785 26
  vertex -1.4815367e-10 0 26
 endloop
endfacet
facet normal 0.6072062 -8.355204e-08 0.7945443
 outer loop
  vertex 8.605908 12.645783 19.423199
  vertex -1.4815367e-10 0 26
  vertex 8.6059065 -8.067721e-07 19.423199
 endloop
endfacet
facet normal 1 -2.5538145e-07 0
 outer loop
  vertex 9.499996 -8.067721e-07 1.9572011
  vertex 9.5 14.937253 1.9572011
  vertex 9.5 14.937253 3.4283042
 endloop
endfacet
facet normal 1 -3.0165762e-07 -7.024947e-08
 outer loop
  vertex 9.5 14.937253 3.4283042
  vertex 9.5 12.645783 13.268083
  vertex 9.499996 -8.067721e-07 13.268083
 endloop
endfacet
facet normal 1 -2.5538142e-07 0
 outer loop
  vertex 9.5 14.937253 3.4283042
  vertex 9.499996 -8.067721e-07 13.268083
  vertex 9.499996 -8.067721e-07 1.9572011
 endloop
endfacet
facet normal 0 0 -1
 outer loop
  vertex 8.7939793e-07 14.937253 1.9572011
  vertex 9.5 14.937253 1.9572011
  vertex 9.499996 -8.067721e-07 1.9572011
 endloop
endfacet
facet normal 0 0 -1
 outer loop
  vertex 8.7939793e-07 14.937253 1.9572011
  vertex 9.499996 -8.067721e-07 1.9572011
  vertex -1.4815367e-10 0 1.9572011
 endloop
endfacet
facet normal 0.9896139 -1.4926228e-07 0.14375122
 outer loop
  vertex 9.5 12.645783 13.268083
  vertex 8.605908 12.645783 19.423199
  vertex 8.6059065 -8.067721e-07 19.423199
 endloop
endfacet
facet normal 0.98961395 -2.9706396e-07 0.14375092
 outer loop
  vertex 9.5 12.645783 13.268083
  vertex 8.6059065 -8.067721e-07 19.423199
  vertex 9.499996 -8.067721e-07 13.268083
 endloop
endfacet
facet normal 0.6534764 2.7153823e-07 0.75694686
 outer loop
  vertex 9.5 12.645783 13.268083
  vertex 9.499997 19.531042 13.268083
  vertex 5.4760337 18.539864 16.741993
 endloop
endfacet
facet normal 0.68320554 0.03658615 0.7293091
 outer loop
  vertex 9.5 12.645783 13.268083
  vertex 5.4760337 18.539864 16.741993
  vertex 7.4884036e-07 12.645785 22.167536
 endloop
endfacet
facet normal -0 0.6772587 0.73574495
 outer loop
  vertex 5.4760337 18.539864 16.741993
  vertex 1.092413e-06 18.539864 16.741993
  vertex 7.4884036e-07 12.645785 22.167536
 endloop
endfacet
facet normal -0 0.9616239 0.27437118
 outer loop
  vertex 9.499997 19.531042 13.268083
  vertex 1.1473848e-06 19.531042 13.268083
  vertex 1.092413e-06 18.539864 16.741993
 endloop
endfacet
facet normal 0 0.9616239 0.27437118
 outer loop
  vertex 9.499997 19.531042 13.268083
  vertex 1.092413e-06 18.539864 16.741993
  vertex 5.4760337 18.539864 16.741993
 endloop
endfacet
facet normal 0 1 -1.938406e-07
 outer loop
  vertex 1.1473848e-06 19.531042 13.268083
  vertex 9.499997 19.531042 13.268083
  vertex 9.5 19.53104 3.4283042
 endloop
endfacet
facet normal 0 1 -1.938406e-07
 outer loop
  vertex 1.1473848e-06 19.531042 13.268083
  vertex 9.5 19.53104 3.4283042
  vertex 1.1473848e-06 19.53104 3.4283042
 endloop
endfacet
facet normal 0 -0 -1
 outer loop
  vertex 9.5 14.937253 3.4283042
  vertex 8.7939793e-07 14.937253 3.4283042
  vertex 1.1473848e-06 19.53104 3.4283042
 endloop
endfacet
facet normal -0 -0 -1
 outer loop
  vertex 9.5 14.937253 3.4283042
  vertex 1.1473848e-06 19.53104 3.4283042
  vertex 9.5 19.53104 3.4283042
 endloop
endfacet
facet normal 1 0 2.9076088e-07
 outer loop
  vertex 9.5 14.937253 3.4283042
  vertex 9.5 19.53104 3.4283042
  vertex 9.499997 19.531042 13.268083
 endloop
endfacet
facet normal 1 4.1552877e-07 9.6767586e-08
 outer loop
  vertex 9.5 14.937253 3.4283042
  vertex 9.499997 19.531042 13.268083
  vertex 9.5 12.645783 13.268083
 endloop
endfacet
facet normal 1.16198756e-07 1 -1.6878968e-08
 outer loop
  vertex 7.4884036e-07 12.645785 22.167536
  vertex -9.499996 12.645786 13.268083
  vertex -8.605907 12.645786 19.423199
 endloop
endfacet
facet normal 1.1081623e-07 1 0
 outer loop
  vertex 7.4884036e-07 12.645785 22.167536
  vertex -8.605907 12.645786 19.423199
  vertex 7.4884036e-07 12.645785 26
 endloop
endfacet
facet normal 1.6984683e-07 1 -0
 outer loop
  vertex -1.4815367e-10 0 1.9572011
  vertex -1.4815367e-10 0 0
  vertex -9.499996 1.6135442e-06 0
 endloop
endfacet
facet normal 8.4923414e-08 1 4.1220704e-07
 outer loop
  vertex -1.4815367e-10 0 1.9572011
  vertex -9.499996 1.6135442e-06 0
  vertex -9.499996 8.067721e-07 1.9572011
 endloop
endfacet
facet normal -1 1.4695313e-07 0
 outer loop
  vertex -9.499996 1.6135442e-06 0
  vertex -9.499999 -19.468948 0
  vertex -9.499999 -19.468948 13.268083
 endloop
endfacet
facet normal -1 1.4695313e-07 0
 outer loop
  vertex -9.499996 1.6135442e-06 0
  vertex -9.499999 -19.468948 13.268083
  vertex -9.499996 1.6135442e-06 13.268083
 endloop
endfacet
facet normal 1 0 0
 outer loop
  vertex -9.499996 8.067721e-07 1.9572011
  vertex -9.499996 1.6135442e-06 0
  vertex -9.499996 1.6135442e-06 13.268083
 endloop
endfacet
facet normal 2.007736e-07 1 0
 outer loop
  vertex -9.499996 14.937255 1.9572011
  vertex -9.499996 14.937255 3.4283042
  vertex 8.7939793e-07 14.937253 3.4283042
 endloop
endfacet
facet normal 2.007736e-07 1 -0
 outer loop
  vertex -9.499996 14.937255 1.9572011
  vertex 8.7939793e-07 14.937253 3.4283042
  vertex 8.7939793e-07 14.937253 1.9572011
 endloop
endfacet
facet normal 0 0 -1
 outer loop
  vertex -1.4815367e-10 0 0
  vertex -1.1339381e-06 -19.468948 0
  vertex -9.499999 -19.468948 0
 endloop
endfacet
facet normal 0 -0 -1
 outer loop
  vertex -1.4815367e-10 0 0
  vertex -9.499999 -19.468948 0
  vertex -9.499996 1.6135442e-06 0
 endloop
endfacet
facet normal -0.68366325 1.00466444e-07 0.72979754
 outer loop
  vertex -9.499996 1.6135442e-06 13.268083
  vertex -9.499999 -19.468948 13.268083
  vertex -1.1339381e-06 -19.468948 22.167536
 endloop
endfacet
facet normal -0.68366337 3.981369e-08 0.7297975
 outer loop
  vertex -9.499996 1.6135442e-06 13.268083
  vertex -1.1339381e-06 -19.468948 22.167536
  vertex -1.4815367e-10 0 22.167536
 endloop
endfacet
facet normal -0 -1 -0
 outer loop
  vertex -9.499999 -19.468948 0
  vertex -1.1339381e-06 -19.468948 0
  vertex -1.1339381e-06 -19.468948 22.167536
 endloop
endfacet
facet normal 0 -1 -0
 outer loop
  vertex -9.499999 -19.468948 0
  vertex -1.1339381e-06 -19.468948 22.167536
  vertex -9.499999 -19.468948 13.268083
 endloop
endfacet
facet normal -1.6984683e-07 -1 -0
 outer loop
  vertex -9.499996 1.6135442e-06 13.268083
  vertex -1.4815367e-10 0 22.167536
  vertex -1.4815367e-10 0 26
 endloop
endfacet
facet normal 7.2245263e-09 -1 -1.3212285e-07
 outer loop
  vertex -9.499996 1.6135442e-06 13.268083
  vertex -1.4815367e-10 0 26
  vertex -8.605907 8.067721e-07 19.423199
 endloop
endfacet
facet normal -0.60720617 0 0.79454434
 outer loop
  vertex -8.605907 12.645786 19.423199
  vertex -8.605907 8.067721e-07 19.423199
  vertex -1.4815367e-10 0 26
 endloop
endfacet
facet normal -0.6072061 3.596379e-08 0.79454434
 outer loop
  vertex -8.605907 12.645786 19.423199
  vertex -1.4815367e-10 0 26
  vertex 7.4884036e-07 12.645785 26
 endloop
endfacet
facet normal -1 0 0
 outer loop
  vertex -9.499996 14.937255 3.4283042
  vertex -9.499996 14.937255 1.9572011
  vertex -9.499996 8.067721e-07 1.9572011
 endloop
endfacet
facet normal -1 -0 0
 outer loop
  vertex -9.499996 8.067721e-07 1.9572011
  vertex -9.499996 1.6135442e-06 13.268083
  vertex -9.499996 12.645786 13.268083
 endloop
endfacet
facet normal -1 -0 0
 outer loop
  vertex -9.499996 8.067721e-07 1.9572011
  vertex -9.499996 12.645786 13.268083
  vertex -9.499996 14.937255 3.4283042
 endloop
endfacet
facet normal 0 0 -1
 outer loop
  vertex 8.7939793e-07 14.937253 1.9572011
  vertex -1.4815367e-10 0 1.9572011
  vertex -9.499996 8.067721e-07 1.9572011
 endloop
endfacet
facet normal 0 0 -1
 outer loop
  vertex 8.7939793e-07 14.937253 1.9572011
  vertex -9.499996 8.067721e-07 1.9572011
  vertex -9.499996 14.937255 1.9572011
 endloop
endfacet
facet normal -0.98961395 0 0.14375077
 outer loop
  vertex -9.499996 12.645786 13.268083
  vertex -9.499996 1.6135442e-06 13.268083
  vertex -8.605907 8.067721e-07 19.423199
 endloop
endfacet
facet normal -0.98961395 0 0.14375079
 outer loop
  vertex -9.499996 12.645786 13.268083
  vertex -8.605907 8.067721e-07 19.423199
  vertex -8.605907 12.645786 19.423199
 endloop
endfacet
facet normal -0.6832056 0.036586042 0.72930896
 outer loop
  vertex -9.499996 12.645786 13.268083
  vertex 7.4884036e-07 12.645785 22.167536
  vertex -5.476032 18.539864 16.741993
 endloop
endfacet
facet normal -0.6534764 0 0.7569469
 outer loop
  vertex -9.499996 12.645786 13.268083
  vertex -5.476032 18.539864 16.741993
  vertex -9.499996 19.531048 13.268083
 endloop
endfacet
facet normal 0 0.6772587 0.73574495
 outer loop
  vertex -5.476032 18.539864 16.741993
  vertex 7.4884036e-07 12.645785 22.167536
  vertex 1.092413e-06 18.539864 16.741993
 endloop
endfacet
facet normal 0 0.96162343 0.27437264
 outer loop
  vertex -9.499996 19.531048 13.268083
  vertex -5.476032 18.539864 16.741993
  vertex 1.092413e-06 18.539864 16.741993
 endloop
endfacet
facet normal 5.83556e-07 0.9616239 0.27437118
 outer loop
  vertex -9.499996 19.531048 13.268083
  vertex 1.092413e-06 18.539864 16.741993
  vertex 1.1473848e-06 19.531042 13.268083
 endloop
endfacet
facet normal 2.007736e-07 1 -1.9384059e-07
 outer loop
  vertex 1.1473848e-06 19.531042 13.268083
  vertex 1.1473848e-06 19.53104 3.4283042
  vertex -9.499996 19.531042 3.4283042
 endloop
endfacet
facet normal 6.0232077e-07 1 -5.815218e-07
 outer loop
  vertex 1.1473848e-06 19.531042 13.268083
  vertex -9.499996 19.531042 3.4283042
  vertex -9.499996 19.531048 13.268083
 endloop
endfacet
facet normal -0 -0 -1
 outer loop
  vertex -9.499996 14.937255 3.4283042
  vertex -9.499996 19.531042 3.4283042
  vertex 1.1473848e-06 19.53104 3.4283042
 endloop
endfacet
facet normal -0 0 -1
 outer loop
  vertex -9.499996 14.937255 3.4283042
  vertex 1.1473848e-06 19.53104 3.4283042
  vertex 8.7939793e-07 14.937253 3.4283042
 endloop
endfacet
facet normal -1 -0 -0
 outer loop
  vertex -9.499996 14.937255 3.4283042
  vertex -9.499996 12.645786 13.268083
  vertex -9.499996 19.531048 13.268083
 endloop
endfacet
facet normal -1 -0 0
 outer loop
  vertex -9.499996 14.937255 3.4283042
  vertex -9.499996 19.531048 13.268083
  vertex -9.499996 19.531042 3.4283042
 endloop
endfacet
endsolid 
