solid 
facet normal -0.3562563 -0.9343883 0
 outer loop
  vertex 5.051423 -0.42624637 7.98667
  vertex 4.822807 -0.33908135 7.98667
  vertex 4.822807 -0.33908135 0.015245
 endloop
endfacet
facet normal -0.3562589 -0.93438727 8.595282e-08
 outer loop
  vertex 5.051423 -0.42624637 7.98667
  vertex 4.822807 -0.33908135 0.015245
  vertex 5.051421 -0.42624637 0.015245
 endloop
endfacet
facet normal -0.9119202 0.4103676 0
 outer loop
  vertex -4.594193 1.1279083 1.486522
  vertex -4.594193 1.1279083 7.98667
  vertex -4.499496 1.3383443 7.98667
 endloop
endfacet
facet normal -0.9119218 0.41036418 1.3379334e-07
 outer loop
  vertex -4.594193 1.1279083 1.486522
  vertex -4.499496 1.3383443 7.98667
  vertex -4.499497 1.3383443 1.486522
 endloop
endfacet
facet normal 0.35625947 -0.9343871 -1.04537776e-07
 outer loop
  vertex 4.822807 1.6359437 7.98667
  vertex 4.594193 1.5487787 7.98667
  vertex 4.594191 1.5487787 1.486522
 endloop
endfacet
facet normal 0.35625687 -0.9343881 0
 outer loop
  vertex 4.822807 1.6359437 7.98667
  vertex 4.594191 1.5487787 1.486522
  vertex 4.822807 1.6359437 1.486522
 endloop
endfacet
facet normal -0.9119241 -0.41035882 -0
 outer loop
  vertex -4.499497 -0.63668066 0.015245
  vertex -4.499497 -0.63668066 7.98667
  vertex -4.594191 -0.42624563 7.98667
 endloop
endfacet
facet normal -0.9119241 -0.41035882 0
 outer loop
  vertex -4.499497 -0.63668066 0.015245
  vertex -4.594191 -0.42624563 7.98667
  vertex -4.594191 -0.42624563 0.015245
 endloop
endfacet
facet normal -0.35625947 0.9343871 0
 outer loop
  vertex -4.822807 1.0407434 7.98667
  vertex -4.594193 1.1279083 7.98667
  vertex -4.594193 1.1279083 1.486522
 endloop
endfacet
facet normal -0.35625947 0.9343871 0
 outer loop
  vertex -4.822807 1.0407434 7.98667
  vertex -4.594193 1.1279083 1.486522
  vertex -4.822807 1.0407434 1.486522
 endloop
endfacet
facet normal 0.35625625 -0.93438834 0
 outer loop
  vertex -4.822807 1.6359444 7.98667
  vertex -5.051423 1.5487794 7.98667
  vertex -5.051423 1.5487794 1.486522
 endloop
endfacet
facet normal 0.35625625 -0.93438834 0
 outer loop
  vertex -4.822807 1.6359444 7.98667
  vertex -5.051423 1.5487794 1.486522
  vertex -4.822807 1.6359444 1.486522
 endloop
endfacet
facet normal -0.91192484 0.41035727 2.181992e-07
 outer loop
  vertex -4.594193 -0.84711665 0.015245
  vertex -4.594191 -0.84711665 7.98667
  vertex -4.499497 -0.63668066 7.98667
 endloop
endfacet
facet normal -0.9119218 0.41036415 0
 outer loop
  vertex -4.594193 -0.84711665 0.015245
  vertex -4.499497 -0.63668066 7.98667
  vertex -4.499497 -0.63668066 0.015245
 endloop
endfacet
facet normal 0.91191953 -0.41036916 0
 outer loop
  vertex 4.594193 1.5487787 7.98667
  vertex 4.499496 1.3383436 7.98667
  vertex 4.499496 1.3383436 1.486522
 endloop
endfacet
facet normal 0.9119226 -0.41036227 -2.6822582e-07
 outer loop
  vertex 4.594193 1.5487787 7.98667
  vertex 4.499496 1.3383436 1.486522
  vertex 4.594191 1.5487787 1.486522
 endloop
endfacet
facet normal 0.9119242 -0.41035885 0
 outer loop
  vertex -5.051423 1.5487794 1.486522
  vertex -5.051423 1.5487794 7.98667
  vertex -5.146117 1.3383443 7.98667
 endloop
endfacet
facet normal 0.9119242 -0.41035885 0
 outer loop
  vertex -5.051423 1.5487794 1.486522
  vertex -5.146117 1.3383443 7.98667
  vertex -5.146117 1.3383443 1.486522
 endloop
endfacet
facet normal 0.9119226 -0.41036224 0
 outer loop
  vertex 4.594191 -0.42624635 7.98667
  vertex 4.499496 -0.6366814 7.98667
  vertex 4.499496 -0.6366814 0.015245
 endloop
endfacet
facet normal 0.9119226 -0.41036224 0
 outer loop
  vertex 4.594191 -0.42624635 7.98667
  vertex 4.499496 -0.6366814 0.015245
  vertex 4.594191 -0.42624635 0.015245
 endloop
endfacet
facet normal -0.3562562 0.93438834 0
 outer loop
  vertex 4.822807 -0.93428236 0.015245
  vertex 4.822807 -0.93428236 7.98667
  vertex 5.051423 -0.84711736 7.98667
 endloop
endfacet
facet normal -0.3562562 0.93438834 0
 outer loop
  vertex 4.822807 -0.93428236 0.015245
  vertex 5.051423 -0.84711736 7.98667
  vertex 5.051423 -0.84711736 0.015245
 endloop
endfacet
facet normal -0.35625684 -0.9343881 -0
 outer loop
  vertex -4.594191 -0.42624563 0.015245
  vertex -4.594191 -0.42624563 7.98667
  vertex -4.822807 -0.33908063 7.98667
 endloop
endfacet
facet normal -0.35625684 -0.9343881 0
 outer loop
  vertex -4.594191 -0.42624563 0.015245
  vertex -4.822807 -0.33908063 7.98667
  vertex -4.822807 -0.33908063 0.015245
 endloop
endfacet
facet normal 0.35625607 -0.93438834 0
 outer loop
  vertex -4.822807 -0.33908063 0.015245
  vertex -4.822807 -0.33908063 7.98667
  vertex -5.051423 -0.4262456 7.98667
 endloop
endfacet
facet normal 0.3562587 -0.9343873 8.524317e-08
 outer loop
  vertex -4.822807 -0.33908063 0.015245
  vertex -5.051423 -0.4262456 7.98667
  vertex -5.051421 -0.4262456 0.015245
 endloop
endfacet
facet normal -0.3562588 -0.9343873 0
 outer loop
  vertex 5.051421 1.5487787 7.98667
  vertex 4.822807 1.6359437 7.98667
  vertex 4.822807 1.6359437 1.486522
 endloop
endfacet
facet normal -0.3562588 -0.9343873 0
 outer loop
  vertex 5.051421 1.5487787 7.98667
  vertex 4.822807 1.6359437 1.486522
  vertex 5.051421 1.5487787 1.486522
 endloop
endfacet
facet normal 0.35625878 0.9343873 0
 outer loop
  vertex -5.051421 -0.84711665 0.015245
  vertex -5.051421 -0.84711665 7.98667
  vertex -4.822807 -0.93428165 7.98667
 endloop
endfacet
facet normal 0.35625878 0.9343873 -0
 outer loop
  vertex -5.051421 -0.84711665 0.015245
  vertex -4.822807 -0.93428165 7.98667
  vertex -4.822807 -0.93428165 0.015245
 endloop
endfacet
facet normal 0.9119218 0.41036418 0
 outer loop
  vertex -5.146117 1.3383443 1.486522
  vertex -5.146117 1.3383443 7.98667
  vertex -5.051421 1.1279083 7.98667
 endloop
endfacet
facet normal 0.9119218 0.41036418 -0
 outer loop
  vertex -5.146117 1.3383443 1.486522
  vertex -5.051421 1.1279083 7.98667
  vertex -5.051421 1.1279083 1.486522
 endloop
endfacet
facet normal 0.35625684 -0.9343881 0
 outer loop
  vertex 4.822807 -0.33908135 7.98667
  vertex 4.594191 -0.42624635 7.98667
  vertex 4.594191 -0.42624635 0.015245
 endloop
endfacet
facet normal 0.35625684 -0.9343881 0
 outer loop
  vertex 4.822807 -0.33908135 7.98667
  vertex 4.594191 -0.42624635 0.015245
  vertex 4.822807 -0.33908135 0.015245
 endloop
endfacet
facet normal -0.3562588 0.9343873 0
 outer loop
  vertex 4.822807 1.0407426 7.98667
  vertex 5.051421 1.1279076 7.98667
  vertex 5.051421 1.1279076 1.486522
 endloop
endfacet
facet normal -0.3562588 0.9343873 0
 outer loop
  vertex 4.822807 1.0407426 7.98667
  vertex 5.051421 1.1279076 1.486522
  vertex 4.822807 1.0407426 1.486522
 endloop
endfacet
facet normal 0.9119202 0.41036758 -2.1819808e-07
 outer loop
  vertex 4.499496 -0.6366814 7.98667
  vertex 4.594193 -0.84711736 7.98667
  vertex 4.594191 -0.84711736 0.015245
 endloop
endfacet
facet normal 0.9119233 0.4103607 0
 outer loop
  vertex 4.499496 -0.6366814 7.98667
  vertex 4.594191 -0.84711736 0.015245
  vertex 4.499496 -0.6366814 0.015245
 endloop
endfacet
facet normal -0.35625684 0.9343881 0
 outer loop
  vertex -4.822807 -0.93428165 0.015245
  vertex -4.822807 -0.93428165 7.98667
  vertex -4.594191 -0.84711665 7.98667
 endloop
endfacet
facet normal -0.35625947 0.9343871 8.524336e-08
 outer loop
  vertex -4.822807 -0.93428165 0.015245
  vertex -4.594191 -0.84711665 7.98667
  vertex -4.594193 -0.84711665 0.015245
 endloop
endfacet
facet normal -0 0 1
 outer loop
  vertex 5.051421 -0.42624637 0.015245
  vertex 4.594191 -0.42624635 0.015245
  vertex 4.594191 -0.84711736 0.015245
 endloop
endfacet
facet normal 0 -0 1
 outer loop
  vertex 5.051421 -0.42624637 0.015245
  vertex 4.594191 -0.84711736 0.015245
  vertex 5.051423 -0.84711736 0.015245
 endloop
endfacet
facet normal 0 0 -1
 outer loop
  vertex -4.822807 -0.33908063 7.98667
  vertex -4.594191 -0.42624563 7.98667
  vertex -4.499497 -0.63668066 7.98667
 endloop
endfacet
facet normal 0 0 -1
 outer loop
  vertex -4.499497 -0.63668066 7.98667
  vertex -4.594191 -0.84711665 7.98667
  vertex -4.822807 -0.93428165 7.98667
 endloop
endfacet
facet normal 0 0 -1
 outer loop
  vertex -4.822807 -0.93428165 7.98667
  vertex -5.051421 -0.84711665 7.98667
  vertex -5.146117 -0.6366806 7.98667
 endloop
endfacet
facet normal 0 0 -1
 outer loop
  vertex -5.146117 -0.6366806 7.98667
  vertex -5.051423 -0.4262456 7.98667
  vertex -4.822807 -0.33908063 7.98667
 endloop
endfacet
facet normal 0 0 -1
 outer loop
  vertex -4.822807 1.6359444 7.98667
  vertex -4.499496 1.3383443 7.98667
  vertex -4.822807 1.0407434 7.98667
 endloop
endfacet
facet normal 0 0 -1
 outer loop
  vertex -4.822807 1.6359444 7.98667
  vertex -4.822807 1.0407434 7.98667
  vertex -5.146117 1.3383443 7.98667
 endloop
endfacet
facet normal 0.35625947 0.9343871 -0
 outer loop
  vertex 4.594193 -0.84711736 7.98667
  vertex 4.822807 -0.93428236 7.98667
  vertex 4.822807 -0.93428236 0.015245
 endloop
endfacet
facet normal 0.35625684 0.9343881 -8.595236e-08
 outer loop
  vertex 4.594193 -0.84711736 7.98667
  vertex 4.822807 -0.93428236 0.015245
  vertex 4.594191 -0.84711736 0.015245
 endloop
endfacet
facet normal -0 0 1
 outer loop
  vertex -4.594191 -0.42624563 0.015245
  vertex -4.822807 -0.33908063 0.015245
  vertex -5.051421 -0.4262456 0.015245
 endloop
endfacet
facet normal 0 -0 1
 outer loop
  vertex -5.051421 -0.4262456 0.015245
  vertex -5.146118 -0.6366806 0.015245
  vertex -5.051421 -0.84711665 0.015245
 endloop
endfacet
facet normal 0 0 1
 outer loop
  vertex -5.051421 -0.84711665 0.015245
  vertex -4.822807 -0.93428165 0.015245
  vertex -4.594193 -0.84711665 0.015245
 endloop
endfacet
facet normal 0 0 1
 outer loop
  vertex -4.594193 -0.84711665 0.015245
  vertex -4.499497 -0.63668066 0.015245
  vertex -4.594191 -0.42624563 0.015245
 endloop
endfacet
facet normal 0 -0 1
 outer loop
  vertex 5.051421 1.5487787 1.486522
  vertex 4.594191 1.5487787 1.486522
  vertex 4.594193 1.1279076 1.486522
 endloop
endfacet
facet normal 0 -0 1
 outer loop
  vertex 5.051421 1.5487787 1.486522
  vertex 4.594193 1.1279076 1.486522
  vertex 5.051421 1.1279076 1.486522
 endloop
endfacet
facet normal -0.35625687 -0.9343881 -0
 outer loop
  vertex -4.594191 1.5487794 1.486522
  vertex -4.594191 1.5487794 7.98667
  vertex -4.822807 1.6359444 7.98667
 endloop
endfacet
facet normal -0.35625687 -0.9343881 0
 outer loop
  vertex -4.594191 1.5487794 1.486522
  vertex -4.822807 1.6359444 7.98667
  vertex -4.822807 1.6359444 1.486522
 endloop
endfacet
facet normal 0.9119218 0.41036403 -1.0909923e-07
 outer loop
  vertex -5.146118 -0.6366806 0.015245
  vertex -5.146117 -0.6366806 7.98667
  vertex -5.051421 -0.84711665 7.98667
 endloop
endfacet
facet normal 0.91192025 0.4103675 -0
 outer loop
  vertex -5.146118 -0.6366806 0.015245
  vertex -5.051421 -0.84711665 7.98667
  vertex -5.051421 -0.84711665 0.015245
 endloop
endfacet
facet normal -0.9119211 -0.4103657 0
 outer loop
  vertex 5.146117 1.3383436 7.98667
  vertex 5.051421 1.5487787 7.98667
  vertex 5.051421 1.5487787 1.486522
 endloop
endfacet
facet normal -0.91191953 -0.41036916 -1.3411247e-07
 outer loop
  vertex 5.146117 1.3383436 7.98667
  vertex 5.051421 1.5487787 1.486522
  vertex 5.146118 1.3383436 1.486522
 endloop
endfacet
facet normal 0.3562588 0.9343873 0
 outer loop
  vertex -5.051421 1.1279083 1.486522
  vertex -5.051421 1.1279083 7.98667
  vertex -4.822807 1.0407434 7.98667
 endloop
endfacet
facet normal 0.3562588 0.9343873 -0
 outer loop
  vertex -5.051421 1.1279083 1.486522
  vertex -4.822807 1.0407434 7.98667
  vertex -4.822807 1.0407434 1.486522
 endloop
endfacet
facet normal 0 0 -1
 outer loop
  vertex -4.822807 1.6359444 7.98667
  vertex -4.594191 1.5487794 7.98667
  vertex -4.499496 1.3383443 7.98667
 endloop
endfacet
facet normal 0 0 -1
 outer loop
  vertex -4.499496 1.3383443 7.98667
  vertex -4.594193 1.1279083 7.98667
  vertex -4.822807 1.0407434 7.98667
 endloop
endfacet
facet normal 0 0 -1
 outer loop
  vertex -4.822807 1.0407434 7.98667
  vertex -5.051421 1.1279083 7.98667
  vertex -5.146117 1.3383443 7.98667
 endloop
endfacet
facet normal 0 0 -1
 outer loop
  vertex -5.146117 1.3383443 7.98667
  vertex -5.051423 1.5487794 7.98667
  vertex -4.822807 1.6359444 7.98667
 endloop
endfacet
facet normal 0 0 -1
 outer loop
  vertex 4.822807 1.6359437 7.98667
  vertex 5.146117 1.3383436 7.98667
  vertex 4.822807 1.0407426 7.98667
 endloop
endfacet
facet normal 0 0 -1
 outer loop
  vertex 4.822807 1.6359437 7.98667
  vertex 4.822807 1.0407426 7.98667
  vertex 4.499496 1.3383436 7.98667
 endloop
endfacet
facet normal -0 0 1
 outer loop
  vertex -4.594191 1.5487794 1.486522
  vertex -4.822807 1.6359444 1.486522
  vertex -5.051423 1.5487794 1.486522
 endloop
endfacet
facet normal 0 -0 1
 outer loop
  vertex -5.051423 1.5487794 1.486522
  vertex -5.146117 1.3383443 1.486522
  vertex -5.051421 1.1279083 1.486522
 endloop
endfacet
facet normal 0 0 1
 outer loop
  vertex -5.051421 1.1279083 1.486522
  vertex -4.822807 1.0407434 1.486522
  vertex -4.594193 1.1279083 1.486522
 endloop
endfacet
facet normal 0 0 1
 outer loop
  vertex -4.594193 1.1279083 1.486522
  vertex -4.499497 1.3383443 1.486522
  vertex -4.594191 1.5487794 1.486522
 endloop
endfacet
facet normal 0.9119241 -0.41035885 2.1819903e-07
 outer loop
  vertex -5.051421 -0.4262456 0.015245
  vertex -5.051423 -0.4262456 7.98667
  vertex -5.146117 -0.6366806 7.98667
 endloop
endfacet
facet normal 0.91191953 -0.4103692 -1.0909896e-07
 outer loop
  vertex -5.051421 -0.4262456 0.015245
  vertex -5.146117 -0.6366806 7.98667
  vertex -5.146118 -0.6366806 0.015245
 endloop
endfacet
facet normal 0.9119202 0.4103676 -0
 outer loop
  vertex 4.499496 1.3383436 7.98667
  vertex 4.594193 1.1279076 7.98667
  vertex 4.594193 1.1279076 1.486522
 endloop
endfacet
facet normal 0.9119202 0.4103676 0
 outer loop
  vertex 4.499496 1.3383436 7.98667
  vertex 4.594193 1.1279076 1.486522
  vertex 4.499496 1.3383436 1.486522
 endloop
endfacet
facet normal -0.9119241 -0.41035876 2.1819903e-07
 outer loop
  vertex 5.146117 -0.63668144 7.98667
  vertex 5.051423 -0.42624637 7.98667
  vertex 5.051421 -0.42624637 0.015245
 endloop
endfacet
facet normal -0.91191953 -0.4103691 -1.09359455e-07
 outer loop
  vertex 5.146117 -0.63668144 7.98667
  vertex 5.051421 -0.42624637 0.015245
  vertex 5.146118 -0.63668144 0.015245
 endloop
endfacet
facet normal 0 -0 1
 outer loop
  vertex -5.051421 -0.4262456 0.015245
  vertex -5.051421 -0.84711665 0.015245
  vertex -4.594193 -0.84711665 0.015245
 endloop
endfacet
facet normal 0 0 1
 outer loop
  vertex -5.051421 -0.4262456 0.015245
  vertex -4.594193 -0.84711665 0.015245
  vertex -4.594191 -0.42624563 0.015245
 endloop
endfacet
facet normal 0 0 -1
 outer loop
  vertex 4.499496 -0.6366814 7.98667
  vertex 4.594191 -0.42624635 7.98667
  vertex 4.822807 -0.33908135 7.98667
 endloop
endfacet
facet normal 0 0 -1
 outer loop
  vertex 4.822807 -0.33908135 7.98667
  vertex 5.051423 -0.42624637 7.98667
  vertex 5.146117 -0.63668144 7.98667
 endloop
endfacet
facet normal 0 0 -1
 outer loop
  vertex 5.146117 -0.63668144 7.98667
  vertex 5.051423 -0.84711736 7.98667
  vertex 4.822807 -0.93428236 7.98667
 endloop
endfacet
facet normal 0 0 -1
 outer loop
  vertex 4.822807 -0.93428236 7.98667
  vertex 4.594193 -0.84711736 7.98667
  vertex 4.499496 -0.6366814 7.98667
 endloop
endfacet
facet normal -0.9119218 0.41036418 -1.3379334e-07
 outer loop
  vertex 5.051421 1.1279076 7.98667
  vertex 5.146117 1.3383436 7.98667
  vertex 5.146118 1.3383436 1.486522
 endloop
endfacet
facet normal -0.9119202 0.4103676 0
 outer loop
  vertex 5.051421 1.1279076 7.98667
  vertex 5.146118 1.3383436 1.486522
  vertex 5.051421 1.1279076 1.486522
 endloop
endfacet
facet normal -0 0 1
 outer loop
  vertex 5.051421 -0.42624637 0.015245
  vertex 4.822807 -0.33908135 0.015245
  vertex 4.594191 -0.42624635 0.015245
 endloop
endfacet
facet normal 0 -0 1
 outer loop
  vertex 4.594191 -0.42624635 0.015245
  vertex 4.499496 -0.6366814 0.015245
  vertex 4.594191 -0.84711736 0.015245
 endloop
endfacet
facet normal 0 0 1
 outer loop
  vertex 4.594191 -0.84711736 0.015245
  vertex 4.822807 -0.93428236 0.015245
  vertex 5.051423 -0.84711736 0.015245
 endloop
endfacet
facet normal 0 0 1
 outer loop
  vertex 5.051423 -0.84711736 0.015245
  vertex 5.146118 -0.63668144 0.015245
  vertex 5.051421 -0.42624637 0.015245
 endloop
endfacet
facet normal 0 0 1
 outer loop
  vertex -5.051423 1.5487794 1.486522
  vertex -5.051421 1.1279083 1.486522
  vertex -4.594193 1.1279083 1.486522
 endloop
endfacet
facet normal 0 0 1
 outer loop
  vertex -5.051423 1.5487794 1.486522
  vertex -4.594193 1.1279083 1.486522
  vertex -4.594191 1.5487794 1.486522
 endloop
endfacet
facet normal -0.9119226 -0.41036227 1.3379345e-07
 outer loop
  vertex -4.499497 1.3383443 1.486522
  vertex -4.499496 1.3383443 7.98667
  vertex -4.594191 1.5487794 7.98667
 endloop
endfacet
facet normal -0.9119242 -0.41035885 0
 outer loop
  vertex -4.499497 1.3383443 1.486522
  vertex -4.594191 1.5487794 7.98667
  vertex -4.594191 1.5487794 1.486522
 endloop
endfacet
facet normal 0 0 -1
 outer loop
  vertex 4.499496 1.3383436 7.98667
  vertex 4.594193 1.5487787 7.98667
  vertex 4.822807 1.6359437 7.98667
 endloop
endfacet
facet normal 0 0 -1
 outer loop
  vertex 4.822807 1.6359437 7.98667
  vertex 5.051421 1.5487787 7.98667
  vertex 5.146117 1.3383436 7.98667
 endloop
endfacet
facet normal 0 0 -1
 outer loop
  vertex 5.146117 1.3383436 7.98667
  vertex 5.051421 1.1279076 7.98667
  vertex 4.822807 1.0407426 7.98667
 endloop
endfacet
facet normal 0 0 -1
 outer loop
  vertex 4.822807 1.0407426 7.98667
  vertex 4.594193 1.1279076 7.98667
  vertex 4.499496 1.3383436 7.98667
 endloop
endfacet
facet normal -0.91192484 0.4103574 -1.09099595e-07
 outer loop
  vertex 5.051423 -0.84711736 7.98667
  vertex 5.146117 -0.63668144 7.98667
  vertex 5.146118 -0.63668144 0.015245
 endloop
endfacet
facet normal -0.9119232 0.41036078 0
 outer loop
  vertex 5.051423 -0.84711736 7.98667
  vertex 5.146118 -0.63668144 0.015245
  vertex 5.051423 -0.84711736 0.015245
 endloop
endfacet
facet normal -0 0 1
 outer loop
  vertex 5.051421 1.5487787 1.486522
  vertex 4.822807 1.6359437 1.486522
  vertex 4.594191 1.5487787 1.486522
 endloop
endfacet
facet normal 0 -0 1
 outer loop
  vertex 4.594191 1.5487787 1.486522
  vertex 4.499496 1.3383436 1.486522
  vertex 4.594193 1.1279076 1.486522
 endloop
endfacet
facet normal 0 0 1
 outer loop
  vertex 4.594193 1.1279076 1.486522
  vertex 4.822807 1.0407426 1.486522
  vertex 5.051421 1.1279076 1.486522
 endloop
endfacet
facet normal 0 0 1
 outer loop
  vertex 5.051421 1.1279076 1.486522
  vertex 5.146118 1.3383436 1.486522
  vertex 5.051421 1.5487787 1.486522
 endloop
endfacet
facet normal 0.35625947 0.9343871 0
 outer loop
  vertex 4.594193 1.1279076 1.486522
  vertex 4.594193 1.1279076 7.98667
  vertex 4.822807 1.0407426 7.98667
 endloop
endfacet
facet normal 0.35625947 0.9343871 -0
 outer loop
  vertex 4.594193 1.1279076 1.486522
  vertex 4.822807 1.0407426 7.98667
  vertex 4.822807 1.0407426 1.486522
 endloop
endfacet
facet normal 0 0 -1
 outer loop
  vertex -4.822807 -0.33908063 7.98667
  vertex -4.499497 -0.63668066 7.98667
  vertex -4.822807 -0.93428165 7.98667
 endloop
endfacet
facet normal 0 0 -1
 outer loop
  vertex -4.822807 -0.33908063 7.98667
  vertex -4.822807 -0.93428165 7.98667
  vertex -5.146117 -0.6366806 7.98667
 endloop
endfacet
facet normal 0 0 -1
 outer loop
  vertex 4.822807 -0.33908135 7.98667
  vertex 5.146117 -0.63668144 7.98667
  vertex 4.822807 -0.93428236 7.98667
 endloop
endfacet
facet normal 0 0 -1
 outer loop
  vertex 4.822807 -0.33908135 7.98667
  vertex 4.822807 -0.93428236 7.98667
  vertex 4.499496 -0.6366814 7.98667
 endloop
endfacet
facet normal 3.029783e-07 1 -5.1990014e-08
 outer loop
  vertex -7.6962023 9.511485 14.697334
  vertex -4.897177 9.511484 12.665588
  vertex -8.495804 9.511485 10.037557
 endloop
endfacet
facet normal 2.7694284e-07 -3.619696e-07 -1
 outer loop
  vertex -8.30017e-07 -10.993908 11.209873
  vertex -6.8871574 -10.993908 11.209871
  vertex -0.88721955 -6.403357 11.209871
 endloop
endfacet
facet normal -1.8705705e-07 -4.5164714e-07 -1
 outer loop
  vertex -8.30017e-07 -10.993908 11.209873
  vertex -0.88721955 -6.403357 11.209871
  vertex -0.014888966 -6.764647 11.209871
 endloop
endfacet
facet normal 0 3.7357907e-07 -1
 outer loop
  vertex 1.2187325 -4.297405 11.209871
  vertex -1.2485101 -4.297405 11.209871
  vertex -6.8871574 0.8082042 11.209873
 endloop
endfacet
facet normal -1.384714e-07 1.5373578e-07 -1
 outer loop
  vertex 1.2187325 -4.297405 11.209871
  vertex -6.8871574 0.8082042 11.209873
  vertex 6.8871574 0.8082037 11.209871
 endloop
endfacet
facet normal 0 -1 0
 outer loop
  vertex 4.897177 -12.683222 12.665588
  vertex -9.575566e-07 -12.683222 16.77692
  vertex -4.897179 -12.683222 12.665588
 endloop
endfacet
facet normal -1.08770564e-07 -1 3.25006e-08
 outer loop
  vertex 7.696203 0.8082044 14.697334
  vertex 4.897178 0.80820465 12.665588
  vertex 8.495804 0.8082042 10.037557
 endloop
endfacet
facet normal 3.0297838e-07 1 5.1989904e-08
 outer loop
  vertex 7.696204 9.511483 14.697334
  vertex 8.495804 9.511483 10.037557
  vertex 4.897179 9.511484 12.665588
 endloop
endfacet
facet normal -7.574458e-08 -1 1.299749e-08
 outer loop
  vertex -4.897178 0.80820537 12.665588
  vertex -7.696203 0.8082056 14.697334
  vertex -8.495804 0.8082056 10.037557
 endloop
endfacet
facet normal -0 -0 -1
 outer loop
  vertex -8.495804 -12.68322 10.037557
  vertex -8.495804 -10.993907 10.037557
  vertex -8.3001703e-07 -10.993908 10.037557
 endloop
endfacet
facet normal -0 0 -1
 outer loop
  vertex -8.495804 -12.68322 10.037557
  vertex -8.3001703e-07 -10.993908 10.037557
  vertex -9.575566e-07 -12.683222 10.037557
 endloop
endfacet
facet normal 0 0 -1
 outer loop
  vertex 6.8871574 0.8082037 11.209871
  vertex 6.8871574 -10.993909 11.209871
  vertex 0.85744166 -6.403357 11.209871
 endloop
endfacet
facet normal 0 -0 -1
 outer loop
  vertex 6.8871574 0.8082037 11.209871
  vertex 0.85744166 -6.403357 11.209871
  vertex 1.2187325 -5.531124 11.209871
 endloop
endfacet
facet normal -7.0157675e-08 -1 -1.490485e-05
 outer loop
  vertex 8.495821 1.6723994 7.986671
  vertex 1.2625907e-07 1.672352 11.209873
  vertex -8.495821 1.6724006 7.986671
 endloop
endfacet
facet normal 1.1225239e-07 1 1.5403236e-07
 outer loop
  vertex 6.8871574 -10.993909 11.209871
  vertex 8.495804 -10.993909 10.037557
  vertex -8.3001703e-07 -10.993908 10.037557
 endloop
endfacet
facet normal 1.3847138e-07 1 -6.714216e-21
 outer loop
  vertex 6.8871574 -10.993909 11.209871
  vertex -8.3001703e-07 -10.993908 10.037557
  vertex -8.30017e-07 -10.993908 11.209873
 endloop
endfacet
facet normal -1.2518328e-07 1 -1.928207e-06
 outer loop
  vertex 4.6867094 -0.8964653 8.9449415
  vertex 8.495822 -0.8964648 8.9449415
  vertex 8.495821 -0.8964667 7.986671
 endloop
endfacet
facet normal 7.717336e-08 1 -1.1238421e-06
 outer loop
  vertex 4.6867094 -0.8964653 8.9449415
  vertex 8.495821 -0.8964667 7.986671
  vertex -8.495821 -0.89646536 7.986671
 endloop
endfacet
facet normal 0 0 -1
 outer loop
  vertex -1.2485101 -5.531124 11.209871
  vertex -0.88721955 -6.403357 11.209871
  vertex -6.8871574 -10.993908 11.209871
 endloop
endfacet
facet normal -1.5657031e-07 1.6161077e-07 -1
 outer loop
  vertex -1.2485101 -5.531124 11.209871
  vertex -6.8871574 -10.993908 11.209871
  vertex -6.8871574 0.8082042 11.209873
 endloop
endfacet
facet normal 0.59041345 0 0.80710095
 outer loop
  vertex 6.8871574 -10.993909 11.209871
  vertex 6.8871574 0.8082037 11.209871
  vertex 4.897178 0.80820465 12.665588
 endloop
endfacet
facet normal 0.5904134 -4.1734808e-08 0.80710113
 outer loop
  vertex 6.8871574 -10.993909 11.209871
  vertex 4.897178 0.80820465 12.665588
  vertex 4.897177 -12.683222 12.665588
 endloop
endfacet
facet normal -0 0.9675016 0.25286502
 outer loop
  vertex 8.495804 14.342663 10.037557
  vertex -8.495804 14.342663 10.037557
  vertex -4.897177 13.655804 12.665588
 endloop
endfacet
facet normal 0 0.9675016 0.25286502
 outer loop
  vertex 8.495804 14.342663 10.037557
  vertex -4.897177 13.655804 12.665588
  vertex 4.897179 13.655804 12.665588
 endloop
endfacet
facet normal 5.046783e-07 1 -2.052607e-06
 outer loop
  vertex -8.495821 -0.89646536 7.986671
  vertex -8.495822 -0.8964634 8.9449415
  vertex -4.7164865 -0.8964653 8.9449415
 endloop
endfacet
facet normal 0 1 -6.220023e-08
 outer loop
  vertex -8.495821 -0.89646536 7.986671
  vertex -4.7164865 -0.8964653 8.9449415
  vertex 4.6867094 -0.8964653 8.9449415
 endloop
endfacet
facet normal -0.5435454 4.1036536e-08 0.8393797
 outer loop
  vertex 6.101778e-08 0.808205 19.681057
  vertex 7.2261855e-07 9.571373 19.681057
  vertex -7.6962023 9.511485 14.697334
 endloop
endfacet
facet normal -0.5435454 5.9559767e-08 0.8393798
 outer loop
  vertex 6.101778e-08 0.808205 19.681057
  vertex -7.6962023 9.511485 14.697334
  vertex -7.696203 0.8082056 14.697334
 endloop
endfacet
facet normal 0.58895737 0 -0.8081641
 outer loop
  vertex -8.495804 1.6723995 10.037557
  vertex -6.8871574 1.6723995 11.209873
  vertex -6.8871574 0.8082042 11.209873
 endloop
endfacet
facet normal 0.5889573 0 -0.80816406
 outer loop
  vertex -8.495804 1.6723995 10.037557
  vertex -6.8871574 0.8082042 11.209873
  vertex -8.495804 0.8082056 10.037557
 endloop
endfacet
facet normal 1.8272696e-07 1 2.1765368e-07
 outer loop
  vertex 7.696204 9.511483 14.697334
  vertex 4.897179 9.511484 12.665588
  vertex 7.180971e-07 9.511484 16.77692
 endloop
endfacet
facet normal -0.0055708373 0.99977195 -0.020617204
 outer loop
  vertex 7.696204 9.511483 14.697334
  vertex 7.180971e-07 9.511484 16.77692
  vertex 7.2261855e-07 9.571373 19.681057
 endloop
endfacet
facet normal -0.5897629 0 0.8075764
 outer loop
  vertex -8.495804 9.511485 10.037557
  vertex -4.897177 9.511484 12.665588
  vertex -4.897177 13.655804 12.665588
 endloop
endfacet
facet normal -0.58976287 0 0.8075765
 outer loop
  vertex -8.495804 9.511485 10.037557
  vertex -4.897177 13.655804 12.665588
  vertex -8.495804 14.342663 10.037557
 endloop
endfacet
facet normal -0.5889567 -1.306081e-07 0.80816454
 outer loop
  vertex -8.495804 -10.993907 10.037557
  vertex -6.8871574 -10.993908 11.209871
  vertex -6.8871574 0.8082042 11.209873
 endloop
endfacet
facet normal -0.5889574 0 0.8081641
 outer loop
  vertex -8.495804 -10.993907 10.037557
  vertex -6.8871574 0.8082042 11.209873
  vertex -8.495804 0.8082056 10.037557
 endloop
endfacet
facet normal -0.9855947 0 0.1691246
 outer loop
  vertex -7.6962023 9.511485 14.697334
  vertex -8.495804 9.511485 10.037557
  vertex -8.495804 0.8082056 10.037557
 endloop
endfacet
facet normal -0.9855947 1.10089005e-07 0.1691244
 outer loop
  vertex -7.6962023 9.511485 14.697334
  vertex -8.495804 0.8082056 10.037557
  vertex -7.696203 0.8082056 14.697334
 endloop
endfacet
facet normal -0.58976275 0.0011760481 0.80757576
 outer loop
  vertex -8.495804 -12.68322 10.037557
  vertex -4.897179 -12.683222 12.665588
  vertex -6.8871574 -10.993908 11.209871
 endloop
endfacet
facet normal -0.5889567 0 0.80816454
 outer loop
  vertex -8.495804 -12.68322 10.037557
  vertex -6.8871574 -10.993908 11.209871
  vertex -8.495804 -10.993907 10.037557
 endloop
endfacet
facet normal 0 -0 1
 outer loop
  vertex 3.3097517 -8.650354 8.9449415
  vertex -0.01488925 -10.027309 8.9449415
  vertex 8.495822 -10.02731 8.9449415
 endloop
endfacet
facet normal 0 0 1
 outer loop
  vertex 3.3097517 -8.650354 8.9449415
  vertex 8.495822 -10.02731 8.9449415
  vertex 4.6867094 -5.3260865 8.9449415
 endloop
endfacet
facet normal 0.5897625 0.0011757938 0.8075759
 outer loop
  vertex 6.8871574 -10.993909 11.209871
  vertex 4.897177 -12.683222 12.665588
  vertex 8.495804 -12.683223 10.037557
 endloop
endfacet
facet normal 0.5889567 0 0.80816454
 outer loop
  vertex 6.8871574 -10.993909 11.209871
  vertex 8.495804 -12.683223 10.037557
  vertex 8.495804 -10.993909 10.037557
 endloop
endfacet
facet normal 0.0055710855 0.99977195 -0.020617204
 outer loop
  vertex -7.6962023 9.511485 14.697334
  vertex 7.2261855e-07 9.571373 19.681057
  vertex 7.180971e-07 9.511484 16.77692
 endloop
endfacet
facet normal 1.8272696e-07 1 -2.1765368e-07
 outer loop
  vertex -7.6962023 9.511485 14.697334
  vertex 7.180971e-07 9.511484 16.77692
  vertex -4.897177 9.511484 12.665588
 endloop
endfacet
facet normal 0 -0 -1
 outer loop
  vertex 8.495804 -12.683223 10.037557
  vertex -9.575566e-07 -12.683222 10.037557
  vertex -8.3001703e-07 -10.993908 10.037557
 endloop
endfacet
facet normal -0 -0 -1
 outer loop
  vertex 8.495804 -12.683223 10.037557
  vertex -8.3001703e-07 -10.993908 10.037557
  vertex 8.495804 -10.993909 10.037557
 endloop
endfacet
facet normal -0.6429814 4.8543747e-08 0.76588184
 outer loop
  vertex -4.897179 -12.683222 12.665588
  vertex -9.575566e-07 -12.683222 16.77692
  vertex 6.101778e-08 0.808205 16.77692
 endloop
endfacet
facet normal -0.6429814 4.4219934e-08 0.76588184
 outer loop
  vertex -4.897179 -12.683222 12.665588
  vertex 6.101778e-08 0.808205 16.77692
  vertex -4.897178 0.80820537 12.665588
 endloop
endfacet
facet normal 4.2359964e-08 -1 5.8126115e-08
 outer loop
  vertex 8.495821 1.6723994 7.986671
  vertex 8.495804 1.6723995 10.037557
  vertex 6.8871574 1.6723995 11.209873
 endloop
endfacet
facet normal 6.906261e-06 -1 3.4838208e-06
 outer loop
  vertex 8.495821 1.6723994 7.986671
  vertex 6.8871574 1.6723995 11.209873
  vertex 1.2625907e-07 1.672352 11.209873
 endloop
endfacet
facet normal 0.6429814 0 0.76588184
 outer loop
  vertex 7.180971e-07 9.511484 16.77692
  vertex 4.897179 9.511484 12.665588
  vertex 4.897179 13.655804 12.665588
 endloop
endfacet
facet normal 0.5897631 -0 0.8075763
 outer loop
  vertex 4.897179 13.655804 12.665588
  vertex 4.897179 9.511484 12.665588
  vertex 8.495804 9.511483 10.037557
 endloop
endfacet
facet normal 0.5897631 0 0.8075763
 outer loop
  vertex 4.897179 13.655804 12.665588
  vertex 8.495804 9.511483 10.037557
  vertex 8.495804 14.342663 10.037557
 endloop
endfacet
facet normal 0 0 1
 outer loop
  vertex 4.6867094 -5.3260865 8.9449415
  vertex 8.495822 -10.02731 8.9449415
  vertex 8.495822 -0.8964648 8.9449415
 endloop
endfacet
facet normal -0 0 1
 outer loop
  vertex 4.6867094 -5.3260865 8.9449415
  vertex 8.495822 -0.8964648 8.9449415
  vertex 4.6867094 -0.8964653 8.9449415
 endloop
endfacet
facet normal -0 -0 -1
 outer loop
  vertex -6.8871574 0.8082042 11.209873
  vertex -6.8871574 1.6723995 11.209873
  vertex 1.2625907e-07 1.672352 11.209873
 endloop
endfacet
facet normal 0 0 -1
 outer loop
  vertex 6.8871574 0.8082037 11.209871
  vertex 1.2187325 -5.531124 11.209871
  vertex 1.2187325 -4.297405 11.209871
 endloop
endfacet
facet normal 0.22985806 -0.55498946 0.7994699
 outer loop
  vertex -0.01488925 -10.027309 8.9449415
  vertex 3.3097517 -8.650354 8.9449415
  vertex 0.85744166 -6.403357 11.209871
 endloop
endfacet
facet normal 0.22985794 -0.5549894 0.7994699
 outer loop
  vertex -0.01488925 -10.027309 8.9449415
  vertex 0.85744166 -6.403357 11.209871
  vertex -0.014888966 -6.764647 11.209871
 endloop
endfacet
facet normal 0.5468106 0 0.8372563
 outer loop
  vertex 4.6867094 -5.3260865 8.9449415
  vertex 4.6867094 -0.8964653 8.9449415
  vertex 1.2187325 -4.297405 11.209871
 endloop
endfacet
facet normal 0.5468106 -0 0.8372564
 outer loop
  vertex 4.6867094 -5.3260865 8.9449415
  vertex 1.2187325 -4.297405 11.209871
  vertex 1.2187325 -5.531124 11.209871
 endloop
endfacet
facet normal -0 0.7042757 0.70992655
 outer loop
  vertex 7.180971e-07 9.511484 16.77692
  vertex 4.897179 13.655804 12.665588
  vertex -4.897177 13.655804 12.665588
 endloop
endfacet
facet normal -0.6429814 0 0.76588184
 outer loop
  vertex 7.180971e-07 9.511484 16.77692
  vertex -4.897177 13.655804 12.665588
  vertex -4.897177 9.511484 12.665588
 endloop
endfacet
facet normal 0 0 1
 outer loop
  vertex -0.01488925 -12.68322 8.9449415
  vertex 8.495822 -12.683221 8.9449415
  vertex 8.495822 -10.02731 8.9449415
 endloop
endfacet
facet normal 0 0 1
 outer loop
  vertex -0.01488925 -12.68322 8.9449415
  vertex 8.495822 -10.02731 8.9449415
  vertex -0.01488925 -10.027309 8.9449415
 endloop
endfacet
facet normal -0.5468107 0 0.83725625
 outer loop
  vertex -4.7164865 -5.3260865 8.9449415
  vertex -1.2485101 -5.531124 11.209871
  vertex -1.2485101 -4.297405 11.209871
 endloop
endfacet
facet normal -0.54681075 0 0.83725625
 outer loop
  vertex -4.7164865 -5.3260865 8.9449415
  vertex -1.2485101 -4.297405 11.209871
  vertex -4.7164865 -0.8964653 8.9449415
 endloop
endfacet
facet normal 0.54211813 -0.22455281 0.80974317
 outer loop
  vertex 3.3097517 -8.650354 8.9449415
  vertex 4.6867094 -5.3260865 8.9449415
  vertex 1.2187325 -5.531124 11.209871
 endloop
endfacet
facet normal 0.5421182 -0.22455278 0.8097431
 outer loop
  vertex 3.3097517 -8.650354 8.9449415
  vertex 1.2187325 -5.531124 11.209871
  vertex 0.85744166 -6.403357 11.209871
 endloop
endfacet
facet normal -7.954438e-08 -1 7.762718e-09
 outer loop
  vertex -7.696203 0.8082056 14.697334
  vertex -4.897178 0.80820537 12.665588
  vertex 6.101778e-08 0.808205 16.77692
 endloop
endfacet
facet normal -7.744681e-08 -1 -0
 outer loop
  vertex -7.696203 0.8082056 14.697334
  vertex 6.101778e-08 0.808205 16.77692
  vertex 6.101778e-08 0.808205 19.681057
 endloop
endfacet
facet normal -2.769428e-07 -3.6376593e-07 -1
 outer loop
  vertex 0.85744166 -6.403357 11.209871
  vertex 6.8871574 -10.993909 11.209871
  vertex -8.30017e-07 -10.993908 11.209873
 endloop
endfacet
facet normal 1.8651238e-07 -4.5033204e-07 -1
 outer loop
  vertex 0.85744166 -6.403357 11.209871
  vertex -8.30017e-07 -10.993908 11.209873
  vertex -0.014888966 -6.764647 11.209871
 endloop
endfacet
facet normal -1.6837859e-07 -1 -4.952061e-07
 outer loop
  vertex -4.897179 -12.683222 12.665588
  vertex -8.495804 -12.68322 10.037557
  vertex 8.495804 -12.683223 10.037557
 endloop
endfacet
facet normal 0 -1 3.628854e-07
 outer loop
  vertex -4.897179 -12.683222 12.665588
  vertex 8.495804 -12.683223 10.037557
  vertex 4.897177 -12.683222 12.665588
 endloop
endfacet
facet normal 0 0 1
 outer loop
  vertex -8.495822 -10.027309 8.9449415
  vertex -0.01488925 -10.027309 8.9449415
  vertex -3.3395298 -8.650354 8.9449415
 endloop
endfacet
facet normal 0 0 1
 outer loop
  vertex -8.495822 -10.027309 8.9449415
  vertex -3.3395298 -8.650354 8.9449415
  vertex -4.7164865 -5.3260865 8.9449415
 endloop
endfacet
facet normal 0 -0 1
 outer loop
  vertex -8.495822 -0.8964634 8.9449415
  vertex -8.495822 -10.027309 8.9449415
  vertex -4.7164865 -5.3260865 8.9449415
 endloop
endfacet
facet normal 0 0 1
 outer loop
  vertex -8.495822 -0.8964634 8.9449415
  vertex -4.7164865 -5.3260865 8.9449415
  vertex -4.7164865 -0.8964653 8.9449415
 endloop
endfacet
facet normal -3.382635e-07 0 -1
 outer loop
  vertex -1.2485101 -5.531124 11.209871
  vertex -6.8871574 0.8082042 11.209873
  vertex -1.2485101 -4.297405 11.209871
 endloop
endfacet
facet normal -0.22985794 -0.5549894 0.7994699
 outer loop
  vertex -0.01488925 -10.027309 8.9449415
  vertex -0.014888966 -6.764647 11.209871
  vertex -0.88721955 -6.403357 11.209871
 endloop
endfacet
facet normal -0.22985806 -0.5549894 0.7994698
 outer loop
  vertex -0.01488925 -10.027309 8.9449415
  vertex -0.88721955 -6.403357 11.209871
  vertex -3.3395298 -8.650354 8.9449415
 endloop
endfacet
facet normal 0.5435454 -5.9559774e-08 0.8393798
 outer loop
  vertex 6.101778e-08 0.808205 19.681057
  vertex 7.696203 0.8082044 14.697334
  vertex 7.696204 9.511483 14.697334
 endloop
endfacet
facet normal 0.5435454 -4.7476743e-08 0.8393798
 outer loop
  vertex 6.101778e-08 0.808205 19.681057
  vertex 7.696204 9.511483 14.697334
  vertex 7.2261855e-07 9.571373 19.681057
 endloop
endfacet
facet normal 3.812397e-07 -1 -5.2313504e-07
 outer loop
  vertex -6.8871574 1.6723995 11.209873
  vertex -8.495804 1.6723995 10.037557
  vertex -8.495821 1.6724006 7.986671
 endloop
endfacet
facet normal -6.9062617e-06 -1 3.1139737e-06
 outer loop
  vertex -6.8871574 1.6723995 11.209873
  vertex -8.495821 1.6724006 7.986671
  vertex 1.2625907e-07 1.672352 11.209873
 endloop
endfacet
facet normal 1.1225241e-07 1 6.594645e-07
 outer loop
  vertex -8.3001703e-07 -10.993908 10.037557
  vertex -8.495804 -10.993907 10.037557
  vertex -6.8871574 -10.993908 11.209871
 endloop
endfacet
facet normal 0 1 0
 outer loop
  vertex -8.3001703e-07 -10.993908 10.037557
  vertex -6.8871574 -10.993908 11.209871
  vertex -8.30017e-07 -10.993908 11.209873
 endloop
endfacet
facet normal -7.744681e-08 -1 0
 outer loop
  vertex 7.696203 0.8082044 14.697334
  vertex 6.101778e-08 0.808205 19.681057
  vertex 6.101778e-08 0.808205 16.77692
 endloop
endfacet
facet normal -7.954438e-08 -1 -7.762723e-09
 outer loop
  vertex 7.696203 0.8082044 14.697334
  vertex 6.101778e-08 0.808205 16.77692
  vertex 4.897178 0.80820465 12.665588
 endloop
endfacet
facet normal 0 0 1
 outer loop
  vertex -8.495822 -12.68322 8.9449415
  vertex -0.01488925 -12.68322 8.9449415
  vertex -0.01488925 -10.027309 8.9449415
 endloop
endfacet
facet normal -0 0 1
 outer loop
  vertex -8.495822 -12.68322 8.9449415
  vertex -0.01488925 -10.027309 8.9449415
  vertex -8.495822 -10.027309 8.9449415
 endloop
endfacet
facet normal 0.5889567 0 0.80816454
 outer loop
  vertex 6.8871574 -10.993909 11.209871
  vertex 8.495804 -10.993909 10.037557
  vertex 8.495804 0.8082042 10.037557
 endloop
endfacet
facet normal 0.58895665 0 0.80816454
 outer loop
  vertex 6.8871574 -10.993909 11.209871
  vertex 8.495804 0.8082042 10.037557
  vertex 6.8871574 0.8082037 11.209871
 endloop
endfacet
facet normal 0.6429814 -4.8543747e-08 0.76588184
 outer loop
  vertex 6.101778e-08 0.808205 16.77692
  vertex -9.575566e-07 -12.683222 16.77692
  vertex 4.897177 -12.683222 12.665588
 endloop
endfacet
facet normal 0.64298135 -4.54507e-08 0.76588184
 outer loop
  vertex 6.101778e-08 0.808205 16.77692
  vertex 4.897177 -12.683222 12.665588
  vertex 4.897178 0.80820465 12.665588
 endloop
endfacet
facet normal -0.5421182 -0.22455265 0.8097431
 outer loop
  vertex -3.3395298 -8.650354 8.9449415
  vertex -0.88721955 -6.403357 11.209871
  vertex -1.2485101 -5.531124 11.209871
 endloop
endfacet
facet normal -0.5421182 -0.22455272 0.80974317
 outer loop
  vertex -3.3395298 -8.650354 8.9449415
  vertex -1.2485101 -5.531124 11.209871
  vertex -4.7164865 -5.3260865 8.9449415
 endloop
endfacet
facet normal 0 0.5542997 0.8323172
 outer loop
  vertex -4.7164865 -0.8964653 8.9449415
  vertex -1.2485101 -4.297405 11.209871
  vertex 1.2187325 -4.297405 11.209871
 endloop
endfacet
facet normal 0 0.5542998 0.8323172
 outer loop
  vertex -4.7164865 -0.8964653 8.9449415
  vertex 1.2187325 -4.297405 11.209871
  vertex 4.6867094 -0.8964653 8.9449415
 endloop
endfacet
facet normal 0 0 -1
 outer loop
  vertex -6.8871574 0.8082042 11.209873
  vertex 1.2625907e-07 1.672352 11.209873
  vertex 6.8871574 1.6723995 11.209873
 endloop
endfacet
facet normal -1.3847132e-07 2.2070792e-06 -1
 outer loop
  vertex -6.8871574 0.8082042 11.209873
  vertex 6.8871574 1.6723995 11.209873
  vertex 6.8871574 0.8082037 11.209871
 endloop
endfacet
facet normal -0.59041303 -1.3043626e-07 0.8071013
 outer loop
  vertex -4.897178 0.80820537 12.665588
  vertex -6.8871574 0.8082042 11.209873
  vertex -6.8871574 -10.993908 11.209871
 endloop
endfacet
facet normal -0.59041363 4.3004395e-08 0.80710083
 outer loop
  vertex -4.897178 0.80820537 12.665588
  vertex -6.8871574 -10.993908 11.209871
  vertex -4.897179 -12.683222 12.665588
 endloop
endfacet
facet normal -0.5889574 1.7836823e-06 -0.8081641
 outer loop
  vertex 6.8871574 0.8082037 11.209871
  vertex 6.8871574 1.6723995 11.209873
  vertex 8.495804 1.6723995 10.037557
 endloop
endfacet
facet normal -0.5889567 0 -0.80816454
 outer loop
  vertex 6.8871574 0.8082037 11.209871
  vertex 8.495804 1.6723995 10.037557
  vertex 8.495804 0.8082042 10.037557
 endloop
endfacet
facet normal 0.9855948 0 0.16912422
 outer loop
  vertex 8.495804 0.8082042 10.037557
  vertex 8.495804 9.511483 10.037557
  vertex 7.696204 9.511483 14.697334
 endloop
endfacet
facet normal 0.9855947 -1.0799796e-07 0.1691244
 outer loop
  vertex 8.495804 0.8082042 10.037557
  vertex 7.696204 9.511483 14.697334
  vertex 7.696203 0.8082044 14.697334
 endloop
endfacet
facet normal 0 0 1
 outer loop
  vertex 8.495821 -0.8964667 7.986671
  vertex 8.495821 1.6723994 7.986671
  vertex -8.495821 1.6724006 7.986671
 endloop
endfacet
facet normal -0 0 1
 outer loop
  vertex 8.495821 -0.8964667 7.986671
  vertex -8.495821 1.6724006 7.986671
  vertex -8.495821 -0.89646536 7.986671
 endloop
endfacet
facet normal -1 0 0
 outer loop
  vertex -6.3343906 -12.683222 8.9449415
  vertex -6.3343906 -11.8001175 0.284704
  vertex -6.3343906 -12.683222 -0.02104
 endloop
endfacet
facet normal 1 -0 0
 outer loop
  vertex -6.8750725 -11.8001175 0.2847042
  vertex -6.8750725 -12.683221 8.9449415
  vertex -6.8750725 -12.683221 -0.021039963
 endloop
endfacet
facet normal 1 1.0799124e-06 -0
 outer loop
  vertex 6.334392 -12.683222 8.9449415
  vertex 6.334392 -12.683222 -0.02104
  vertex 6.334391 -11.800118 0.284704
 endloop
endfacet
facet normal -1 0 0
 outer loop
  vertex 6.875073 -11.800118 0.284704
  vertex 6.875073 -12.683222 -0.02104
  vertex 6.875073 -12.683222 8.9449415
 endloop
endfacet
facet normal -2.2047955e-07 1 5.536267e-05
 outer loop
  vertex 6.8750725 -1.6300384 0.026209
  vertex 6.3343906 -1.6300385 0.026209
  vertex 6.3343916 -1.6305323 8.9449415
 endloop
endfacet
facet normal 3.527679e-06 1 5.55899e-05
 outer loop
  vertex 6.8750725 -1.6300384 0.026209
  vertex 6.3343916 -1.6305323 8.9449415
  vertex 6.8750725 -1.6305342 8.9449415
 endloop
endfacet
facet normal 0 -1 -0
 outer loop
  vertex -6.8750725 -2.5135095 0.04875374
  vertex -6.3343906 -2.5135095 0.048754
  vertex -6.3343906 -2.5135095 8.9449415
 endloop
endfacet
facet normal 0 -1 -0
 outer loop
  vertex -6.8750725 -2.5135095 0.04875374
  vertex -6.3343906 -2.5135095 8.9449415
  vertex -6.8750725 -2.5135095 8.9449415
 endloop
endfacet
facet normal -1 -0 -0
 outer loop
  vertex -6.3343906 -8.093652 0.19113302
  vertex -6.3343906 -8.093652 8.9449415
  vertex -6.3343906 -5.1856813 8.9449415
 endloop
endfacet
facet normal -1 -0 0
 outer loop
  vertex -6.3343906 -8.093652 0.19113302
  vertex -6.3343906 -5.1856813 8.9449415
  vertex -6.3343906 -5.1856813 0.116945
 endloop
endfacet
facet normal -1 -1.5081534e-08 -8.3811943e-07
 outer loop
  vertex -4.994501 0.9811292 7.961689
  vertex -4.9944944 0.9811292 -0.0034294128
  vertex -4.9944944 0.54355025 0.004444599
 endloop
endfacet
facet normal -1 -1.5081666e-08 -8.3811943e-07
 outer loop
  vertex -4.994501 0.9811292 7.961689
  vertex -4.9944944 0.54355025 0.004444599
  vertex -4.994501 0.54355025 7.969563
 endloop
endfacet
facet normal -3.5276505e-06 -0.99999547 0.0029989872
 outer loop
  vertex 6.8750653 1.4208112 0.00050735474
  vertex 6.875072 1.4446986 7.965626
  vertex 6.334389 1.4447005 7.965626
 endloop
endfacet
facet normal -3.525799e-06 -0.99999547 0.002998987
 outer loop
  vertex 6.8750653 1.4208112 0.00050735474
  vertex 6.334389 1.4447005 7.965626
  vertex 6.3343825 1.4208131 0.00050735474
 endloop
endfacet
facet normal 1 0 0
 outer loop
  vertex -6.8750725 -0.15277576 0.00050735474
  vertex -6.8750725 1.4446983 0.00050735474
  vertex -6.8750725 1.4446983 7.965626
 endloop
endfacet
facet normal 1 -0 0
 outer loop
  vertex -6.8750725 -0.15277576 0.00050735474
  vertex -6.8750725 1.4446983 7.965626
  vertex -6.8750725 -0.15277576 7.965626
 endloop
endfacet
facet normal 1 1.3938877e-06 -8.4229964e-07
 outer loop
  vertex 6.3343835 0.5314091 0.00050735474
  vertex 6.33439 0.5552965 7.965626
  vertex 6.334391 -0.12888652 7.965626
 endloop
endfacet
facet normal 1 1.3938877e-06 -8.4229964e-07
 outer loop
  vertex 6.3343835 0.5314091 0.00050735474
  vertex 6.334391 -0.12888652 7.965626
  vertex 6.3343844 -0.15277392 0.00050735474
 endloop
endfacet
facet normal 1 0 0
 outer loop
  vertex -6.8750725 -8.093652 0.19113255
  vertex -6.8750725 -5.1856813 0.11694527
  vertex -6.8750725 -5.1856813 8.9449415
 endloop
endfacet
facet normal 1 -0 0
 outer loop
  vertex -6.8750725 -8.093652 0.19113255
  vertex -6.8750725 -5.1856813 8.9449415
  vertex -6.8750725 -8.093652 8.9449415
 endloop
endfacet
facet normal 0 -1 0
 outer loop
  vertex -6.3343906 1.4446983 0.00050735474
  vertex -6.3343906 1.4446983 7.965626
  vertex -6.8750725 1.4446983 7.965626
 endloop
endfacet
facet normal 0 -1 0
 outer loop
  vertex -6.3343906 1.4446983 0.00050735474
  vertex -6.8750725 1.4446983 7.965626
  vertex -6.8750725 1.4446983 0.00050735474
 endloop
endfacet
facet normal -1 0 8.381194e-07
 outer loop
  vertex 6.875072 -0.12888847 7.965626
  vertex 6.875072 1.4446986 7.965626
  vertex 6.8750653 1.4208112 0.00050735474
 endloop
endfacet
facet normal -1 0 8.381194e-07
 outer loop
  vertex 6.875072 -0.12888847 7.965626
  vertex 6.8750653 1.4208112 0.00050735474
  vertex 6.8750653 -0.15277587 0.00050735474
 endloop
endfacet
facet normal 1 0 0
 outer loop
  vertex -6.8750725 -4.3653717 0.095975876
  vertex -6.8750725 -2.5135095 0.04875374
  vertex -6.8750725 -2.5135095 8.9449415
 endloop
endfacet
facet normal 1 -0 0
 outer loop
  vertex -6.8750725 -4.3653717 0.095975876
  vertex -6.8750725 -2.5135095 8.9449415
  vertex -6.8750725 -4.3653717 8.9449415
 endloop
endfacet
facet normal 1.7638363e-06 0.9999999 0.00029763478
 outer loop
  vertex 6.875073 -8.092928 0.191133
  vertex 6.334391 -8.092927 0.191133
  vertex 6.334391 -8.095532 8.9449415
 endloop
endfacet
facet normal 0 0.9999999 0.0002975258
 outer loop
  vertex 6.875073 -8.092928 0.191133
  vertex 6.334391 -8.095532 8.9449415
  vertex 6.875073 -8.095532 8.9449415
 endloop
endfacet
facet normal 0 1 0
 outer loop
  vertex -6.3343906 -8.093652 8.9449415
  vertex -6.3343906 -8.093652 0.19113302
  vertex -6.8750725 -8.093652 0.19113255
 endloop
endfacet
facet normal -0 1 0
 outer loop
  vertex -6.3343906 -8.093652 8.9449415
  vertex -6.8750725 -8.093652 0.19113255
  vertex -6.8750725 -8.093652 8.9449415
 endloop
endfacet
facet normal -0 -1 -0
 outer loop
  vertex -6.8750725 -0.7042656 0.0025844574
  vertex -6.3343906 -0.7042656 0.002584003
  vertex -6.3343906 -0.7042656 8.9449415
 endloop
endfacet
facet normal 0 -1 -0
 outer loop
  vertex -6.8750725 -0.7042656 0.0025844574
  vertex -6.3343906 -0.7042656 8.9449415
  vertex -6.8750725 -0.7042656 8.9449415
 endloop
endfacet
facet normal 0.00028594222 0.99999547 -0.0029989874
 outer loop
  vertex 4.9944944 0.531804 0.004444599
  vertex 4.994501 0.5556914 7.969563
  vertex 6.33439 0.5552965 7.965626
 endloop
endfacet
facet normal 0.0002859424 0.99999547 -0.0029989874
 outer loop
  vertex 4.9944944 0.531804 0.004444599
  vertex 6.33439 0.5552965 7.965626
  vertex 6.3343835 0.5314091 0.00050735474
 endloop
endfacet
facet normal 1 0 -0
 outer loop
  vertex -6.8750725 -8.793745 8.9449415
  vertex -6.8750725 -12.683221 8.9449415
  vertex -6.8750725 -11.8001175 0.2847042
 endloop
endfacet
facet normal 1 0 -0
 outer loop
  vertex -6.8750725 -8.793745 8.9449415
  vertex -6.8750725 -11.8001175 0.2847042
  vertex -6.8750725 -8.793745 0.20899391
 endloop
endfacet
facet normal 1 0 0
 outer loop
  vertex -6.8750725 -1.6300385 0.026208878
  vertex -6.8750725 -0.7042656 0.0025844574
  vertex -6.8750725 -0.7042656 8.9449415
 endloop
endfacet
facet normal 1 -0 0
 outer loop
  vertex -6.8750725 -1.6300385 0.026208878
  vertex -6.8750725 -0.7042656 8.9449415
  vertex -6.8750725 -1.6300383 8.9449415
 endloop
endfacet
facet normal -0 1 0
 outer loop
  vertex -4.9944944 0.54355025 0.004444599
  vertex -6.3343906 0.54355025 0.00050735474
  vertex -6.3343906 0.54355025 7.965626
 endloop
endfacet
facet normal 0 1 0
 outer loop
  vertex -4.9944944 0.54355025 0.004444599
  vertex -6.3343906 0.54355025 7.965626
  vertex -4.994501 0.54355025 7.969563
 endloop
endfacet
facet normal 1 2.1109543e-06 -8.444501e-07
 outer loop
  vertex 6.3343825 1.4208131 0.00050735474
  vertex 6.334389 1.4447005 7.965626
  vertex 6.33439 0.9929265 7.965626
 endloop
endfacet
facet normal 1 2.1109545e-06 -8.444502e-07
 outer loop
  vertex 6.3343825 1.4208131 0.00050735474
  vertex 6.33439 0.9929265 7.965626
  vertex 6.3343835 0.9690391 0.00050735474
 endloop
endfacet
facet normal -1 -0 -0
 outer loop
  vertex -6.3343906 -4.3653717 0.095975876
  vertex -6.3343906 -4.3653717 8.9449415
  vertex -6.3343906 -2.5135095 8.9449415
 endloop
endfacet
facet normal -1 -0 0
 outer loop
  vertex -6.3343906 -4.3653717 0.095975876
  vertex -6.3343906 -2.5135095 8.9449415
  vertex -6.3343906 -2.5135095 0.048754
 endloop
endfacet
facet normal -2.395553e-09 -0.9999999 -0.00032433413
 outer loop
  vertex 6.334391 -8.792949 0.208998
  vertex 6.875073 -8.792949 0.208994
  vertex 6.875073 -8.795782 8.9449415
 endloop
endfacet
facet normal 0 -0.9999999 -0.0003243343
 outer loop
  vertex 6.334391 -8.792949 0.208998
  vertex 6.875073 -8.795782 8.9449415
  vertex 6.334392 -8.795782 8.9449415
 endloop
endfacet
facet normal 0 -1 0
 outer loop
  vertex -6.3343906 -8.793745 0.2089982
  vertex -6.3343906 -8.793745 8.9449415
  vertex -6.8750725 -8.793745 8.9449415
 endloop
endfacet
facet normal 0 -1 0
 outer loop
  vertex -6.3343906 -8.793745 0.2089982
  vertex -6.8750725 -8.793745 8.9449415
  vertex -6.8750725 -8.793745 0.20899391
 endloop
endfacet
facet normal -1 2.5759965e-07 4.03245e-11
 outer loop
  vertex 6.875072 -4.3639865 0.095976
  vertex 6.875072 -4.3653717 8.9449415
  vertex 6.8750725 -2.5142934 8.9449415
 endloop
endfacet
facet normal -1 2.576842e-07 2.2651544e-11
 outer loop
  vertex 6.875072 -4.3639865 0.095976
  vertex 6.8750725 -2.5142934 8.9449415
  vertex 6.8750725 -2.5135114 0.048754
 endloop
endfacet
facet normal -1 -0 -0
 outer loop
  vertex -6.3343906 0.9811292 0.00050735474
  vertex -6.3343906 0.9811292 7.965626
  vertex -6.3343906 1.4446983 7.965626
 endloop
endfacet
facet normal -1 -0 0
 outer loop
  vertex -6.3343906 0.9811292 0.00050735474
  vertex -6.3343906 1.4446983 7.965626
  vertex -6.3343906 1.4446983 0.00050735474
 endloop
endfacet
facet normal -0 -1 -0
 outer loop
  vertex -6.3343906 0.9811292 0.00050735474
  vertex -4.9944944 0.9811292 -0.0034294128
  vertex -4.994501 0.9811292 7.961689
 endloop
endfacet
facet normal 0 -1 -0
 outer loop
  vertex -6.3343906 0.9811292 0.00050735474
  vertex -4.994501 0.9811292 7.961689
  vertex -6.3343906 0.9811292 7.965626
 endloop
endfacet
facet normal -1 -0 -0
 outer loop
  vertex -6.3343906 -0.15277576 0.00050735474
  vertex -6.3343906 -0.15277576 7.965626
  vertex -6.3343906 0.54355025 7.965626
 endloop
endfacet
facet normal -1 -0 0
 outer loop
  vertex -6.3343906 -0.15277576 0.00050735474
  vertex -6.3343906 0.54355025 7.965626
  vertex -6.3343906 0.54355025 0.00050735474
 endloop
endfacet
facet normal -1 -0 0
 outer loop
  vertex -6.3343906 -1.6300385 0.026209004
  vertex -6.3343906 -1.6300383 8.9449415
  vertex -6.3343906 -0.7042656 8.9449415
 endloop
endfacet
facet normal -1 -0 0
 outer loop
  vertex -6.3343906 -1.6300385 0.026209004
  vertex -6.3343906 -0.7042656 8.9449415
  vertex -6.3343906 -0.7042656 0.002584003
 endloop
endfacet
facet normal -0.00022745303 -0.99999547 0.0029989874
 outer loop
  vertex 6.3343835 0.9690391 0.00050735474
  vertex 6.33439 0.9929265 7.965626
  vertex 4.994501 0.99321944 7.961689
 endloop
endfacet
facet normal -0.0002274529 -0.99999547 0.0029989872
 outer loop
  vertex 6.3343835 0.9690391 0.00050735474
  vertex 4.994501 0.99321944 7.961689
  vertex 4.9944944 0.96933204 -0.0034294128
 endloop
endfacet
facet normal 0 1 0
 outer loop
  vertex -6.3343906 -4.3653717 8.9449415
  vertex -6.3343906 -4.3653717 0.095975876
  vertex -6.8750725 -4.3653717 0.095975876
 endloop
endfacet
facet normal -0 1 0
 outer loop
  vertex -6.3343906 -4.3653717 8.9449415
  vertex -6.8750725 -4.3653717 0.095975876
  vertex -6.8750725 -4.3653717 8.9449415
 endloop
endfacet
facet normal 0 -1 0
 outer loop
  vertex -6.8750725 -5.1856813 8.9449415
  vertex -6.8750725 -5.1856813 0.11694527
  vertex -6.3343906 -5.1856813 0.116945
 endloop
endfacet
facet normal -0 -1 -0
 outer loop
  vertex -6.8750725 -5.1856813 8.9449415
  vertex -6.3343906 -5.1856813 0.116945
  vertex -6.3343906 -5.1856813 8.9449415
 endloop
endfacet
facet normal -4.409591e-06 -1 -0.00018802345
 outer loop
  vertex 6.3343906 -5.1856813 0.116945
  vertex 6.8750725 -5.1856837 0.116945
  vertex 6.8750725 -5.1873436 8.9449415
 endloop
endfacet
facet normal -7.937278e-06 -1 -0.00018780738
 outer loop
  vertex 6.3343906 -5.1856813 0.116945
  vertex 6.8750725 -5.1873436 8.9449415
  vertex 6.3343916 -5.1873393 8.9449415
 endloop
endfacet
facet normal -3.5276728e-06 -1 -8.811867e-05
 outer loop
  vertex 6.3343906 -2.5142934 8.9449415
  vertex 6.3343906 -2.5135095 0.048754
  vertex 6.8750725 -2.5135114 0.048754
 endloop
endfacet
facet normal 0 -1 -8.790428e-05
 outer loop
  vertex 6.3343906 -2.5142934 8.9449415
  vertex 6.8750725 -2.5135114 0.048754
  vertex 6.8750725 -2.5142934 8.9449415
 endloop
endfacet
facet normal -1 -5.149015e-07 -2.8623322e-11
 outer loop
  vertex 6.8750725 -1.6300384 0.026209
  vertex 6.8750725 -1.6305342 8.9449415
  vertex 6.875072 -0.70445967 8.9449415
 endloop
endfacet
facet normal -1 -5.1506953e-07 -1.11818e-11
 outer loop
  vertex 6.8750725 -1.6300384 0.026209
  vertex 6.875072 -0.70445967 8.9449415
  vertex 6.875072 -0.70426553 0.002584
 endloop
endfacet
facet normal -1 0 0
 outer loop
  vertex -6.3343906 -8.793745 8.9449415
  vertex -6.3343906 -8.793745 0.2089982
  vertex -6.3343906 -11.8001175 0.284704
 endloop
endfacet
facet normal -1 0 0
 outer loop
  vertex -6.3343906 -8.793745 8.9449415
  vertex -6.3343906 -11.8001175 0.284704
  vertex -6.3343906 -12.683222 8.9449415
 endloop
endfacet
facet normal -1 -1.6396362e-07 -4.878342e-11
 outer loop
  vertex 6.875073 -8.092928 0.191133
  vertex 6.875073 -8.095532 8.9449415
  vertex 6.8750725 -5.1873436 8.9449415
 endloop
endfacet
facet normal -1 -1.6401768e-07 -3.0839168e-11
 outer loop
  vertex 6.875073 -8.092928 0.191133
  vertex 6.8750725 -5.1873436 8.9449415
  vertex 6.8750725 -5.1856837 0.116945
 endloop
endfacet
facet normal -0 1 0
 outer loop
  vertex -6.3343906 -0.15277576 0.00050735474
  vertex -6.8750725 -0.15277576 0.00050735474
  vertex -6.8750725 -0.15277576 7.965626
 endloop
endfacet
facet normal 0 1 0
 outer loop
  vertex -6.3343906 -0.15277576 0.00050735474
  vertex -6.8750725 -0.15277576 7.965626
  vertex -6.3343906 -0.15277576 7.965626
 endloop
endfacet
facet normal -3.7481523e-06 -1 -2.166931e-05
 outer loop
  vertex 6.334389 -0.7044573 8.9449415
  vertex 6.33439 -0.7042635 0.002584
  vertex 6.875072 -0.70426553 0.002584
 endloop
endfacet
facet normal -4.409596e-06 -1 -2.1709302e-05
 outer loop
  vertex 6.334389 -0.7044573 8.9449415
  vertex 6.875072 -0.70426553 0.002584
  vertex 6.875072 -0.70445967 8.9449415
 endloop
endfacet
facet normal 1 0 -1.1012104e-07
 outer loop
  vertex 6.334392 -8.795782 8.9449415
  vertex 6.334392 -12.683222 8.9449415
  vertex 6.334391 -11.800118 0.284704
 endloop
endfacet
facet normal 1 -2.7483134e-09 -1.0916762e-07
 outer loop
  vertex 6.334392 -8.795782 8.9449415
  vertex 6.334391 -11.800118 0.284704
  vertex 6.334391 -8.792949 0.208998
 endloop
endfacet
facet normal 6.2623047e-15 1 -2.6732337e-08
 outer loop
  vertex -6.3343906 -1.6300383 8.9449415
  vertex -6.3343906 -1.6300385 0.026209004
  vertex -6.8750725 -1.6300385 0.026208878
 endloop
endfacet
facet normal 0 1 -2.6732337e-08
 outer loop
  vertex -6.3343906 -1.6300383 8.9449415
  vertex -6.8750725 -1.6300385 0.026208878
  vertex -6.8750725 -1.6300383 8.9449415
 endloop
endfacet
facet normal 1 -2.576845e-07 -2.2706816e-11
 outer loop
  vertex 6.33439 -4.3639827 0.095976
  vertex 6.3343906 -2.5135095 0.048754
  vertex 6.3343906 -2.5142934 8.9449415
 endloop
endfacet
facet normal 1 2.5759965e-07 -1.07731964e-07
 outer loop
  vertex 6.33439 -4.3639827 0.095976
  vertex 6.3343906 -2.5142934 8.9449415
  vertex 6.334391 -4.3653717 8.9449415
 endloop
endfacet
facet normal 1 1.6126087e-07 -1.0799811e-07
 outer loop
  vertex 6.334391 -8.092927 0.191133
  vertex 6.3343906 -5.1856813 0.116945
  vertex 6.3343916 -5.1873393 8.9449415
 endloop
endfacet
facet normal 1 -1.6396338e-07 -4.8801206e-11
 outer loop
  vertex 6.334391 -8.092927 0.191133
  vertex 6.3343916 -5.1873393 8.9449415
  vertex 6.334391 -8.095532 8.9449415
 endloop
endfacet
facet normal 1 5.1778994e-07 1.06658085e-07
 outer loop
  vertex 6.3343906 -1.6300385 0.026209
  vertex 6.33439 -0.7042635 0.002584
  vertex 6.334389 -0.7044573 8.9449415
 endloop
endfacet
facet normal 1 2.574506e-06 -1.067868e-07
 outer loop
  vertex 6.3343906 -1.6300385 0.026209
  vertex 6.334389 -0.7044573 8.9449415
  vertex 6.3343916 -1.6305323 8.9449415
 endloop
endfacet
facet normal 1 -1.5082476e-08 -8.3807413e-07
 outer loop
  vertex 4.994501 0.99321944 7.961689
  vertex 4.994501 0.5556914 7.969563
  vertex 4.9944944 0.531804 0.004444599
 endloop
endfacet
facet normal 1 -1.5082476e-08 -8.3807413e-07
 outer loop
  vertex 4.994501 0.99321944 7.961689
  vertex 4.9944944 0.531804 0.004444599
  vertex 4.9944944 0.96933204 -0.0034294128
 endloop
endfacet
facet normal 7.055346e-06 1 0.00015697052
 outer loop
  vertex 6.875072 -4.3639865 0.095976
  vertex 6.33439 -4.3639827 0.095976
  vertex 6.334391 -4.3653717 8.9449415
 endloop
endfacet
facet normal 0 1 0.00015653942
 outer loop
  vertex 6.875072 -4.3639865 0.095976
  vertex 6.334391 -4.3653717 8.9449415
  vertex 6.875072 -4.3653717 8.9449415
 endloop
endfacet
facet normal 3.6103431e-06 0.9999956 -0.0029989874
 outer loop
  vertex 6.334391 -0.12888652 7.965626
  vertex 6.875072 -0.12888847 7.965626
  vertex 6.8750653 -0.15277587 0.00050735474
 endloop
endfacet
facet normal 3.6103431e-06 0.9999956 -0.0029989874
 outer loop
  vertex 6.334391 -0.12888652 7.965626
  vertex 6.8750653 -0.15277587 0.00050735474
  vertex 6.3343844 -0.15277392 0.00050735474
 endloop
endfacet
facet normal -1 0 0
 outer loop
  vertex 6.875073 -8.795782 8.9449415
  vertex 6.875073 -8.792949 0.208994
  vertex 6.875073 -11.800118 0.284704
 endloop
endfacet
facet normal -1 0 0
 outer loop
  vertex 6.875073 -8.795782 8.9449415
  vertex 6.875073 -11.800118 0.284704
  vertex 6.875073 -12.683222 8.9449415
 endloop
endfacet
endsolid 
