solid 
facet normal 0 -0 1
 outer loop
  vertex 1.0620382 13.039771 -2.735572
  vertex 0.831919 2.0395427 -2.735572
  vertex 3.01513 2.3325818 -2.735572
 endloop
endfacet
facet normal 0 0 1
 outer loop
  vertex 1.0620382 13.039771 -2.735572
  vertex 3.01513 2.3325818 -2.735572
  vertex 5.184208 2.956093 -2.735572
 endloop
endfacet
facet normal -0.00016301147 6.6638466e-05 1
 outer loop
  vertex -5.1863737 2.956093 -2.735572
  vertex -1.0642042 13.039771 -2.735572
  vertex -7.480576 13.039772 -2.736618
 endloop
endfacet
facet normal 1.4107124e-07 0.00010375835 1
 outer loop
  vertex -5.1863737 2.956093 -2.735572
  vertex -7.480576 13.039772 -2.736618
  vertex -6.8761554 2.9560933 -2.7355719
 endloop
endfacet
facet normal 0 0.000103726255 1
 outer loop
  vertex 5.184208 2.956093 -2.735572
  vertex 6.8739843 2.956093 -2.735572
  vertex 7.4784093 13.039772 -2.736618
 endloop
endfacet
facet normal 0.00016301149 6.663849e-05 1
 outer loop
  vertex 5.184208 2.956093 -2.735572
  vertex 7.4784093 13.039772 -2.736618
  vertex 1.0620382 13.039771 -2.735572
 endloop
endfacet
facet normal 0.0020583484 0.00023393339 0.99999785
 outer loop
  vertex -7.480576 13.039772 -2.736618
  vertex -8.496866 13.039768 -2.7345262
  vertex -8.496866 2.956093 -2.7321672
 endloop
endfacet
facet normal 0.0021006893 0.00022966601 0.9999978
 outer loop
  vertex -7.480576 13.039772 -2.736618
  vertex -8.496866 2.956093 -2.7321672
  vertex -6.8761554 2.9560933 -2.7355719
 endloop
endfacet
facet normal 0 -0 1
 outer loop
  vertex -1.0642042 13.039771 -2.735572
  vertex -5.1863737 2.956093 -2.735572
  vertex -3.0172958 2.332582 -2.735572
 endloop
endfacet
facet normal 0 -0 1
 outer loop
  vertex -1.0642042 13.039771 -2.735572
  vertex -3.0172958 2.332582 -2.735572
  vertex -0.8340849 2.0395427 -2.735572
 endloop
endfacet
facet normal 0 0 1
 outer loop
  vertex -0.8340849 2.0395427 -2.735572
  vertex 0.831919 2.0395427 -2.735572
  vertex 1.0620382 13.039771 -2.735572
 endloop
endfacet
facet normal -0 0 1
 outer loop
  vertex -0.8340849 2.0395427 -2.735572
  vertex 1.0620382 13.039771 -2.735572
  vertex -1.0642042 13.039771 -2.735572
 endloop
endfacet
facet normal -0.0021008307 0.00022965175 0.9999978
 outer loop
  vertex 7.4784093 13.039772 -2.736618
  vertex 6.8739843 2.956093 -2.735572
  vertex 8.4946995 2.956093 -2.7321672
 endloop
endfacet
facet normal -0.0020583482 0.00023393342 0.99999785
 outer loop
  vertex 7.4784093 13.039772 -2.736618
  vertex 8.4946995 2.956093 -2.7321672
  vertex 8.4946995 13.039767 -2.7345262
 endloop
endfacet
facet normal -7.8919605e-08 -5.8641467e-07 1
 outer loop
  vertex -6.8761554 2.0395432 -4.2034445
  vertex -0.83408993 2.0395427 -4.203444
  vertex -3.0173018 2.333359 -4.203444
 endloop
endfacet
facet normal -0.003346023 0.025554286 0.9996678
 outer loop
  vertex -6.8761554 -2.325829 -4.1016703
  vertex -8.496866 2.0395434 -4.218686
  vertex -6.8761554 -3.1461387 -4.080701
 endloop
endfacet
facet normal -0 0 1
 outer loop
  vertex 6.8686852 2.0395432 -4.203444
  vertex 3.015136 2.333359 -4.203444
  vertex 0.831924 2.0395427 -4.203444
 endloop
endfacet
facet normal 0.0034861392 0.02551052 0.9996684
 outer loop
  vertex 6.8739896 -0.4739687 -4.148892
  vertex 8.4946995 2.0395434 -4.218686
  vertex 6.8739896 0.4095043 -4.1714373
 endloop
endfacet
facet normal -0.0017426976 0.025510762 0.999673
 outer loop
  vertex -6.3354735 0.40950418 -4.1714373
  vertex -0.83408993 2.0395427 -4.203444
  vertex -6.3354735 1.3352771 -4.195062
 endloop
endfacet
facet normal 0.0017425194 0.025510354 0.99967307
 outer loop
  vertex 6.3333073 -2.32444 -4.1016703
  vertex 6.3333077 -0.4739668 -4.148892
  vertex 0.831924 2.0395427 -4.203444
 endloop
endfacet
facet normal -0.0034866168 0.025510048 0.9996685
 outer loop
  vertex -6.8761554 -0.4739668 -4.1488924
  vertex -6.8761554 0.40950418 -4.1714373
  vertex -8.496866 2.0395434 -4.218686
 endloop
endfacet
facet normal -0.003515605 0.025491362 0.99966884
 outer loop
  vertex -6.8761554 -0.4739668 -4.1488924
  vertex -8.496866 2.0395434 -4.218686
  vertex -6.8761554 -2.325829 -4.1016703
 endloop
endfacet
facet normal -0.0013307739 0.025491245 0.99967414
 outer loop
  vertex 0.831924 2.0395427 -4.203444
  vertex -6.3354735 -0.4739668 -4.148892
  vertex -6.3354735 -2.325829 -4.1016703
 endloop
endfacet
facet normal -2.5559384e-06 0.023311738 0.99972826
 outer loop
  vertex 0.831924 2.0395427 -4.203444
  vertex -6.3354735 -2.325829 -4.1016703
  vertex 6.3333073 -2.32444 -4.1016703
 endloop
endfacet
facet normal -5.624597e-09 0.025510743 0.99967456
 outer loop
  vertex 6.8739896 0.4095043 -4.1714373
  vertex 6.3333077 0.40950418 -4.1714373
  vertex 6.3333077 -0.4739668 -4.148892
 endloop
endfacet
facet normal 8.9993335e-08 0.025510682 0.99967456
 outer loop
  vertex 6.8739896 0.4095043 -4.1714373
  vertex 6.3333077 -0.4739668 -4.148892
  vertex 6.8739896 -0.4739687 -4.148892
 endloop
endfacet
facet normal 0 -0.32716247 0.94496816
 outer loop
  vertex -8.496866 -9.760575 -3.9129422
  vertex -8.496866 -10.643679 -4.218686
  vertex -6.8761554 -10.643679 -4.218686
 endloop
endfacet
facet normal -1.3773622e-07 -0.32716265 0.944968
 outer loop
  vertex -8.496866 -9.760575 -3.9129422
  vertex -6.8761554 -10.643679 -4.218686
  vertex -6.8761554 -9.760575 -3.912942
 endloop
endfacet
facet normal 0 -0 1
 outer loop
  vertex 5.184215 2.958526 -4.203444
  vertex 3.015136 2.333359 -4.203444
  vertex 6.8686852 2.0395432 -4.203444
 endloop
endfacet
facet normal 0 0 1
 outer loop
  vertex 5.184215 2.958526 -4.203444
  vertex 6.8686852 2.0395432 -4.203444
  vertex 6.87399 2.9585261 -4.203444
 endloop
endfacet
facet normal 8.8185567e-07 0.011902039 0.9999291
 outer loop
  vertex -6.8761554 2.0395432 -4.2034445
  vertex -6.8761554 1.3352771 -4.1950617
  vertex -6.3354735 1.3352771 -4.195062
 endloop
endfacet
facet normal -7.8020136e-08 0.011901304 0.9999292
 outer loop
  vertex -6.8761554 2.0395432 -4.2034445
  vertex -6.3354735 1.3352771 -4.195062
  vertex -0.83408993 2.0395427 -4.203444
 endloop
endfacet
facet normal 0.0034860142 0.02551065 0.9996685
 outer loop
  vertex 6.873989 1.3352771 -4.195062
  vertex 6.8739896 0.4095043 -4.1714373
  vertex 8.4946995 2.0395434 -4.218686
 endloop
endfacet
facet normal 0.009372818 0.011970742 0.9998845
 outer loop
  vertex 6.873989 1.3352771 -4.195062
  vertex 8.4946995 2.0395434 -4.218686
  vertex 6.8686852 2.0395432 -4.203444
 endloop
endfacet
facet normal 0 -0.32716244 0.94496816
 outer loop
  vertex -6.3354735 -10.64368 -4.218686
  vertex 6.333309 -10.64368 -4.218686
  vertex 6.333308 -9.760576 -3.9129422
 endloop
endfacet
facet normal -2.462795e-08 -0.32716212 0.94496816
 outer loop
  vertex -6.3354735 -10.64368 -4.218686
  vertex 6.333308 -9.760576 -3.9129422
  vertex -6.3354735 -9.760575 -3.9129422
 endloop
endfacet
facet normal -0.0006086811 0.025503397 0.9996745
 outer loop
  vertex -8.496866 -9.760575 -3.9129422
  vertex -6.8761554 -6.0541096 -4.0065136
  vertex -6.8761554 -3.1461387 -4.080701
 endloop
endfacet
facet normal -0.002234653 0.025901485 0.99966204
 outer loop
  vertex -8.496866 -9.760575 -3.9129422
  vertex -6.8761554 -3.1461387 -4.080701
  vertex -8.496866 2.0395434 -4.218686
 endloop
endfacet
facet normal 0.00174268 0.025510702 0.999673
 outer loop
  vertex 0.831924 2.0395427 -4.203444
  vertex 6.3333077 -0.4739668 -4.148892
  vertex 6.3333077 0.40950418 -4.1714373
 endloop
endfacet
facet normal 0.0017426807 0.025510704 0.999673
 outer loop
  vertex 0.831924 2.0395427 -4.203444
  vertex 6.3333077 0.40950418 -4.1714373
  vertex 6.3333073 1.3352792 -4.195062
 endloop
endfacet
facet normal -0 0.02169844 0.99976456
 outer loop
  vertex -6.3354735 -0.4739668 -4.148892
  vertex 0.831924 2.0395427 -4.203444
  vertex -0.83408993 2.0395427 -4.203444
 endloop
endfacet
facet normal -0.0017426799 0.0255107 0.999673
 outer loop
  vertex -6.3354735 -0.4739668 -4.148892
  vertex -0.83408993 2.0395427 -4.203444
  vertex -6.3354735 0.40950418 -4.1714373
 endloop
endfacet
facet normal 4.499943e-08 0.025512248 0.9996745
 outer loop
  vertex 6.87399 -6.0533857 -4.006513
  vertex 6.333308 -6.053385 -4.006513
  vertex 6.333308 -6.7534065 -3.9886482
 endloop
endfacet
facet normal 7.4938657e-06 0.025506498 0.9996747
 outer loop
  vertex 6.87399 -6.0533857 -4.006513
  vertex 6.333308 -6.7534065 -3.9886482
  vertex 6.87399 -6.7534065 -3.9886522
 endloop
endfacet
facet normal -0.009403199 0.011901515 0.9998849
 outer loop
  vertex -6.8761554 1.3352771 -4.1950617
  vertex -6.8761554 2.0395432 -4.2034445
  vertex -8.496866 2.0395434 -4.218686
 endloop
endfacet
facet normal -0.0034865323 0.02551013 0.9996685
 outer loop
  vertex -6.8761554 1.3352771 -4.1950617
  vertex -8.496866 2.0395434 -4.218686
  vertex -6.8761554 0.40950418 -4.1714373
 endloop
endfacet
facet normal -1.563114e-06 0.025167195 0.99968326
 outer loop
  vertex 6.333308 -9.760576 -3.9129422
  vertex 6.333308 -6.7534065 -3.9886482
  vertex -6.3354735 -6.754203 -3.988648
 endloop
endfacet
facet normal 1.9555768e-09 0.025173787 0.9996831
 outer loop
  vertex 6.333308 -9.760576 -3.9129422
  vertex -6.3354735 -6.754203 -3.988648
  vertex -6.3354735 -9.760575 -3.9129422
 endloop
endfacet
facet normal 0 0.025168542 0.9996832
 outer loop
  vertex 6.87399 -6.7534065 -3.9886522
  vertex 6.87399 -9.760576 -3.9129422
  vertex 8.4946995 -9.760576 -3.9129422
 endloop
endfacet
facet normal 0.0006274798 0.025506502 0.9996745
 outer loop
  vertex 6.87399 -6.7534065 -3.9886522
  vertex 8.4946995 -9.760576 -3.9129422
  vertex 6.87399 -6.0533857 -4.006513
 endloop
endfacet
facet normal -2.8218983e-07 0 1
 outer loop
  vertex -5.186381 2.9585261 -4.203444
  vertex -6.8761554 2.9585261 -4.2034445
  vertex -6.8761554 2.0395432 -4.2034445
 endloop
endfacet
facet normal -9.7747055e-08 -3.3914304e-07 1
 outer loop
  vertex -5.186381 2.9585261 -4.203444
  vertex -6.8761554 2.0395432 -4.2034445
  vertex -3.0173018 2.333359 -4.203444
 endloop
endfacet
facet normal -0.0006112857 0.025504533 0.9996745
 outer loop
  vertex -6.8761554 -6.754203 -3.9886522
  vertex -6.8761554 -6.0541096 -4.0065136
  vertex -8.496866 -9.760575 -3.9129422
 endloop
endfacet
facet normal -1.4706079e-07 0.02517529 0.999683
 outer loop
  vertex -6.8761554 -6.754203 -3.9886522
  vertex -8.496866 -9.760575 -3.9129422
  vertex -6.8761554 -9.760575 -3.912942
 endloop
endfacet
facet normal 0.0022343271 0.025901483 0.99966204
 outer loop
  vertex 8.4946995 -9.760576 -3.9129422
  vertex 8.4946995 2.0395434 -4.218686
  vertex 6.8739896 -3.146141 -4.0807014
 endloop
endfacet
facet normal 0.0006357065 0.025510091 0.9996743
 outer loop
  vertex 8.4946995 -9.760576 -3.9129422
  vertex 6.8739896 -3.146141 -4.0807014
  vertex 6.87399 -6.0533857 -4.006513
 endloop
endfacet
facet normal 2.9421483e-07 0 1
 outer loop
  vertex -6.8761554 2.0395432 -4.2034445
  vertex -6.8761554 2.9585261 -4.2034445
  vertex -8.496866 2.9585268 -4.203444
 endloop
endfacet
facet normal -0.009402577 -0.016582813 0.9998183
 outer loop
  vertex -6.8761554 2.0395432 -4.2034445
  vertex -8.496866 2.9585268 -4.203444
  vertex -8.496866 2.0395434 -4.218686
 endloop
endfacet
facet normal -9.400252e-10 0.011900724 0.99992925
 outer loop
  vertex 6.8686852 2.0395432 -4.203444
  vertex 0.831924 2.0395427 -4.203444
  vertex 6.3333073 1.3352792 -4.195062
 endloop
endfacet
facet normal 4.7229445e-08 0.011900687 0.9999292
 outer loop
  vertex 6.8686852 2.0395432 -4.203444
  vertex 6.3333073 1.3352792 -4.195062
  vertex 6.873989 1.3352771 -4.195062
 endloop
endfacet
facet normal -2.7970339e-06 0.025510678 0.9996745
 outer loop
  vertex 6.3333077 -3.1461387 -4.0807014
  vertex 6.3333073 -2.32444 -4.1016703
  vertex -6.3354735 -2.325829 -4.1016703
 endloop
endfacet
facet normal 0 0.025553847 0.9996734
 outer loop
  vertex 6.3333077 -3.1461387 -4.0807014
  vertex -6.3354735 -2.325829 -4.1016703
  vertex -6.3354735 -3.1461387 -4.0807014
 endloop
endfacet
facet normal -1.5846607e-06 0.025509985 0.9996746
 outer loop
  vertex -6.3354735 -6.0541096 -4.006513
  vertex -6.3354735 -6.754203 -3.988648
  vertex 6.333308 -6.7534065 -3.9886482
 endloop
endfacet
facet normal -1.4595564e-06 0.025512246 0.9996745
 outer loop
  vertex -6.3354735 -6.0541096 -4.006513
  vertex 6.333308 -6.7534065 -3.9886482
  vertex 6.333308 -6.053385 -4.006513
 endloop
endfacet
facet normal 8.816302e-07 0.025553847 0.9996735
 outer loop
  vertex -6.8761554 -3.1461387 -4.080701
  vertex -6.3354735 -3.1461387 -4.0807014
  vertex -6.3354735 -2.325829 -4.1016703
 endloop
endfacet
facet normal -0 0.025554426 0.9996734
 outer loop
  vertex -6.8761554 -3.1461387 -4.080701
  vertex -6.3354735 -2.325829 -4.1016703
  vertex -6.8761554 -2.325829 -4.1016703
 endloop
endfacet
facet normal 1.12491854e-07 0.025510723 0.99967456
 outer loop
  vertex 6.3333077 -3.1461387 -4.0807014
  vertex 6.8739896 -3.146141 -4.0807014
  vertex 6.873989 -2.3244438 -4.1016703
 endloop
endfacet
facet normal 1.7998666e-07 0.02551068 0.99967456
 outer loop
  vertex 6.3333077 -3.1461387 -4.0807014
  vertex 6.873989 -2.3244438 -4.1016703
  vertex 6.3333073 -2.32444 -4.1016703
 endloop
endfacet
facet normal 0.0034856645 0.025510568 0.9996685
 outer loop
  vertex 6.873989 -2.3244438 -4.1016703
  vertex 6.8739896 -3.146141 -4.0807014
  vertex 8.4946995 2.0395434 -4.218686
 endloop
endfacet
facet normal 0.0034866342 0.025510216 0.99966854
 outer loop
  vertex 6.873989 -2.3244438 -4.1016703
  vertex 8.4946995 2.0395434 -4.218686
  vertex 6.8739896 -0.4739687 -4.148892
 endloop
endfacet
facet normal -0 0.025510084 0.99967456
 outer loop
  vertex 6.333308 -6.053385 -4.006513
  vertex 6.3333077 -3.1461387 -4.0807014
  vertex -6.3354735 -3.1461387 -4.0807014
 endloop
endfacet
facet normal -1.4592873e-06 0.025503727 0.9996747
 outer loop
  vertex 6.333308 -6.053385 -4.006513
  vertex -6.3354735 -3.1461387 -4.0807014
  vertex -6.3354735 -6.0541096 -4.006513
 endloop
endfacet
facet normal 1.9251226e-07 -0.32716247 0.9449681
 outer loop
  vertex 6.87399 -9.760576 -3.9129422
  vertex 6.87399 -10.64368 -4.218686
  vertex 8.4946995 -10.643679 -4.218686
 endloop
endfacet
facet normal 0 -0.32716277 0.944968
 outer loop
  vertex 6.87399 -9.760576 -3.9129422
  vertex 8.4946995 -10.643679 -4.218686
  vertex 8.4946995 -9.760576 -3.9129422
 endloop
endfacet
facet normal 0.009373491 -5.4108317e-05 0.9999561
 outer loop
  vertex 6.87399 2.9585261 -4.203444
  vertex 6.8686852 2.0395432 -4.203444
  vertex 8.4946995 2.0395434 -4.218686
 endloop
endfacet
facet normal 7.502548e-09 -0.016583545 0.99986243
 outer loop
  vertex 6.87399 2.9585261 -4.203444
  vertex 8.4946995 2.0395434 -4.218686
  vertex 8.4946995 2.9585268 -4.203444
 endloop
endfacet
facet normal -0 0.025510205 0.9996746
 outer loop
  vertex -6.3354735 0.40950418 -4.1714373
  vertex -6.8761554 0.40950418 -4.1714373
  vertex -6.8761554 -0.4739668 -4.1488924
 endloop
endfacet
facet normal -8.816312e-07 0.025510743 0.99967456
 outer loop
  vertex -6.3354735 0.40950418 -4.1714373
  vertex -6.8761554 -0.4739668 -4.1488924
  vertex -6.3354735 -0.4739668 -4.148892
 endloop
endfacet
facet normal -7.934682e-06 0.025504537 0.9996747
 outer loop
  vertex -6.8761554 -6.0541096 -4.0065136
  vertex -6.8761554 -6.754203 -3.9886522
  vertex -6.3354735 -6.754203 -3.988648
 endloop
endfacet
facet normal -8.8052985e-07 0.025509981 0.99967456
 outer loop
  vertex -6.8761554 -6.0541096 -4.0065136
  vertex -6.3354735 -6.754203 -3.988648
  vertex -6.3354735 -6.0541096 -4.006513
 endloop
endfacet
endsolid 
