solid 
facet normal 0 0 -1
 outer loop
  vertex 1.0631212 11.000229 1.462074
  vertex 5.185291 0.91655034 1.462074
  vertex 3.016213 0.2930392 1.462074
 endloop
endfacet
facet normal 0 0 -1
 outer loop
  vertex 1.0631212 11.000229 1.462074
  vertex 3.016213 0.2930392 1.462074
  vertex 0.833002 6.28899e-08 1.462074
 endloop
endfacet
facet normal -1.4110894e-07 -0.00010375835 -1
 outer loop
  vertex -5.185291 0.9165504 1.462074
  vertex -6.8750725 0.91655064 1.4620743
  vertex -7.479493 11.00023 1.4610281
 endloop
endfacet
facet normal 0.00016301147 -6.6638466e-05 -1
 outer loop
  vertex -5.185291 0.9165504 1.462074
  vertex -7.479493 11.00023 1.4610281
  vertex -1.0631212 11.000229 1.462074
 endloop
endfacet
facet normal -0.00016301149 -6.663847e-05 -1
 outer loop
  vertex 5.185291 0.91655034 1.462074
  vertex 1.0631212 11.000229 1.462074
  vertex 7.479492 11.00023 1.4610281
 endloop
endfacet
facet normal 0 -0.00010372625 -1
 outer loop
  vertex 5.185291 0.91655034 1.462074
  vertex 7.479492 11.00023 1.4610281
  vertex 6.875067 0.91655046 1.462074
 endloop
endfacet
facet normal -0.0021007634 -0.00022967046 -0.9999978
 outer loop
  vertex -7.479493 11.00023 1.4610281
  vertex -6.8750725 0.91655064 1.4620743
  vertex -8.495783 0.91655034 1.465479
 endloop
endfacet
facet normal -0.0020583495 -0.00023394522 -0.99999785
 outer loop
  vertex -7.479493 11.00023 1.4610281
  vertex -8.495783 0.91655034 1.465479
  vertex -8.495783 11.000226 1.46312
 endloop
endfacet
facet normal 0 0 -1
 outer loop
  vertex -1.0631212 11.000229 1.462074
  vertex -0.833002 6.28899e-08 1.462074
  vertex -3.016213 0.29303923 1.462074
 endloop
endfacet
facet normal 0 0 -1
 outer loop
  vertex -1.0631212 11.000229 1.462074
  vertex -3.016213 0.29303923 1.462074
  vertex -5.185291 0.9165504 1.462074
 endloop
endfacet
facet normal -0 -0 -1
 outer loop
  vertex -0.833002 6.28899e-08 1.462074
  vertex -1.0631212 11.000229 1.462074
  vertex 1.0631212 11.000229 1.462074
 endloop
endfacet
facet normal -0 0 -1
 outer loop
  vertex -0.833002 6.28899e-08 1.462074
  vertex 1.0631212 11.000229 1.462074
  vertex 0.833002 6.28899e-08 1.462074
 endloop
endfacet
facet normal 0.0020583472 -0.00023394523 -0.99999785
 outer loop
  vertex 7.479492 11.00023 1.4610281
  vertex 8.495783 11.000225 1.46312
  vertex 8.495783 0.91655034 1.465479
 endloop
endfacet
facet normal 0.0021009035 -0.00022965611 -0.9999978
 outer loop
  vertex 7.479492 11.00023 1.4610281
  vertex 8.495783 0.91655034 1.465479
  vertex 6.875067 0.91655046 1.462074
 endloop
endfacet
facet normal 5.6261044e-08 4.1804975e-07 -1
 outer loop
  vertex -6.8750725 4.7683716e-07 -0.00579834
  vertex -3.016219 0.29381624 -0.005798
  vertex -0.833007 6.289028e-08 -0.005798
 endloop
endfacet
facet normal 0.0033460846 -0.025554283 -0.9996678
 outer loop
  vertex -6.8750725 -4.3653717 0.095975876
  vertex -6.8750725 -5.1856813 0.11694527
  vertex -8.495783 6.4141375e-07 -0.02104
 endloop
endfacet
facet normal 0 -0 -1
 outer loop
  vertex 6.869768 5.1865305e-07 -0.005798
  vertex 0.833007 6.289028e-08 -0.005798
  vertex 3.016219 0.2938162 -0.005798
 endloop
endfacet
facet normal -0.0034866256 -0.025510145 -0.9996685
 outer loop
  vertex 6.8750725 -2.5135114 0.048754
  vertex 6.8750725 -1.6300384 0.026209
  vertex 8.495783 6.4141375e-07 -0.02104
 endloop
endfacet
facet normal 0.0017426835 -0.025510874 -0.999673
 outer loop
  vertex -6.3343906 -1.6300385 0.026209004
  vertex -6.3343906 -0.7042656 0.002584003
  vertex -0.833007 6.289028e-08 -0.005798
 endloop
endfacet
facet normal -0.0017426166 -0.025510533 -0.99967307
 outer loop
  vertex 6.33439 -4.3639827 0.095976
  vertex 0.833007 6.289028e-08 -0.005798
  vertex 6.3343906 -2.5135095 0.048754
 endloop
endfacet
facet normal 0.0035156314 -0.025491368 -0.99966884
 outer loop
  vertex -6.8750725 -2.5135095 0.04875374
  vertex -6.8750725 -4.3653717 0.095975876
  vertex -8.495783 6.4141375e-07 -0.02104
 endloop
endfacet
facet normal 0.0034866459 -0.025510043 -0.9996685
 outer loop
  vertex -6.8750725 -2.5135095 0.04875374
  vertex -8.495783 6.4141375e-07 -0.02104
  vertex -6.8750725 -1.6300385 0.026208878
 endloop
endfacet
facet normal 2.5659385e-06 -0.023311784 -0.99972826
 outer loop
  vertex 0.833007 6.289028e-08 -0.005798
  vertex 6.33439 -4.3639827 0.095976
  vertex -6.3343906 -4.3653717 0.095975876
 endloop
endfacet
facet normal 0.0013308262 -0.025491362 -0.99967414
 outer loop
  vertex 0.833007 6.289028e-08 -0.005798
  vertex -6.3343906 -4.3653717 0.095975876
  vertex -6.3343906 -2.5135095 0.048754
 endloop
endfacet
facet normal -8.999199e-08 -0.0255103 -0.99967456
 outer loop
  vertex 6.8750725 -1.6300384 0.026209
  vertex 6.8750725 -2.5135114 0.048754
  vertex 6.3343906 -2.5135095 0.048754
 endloop
endfacet
facet normal 3.898115e-09 -0.025510358 -0.99967456
 outer loop
  vertex 6.8750725 -1.6300384 0.026209
  vertex 6.3343906 -2.5135095 0.048754
  vertex 6.3343906 -1.6300385 0.026209
 endloop
endfacet
facet normal 1.2163537e-07 0.32716268 -0.94496804
 outer loop
  vertex -8.495783 -11.8001175 0.284704
  vertex -6.8750725 -11.8001175 0.2847042
  vertex -6.8750725 -12.683221 -0.021039963
 endloop
endfacet
facet normal 2.1720604e-08 0.32716253 -0.94496816
 outer loop
  vertex -8.495783 -11.8001175 0.284704
  vertex -6.8750725 -12.683221 -0.021039963
  vertex -8.495783 -12.683221 -0.02104
 endloop
endfacet
facet normal -0 0 -1
 outer loop
  vertex 5.185298 0.91898334 -0.005798
  vertex 6.875073 0.91898346 -0.005798
  vertex 6.869768 5.1865305e-07 -0.005798
 endloop
endfacet
facet normal 0 0 -1
 outer loop
  vertex 5.185298 0.91898334 -0.005798
  vertex 6.869768 5.1865305e-07 -0.005798
  vertex 3.016219 0.2938162 -0.005798
 endloop
endfacet
facet normal 5.5441657e-08 -0.011901353 -0.9999292
 outer loop
  vertex -6.8750725 4.7683716e-07 -0.00579834
  vertex -0.833007 6.289028e-08 -0.005798
  vertex -6.3343906 -0.7042656 0.002584003
 endloop
endfacet
facet normal -8.405187e-07 -0.011902041 -0.9999291
 outer loop
  vertex -6.8750725 4.7683716e-07 -0.00579834
  vertex -6.3343906 -0.7042656 0.002584003
  vertex -6.8750725 -0.7042656 0.0025844574
 endloop
endfacet
facet normal -0.009372756 -0.011970963 -0.9998845
 outer loop
  vertex 6.875072 -0.70426553 0.002584
  vertex 6.869768 5.1865305e-07 -0.005798
  vertex 8.495783 6.4141375e-07 -0.02104
 endloop
endfacet
facet normal -0.003486001 -0.025510766 -0.9996685
 outer loop
  vertex 6.875072 -0.70426553 0.002584
  vertex 8.495783 6.4141375e-07 -0.02104
  vertex 6.8750725 -1.6300384 0.026209
 endloop
endfacet
facet normal 2.4627955e-08 0.32716218 -0.94496816
 outer loop
  vertex -6.3343906 -12.683222 -0.02104
  vertex -6.3343906 -11.8001175 0.284704
  vertex 6.334391 -11.800118 0.284704
 endloop
endfacet
facet normal 0 0.3271625 -0.94496804
 outer loop
  vertex -6.3343906 -12.683222 -0.02104
  vertex 6.334391 -11.800118 0.284704
  vertex 6.334392 -12.683222 -0.02104
 endloop
endfacet
facet normal 0.0022346568 -0.02590149 -0.99966204
 outer loop
  vertex -8.495783 -11.8001175 0.284704
  vertex -8.495783 6.4141375e-07 -0.02104
  vertex -6.8750725 -5.1856813 0.11694527
 endloop
endfacet
facet normal 0.0006086687 -0.025503399 -0.9996745
 outer loop
  vertex -8.495783 -11.8001175 0.284704
  vertex -6.8750725 -5.1856813 0.11694527
  vertex -6.8750725 -8.093652 0.19113255
 endloop
endfacet
facet normal -0.0017426672 -0.025510821 -0.999673
 outer loop
  vertex 0.833007 6.289028e-08 -0.005798
  vertex 6.33439 -0.7042635 0.002584
  vertex 6.3343906 -1.6300385 0.026209
 endloop
endfacet
facet normal -0.0017425194 -0.025510319 -0.999673
 outer loop
  vertex 0.833007 6.289028e-08 -0.005798
  vertex 6.3343906 -1.6300385 0.026209
  vertex 6.3343906 -2.5135095 0.048754
 endloop
endfacet
facet normal 0.0017425179 -0.025510315 -0.999673
 outer loop
  vertex -6.3343906 -2.5135095 0.048754
  vertex -6.3343906 -1.6300385 0.026209004
  vertex -0.833007 6.289028e-08 -0.005798
 endloop
endfacet
facet normal -0 -0.02169841 -0.99976456
 outer loop
  vertex -6.3343906 -2.5135095 0.048754
  vertex -0.833007 6.289028e-08 -0.005798
  vertex 0.833007 6.289028e-08 -0.005798
 endloop
endfacet
facet normal -7.3836613e-06 -0.025506644 -0.9996746
 outer loop
  vertex 6.875073 -8.092928 0.191133
  vertex 6.875073 -8.792949 0.208994
  vertex 6.334391 -8.792949 0.208998
 endloop
endfacet
facet normal -4.4276973e-08 -0.025512312 -0.9996745
 outer loop
  vertex 6.875073 -8.092928 0.191133
  vertex 6.334391 -8.792949 0.208998
  vertex 6.334391 -8.092927 0.191133
 endloop
endfacet
facet normal 0.0034865583 -0.025510132 -0.9996685
 outer loop
  vertex -6.8750725 -0.7042656 0.0025844574
  vertex -6.8750725 -1.6300385 0.026208878
  vertex -8.495783 6.4141375e-07 -0.02104
 endloop
endfacet
facet normal 0.009403224 -0.011901514 -0.9998849
 outer loop
  vertex -6.8750725 -0.7042656 0.0025844574
  vertex -8.495783 6.4141375e-07 -0.02104
  vertex -6.8750725 4.7683716e-07 -0.00579834
 endloop
endfacet
facet normal -1.8950208e-09 -0.025173796 -0.9996831
 outer loop
  vertex 6.334391 -11.800118 0.284704
  vertex -6.3343906 -11.8001175 0.284704
  vertex -6.3343906 -8.793745 0.2089982
 endloop
endfacet
facet normal 1.5654657e-06 -0.025167195 -0.99968326
 outer loop
  vertex 6.334391 -11.800118 0.284704
  vertex -6.3343906 -8.793745 0.2089982
  vertex 6.334391 -8.792949 0.208998
 endloop
endfacet
facet normal -0.00062778144 -0.025506642 -0.9996745
 outer loop
  vertex 6.875073 -8.792949 0.208994
  vertex 6.875073 -8.092928 0.191133
  vertex 8.495783 -11.800118 0.284704
 endloop
endfacet
facet normal 0 -0.025168521 -0.9996832
 outer loop
  vertex 6.875073 -8.792949 0.208994
  vertex 8.495783 -11.800118 0.284704
  vertex 6.875073 -11.800118 0.284704
 endloop
endfacet
facet normal 6.968296e-08 2.4177191e-07 -1
 outer loop
  vertex -5.185298 0.9189834 -0.005798
  vertex -3.016219 0.29381624 -0.005798
  vertex -6.8750725 4.7683716e-07 -0.00579834
 endloop
endfacet
facet normal 2.011705e-07 0 -1
 outer loop
  vertex -5.185298 0.9189834 -0.005798
  vertex -6.8750725 4.7683716e-07 -0.00579834
  vertex -6.8750725 0.91898346 -0.00579834
 endloop
endfacet
facet normal 1.2867822e-07 -0.02517529 -0.999683
 outer loop
  vertex -6.8750725 -8.793745 0.20899391
  vertex -6.8750725 -11.8001175 0.2847042
  vertex -8.495783 -11.8001175 0.284704
 endloop
endfacet
facet normal 0.0006112663 -0.02550454 -0.9996745
 outer loop
  vertex -6.8750725 -8.793745 0.20899391
  vertex -8.495783 -11.8001175 0.284704
  vertex -6.8750725 -8.093652 0.19113255
 endloop
endfacet
facet normal -0.00063551037 -0.025510017 -0.9996743
 outer loop
  vertex 8.495783 -11.800118 0.284704
  vertex 6.875073 -8.092928 0.191133
  vertex 6.8750725 -5.1856837 0.116945
 endloop
endfacet
facet normal -0.0022344573 -0.025901489 -0.99966204
 outer loop
  vertex 8.495783 -11.800118 0.284704
  vertex 6.8750725 -5.1856837 0.116945
  vertex 8.495783 6.4141375e-07 -0.02104
 endloop
endfacet
facet normal 0.009402602 0.016582705 -0.9998183
 outer loop
  vertex -6.8750725 4.7683716e-07 -0.00579834
  vertex -8.495783 6.4141375e-07 -0.02104
  vertex -8.495783 0.9189841 -0.005798
 endloop
endfacet
facet normal -2.0974304e-07 0 -1
 outer loop
  vertex -6.8750725 4.7683716e-07 -0.00579834
  vertex -8.495783 0.9189841 -0.005798
  vertex -6.8750725 0.91898346 -0.00579834
 endloop
endfacet
facet normal -4.4606416e-08 -0.011900909 -0.9999292
 outer loop
  vertex 6.869768 5.1865305e-07 -0.005798
  vertex 6.875072 -0.70426553 0.002584
  vertex 6.33439 -0.7042635 0.002584
 endloop
endfacet
facet normal 8.761731e-10 -0.011900945 -0.99992925
 outer loop
  vertex 6.869768 5.1865305e-07 -0.005798
  vertex 6.33439 -0.7042635 0.002584
  vertex 0.833007 6.289028e-08 -0.005798
 endloop
endfacet
facet normal 0 -0.025554098 -0.9996734
 outer loop
  vertex 6.3343906 -5.1856813 0.116945
  vertex -6.3343906 -5.1856813 0.116945
  vertex -6.3343906 -4.3653717 0.095975876
 endloop
endfacet
facet normal 2.8070392e-06 -0.025510775 -0.9996745
 outer loop
  vertex 6.3343906 -5.1856813 0.116945
  vertex -6.3343906 -4.3653717 0.095975876
  vertex 6.33439 -4.3639827 0.095976
 endloop
endfacet
facet normal 1.4584066e-06 -0.02551231 -0.9996745
 outer loop
  vertex -6.3343906 -8.093652 0.19113302
  vertex 6.334391 -8.092927 0.191133
  vertex 6.334391 -8.792949 0.208998
 endloop
endfacet
facet normal 1.5870123e-06 -0.025509985 -0.9996746
 outer loop
  vertex -6.3343906 -8.093652 0.19113302
  vertex 6.334391 -8.792949 0.208998
  vertex -6.3343906 -8.793745 0.2089982
 endloop
endfacet
facet normal -0 -0.025554426 -0.9996734
 outer loop
  vertex -6.8750725 -5.1856813 0.11694527
  vertex -6.8750725 -4.3653717 0.095975876
  vertex -6.3343906 -4.3653717 0.095975876
 endloop
endfacet
facet normal -4.953939e-07 -0.025554102 -0.9996735
 outer loop
  vertex -6.8750725 -5.1856813 0.11694527
  vertex -6.3343906 -4.3653717 0.095975876
  vertex -6.3343906 -5.1856813 0.116945
 endloop
endfacet
facet normal -1.7998735e-07 -0.025510777 -0.99967456
 outer loop
  vertex 6.3343906 -5.1856813 0.116945
  vertex 6.33439 -4.3639827 0.095976
  vertex 6.875072 -4.3639865 0.095976
 endloop
endfacet
facet normal -1.13161555e-07 -0.025510823 -0.99967456
 outer loop
  vertex 6.3343906 -5.1856813 0.116945
  vertex 6.875072 -4.3639865 0.095976
  vertex 6.8750725 -5.1856837 0.116945
 endloop
endfacet
facet normal -0.0034862375 -0.025510393 -0.9996684
 outer loop
  vertex 6.875072 -4.3639865 0.095976
  vertex 6.8750725 -2.5135114 0.048754
  vertex 8.495783 6.4141375e-07 -0.02104
 endloop
endfacet
facet normal -0.003485514 -0.025510669 -0.9996685
 outer loop
  vertex 6.875072 -4.3639865 0.095976
  vertex 8.495783 6.4141375e-07 -0.02104
  vertex 6.8750725 -5.1856837 0.116945
 endloop
endfacet
facet normal 1.4579117e-06 -0.025503661 -0.99967474
 outer loop
  vertex 6.334391 -8.092927 0.191133
  vertex -6.3343906 -8.093652 0.19113302
  vertex -6.3343906 -5.1856813 0.116945
 endloop
endfacet
facet normal -0 -0.02551001 -0.99967456
 outer loop
  vertex 6.334391 -8.092927 0.191133
  vertex -6.3343906 -5.1856813 0.116945
  vertex 6.3343906 -5.1856813 0.116945
 endloop
endfacet
facet normal 0 0.32716283 -0.944968
 outer loop
  vertex 6.875073 -11.800118 0.284704
  vertex 8.495783 -11.800118 0.284704
  vertex 8.495783 -12.683221 -0.02104
 endloop
endfacet
facet normal -1.9251225e-07 0.32716253 -0.9449681
 outer loop
  vertex 6.875073 -11.800118 0.284704
  vertex 8.495783 -12.683221 -0.02104
  vertex 6.875073 -12.683222 -0.02104
 endloop
endfacet
facet normal -6.7087567e-09 0.016583437 -0.9998625
 outer loop
  vertex 6.875073 0.91898346 -0.005798
  vertex 8.495783 0.9189841 -0.005798
  vertex 8.495783 6.4141375e-07 -0.02104
 endloop
endfacet
facet normal -0.009373427 5.410768e-05 -0.9999561
 outer loop
  vertex 6.875073 0.91898346 -0.005798
  vertex 8.495783 6.4141375e-07 -0.02104
  vertex 6.869768 5.1865305e-07 -0.005798
 endloop
endfacet
facet normal 4.8214207e-07 -0.025510354 -0.99967456
 outer loop
  vertex -6.3343906 -1.6300385 0.026209004
  vertex -6.3343906 -2.5135095 0.048754
  vertex -6.8750725 -2.5135095 0.04875374
 endloop
endfacet
facet normal 2.3388694e-07 -0.025510205 -0.9996746
 outer loop
  vertex -6.3343906 -1.6300385 0.026209004
  vertex -6.8750725 -2.5135095 0.04875374
  vertex -6.8750725 -1.6300385 0.026208878
 endloop
endfacet
facet normal 8.8163114e-07 -0.025509981 -0.99967456
 outer loop
  vertex -6.8750725 -8.093652 0.19113255
  vertex -6.3343906 -8.093652 0.19113302
  vertex -6.3343906 -8.793745 0.2089982
 endloop
endfacet
facet normal 7.934682e-06 -0.025504539 -0.9996747
 outer loop
  vertex -6.8750725 -8.093652 0.19113255
  vertex -6.3343906 -8.793745 0.2089982
  vertex -6.8750725 -8.793745 0.20899391
 endloop
endfacet
endsolid 
